G04 #@! TF.FileFunction,Copper,L1,Top,Signal*
%FSLAX46Y46*%
G04 Gerber Fmt 4.6, Leading zero omitted, Abs format (unit mm)*
G04 Created by KiCad (PCBNEW 4.0.4-stable) date 06/22/17 13:33:57*
%MOMM*%
%LPD*%
G01*
G04 APERTURE LIST*
%ADD10C,0.300000*%
%ADD11R,2.032000X2.032000*%
%ADD12C,2.032000*%
%ADD13C,6.000000*%
%ADD14C,1.905000*%
%ADD15C,2.199640*%
%ADD16R,2.286000X1.574800*%
%ADD17O,2.286000X1.574800*%
%ADD18C,2.000000*%
%ADD19O,3.000000X1.200000*%
%ADD20O,2.400000X1.200000*%
%ADD21O,1.200000X2.400000*%
%ADD22C,0.762000*%
%ADD23C,0.254000*%
G04 APERTURE END LIST*
D10*
D11*
X36845000Y24350000D03*
D12*
X36845000Y21810000D03*
D13*
X44982000Y45165000D03*
X4982000Y45165000D03*
X4982000Y5165000D03*
X44982000Y5165000D03*
D14*
X27922000Y42075000D03*
X27922000Y47155000D03*
X23477000Y42075000D03*
X23477000Y47155000D03*
X29192000Y32550000D03*
X29192000Y37630000D03*
X33002000Y32550000D03*
X33002000Y37630000D03*
D11*
X33002000Y15405000D03*
D12*
X38082000Y15405000D03*
D15*
X33002000Y12865000D03*
X38082000Y12865000D03*
D16*
X11666000Y35217000D03*
D17*
X11666000Y32677000D03*
X11666000Y30137000D03*
X11666000Y27597000D03*
X19286000Y27597000D03*
X19286000Y30137000D03*
X19286000Y32677000D03*
X19286000Y35217000D03*
D11*
X3792000Y20485000D03*
D12*
X6332000Y20485000D03*
D11*
X3792000Y12230000D03*
D12*
X6332000Y12230000D03*
D18*
X46362400Y17302380D03*
X46337000Y20310000D03*
X46337000Y14310000D03*
D19*
X46337000Y23610000D03*
X46337000Y11010000D03*
D20*
X40657000Y31285000D03*
D21*
X47507000Y33785000D03*
D20*
X42907000Y38785000D03*
X39407000Y29035000D03*
D21*
X35907000Y38285000D03*
D12*
X10142000Y23660000D03*
X10142000Y16040000D03*
X13350000Y16095000D03*
X13350000Y23715000D03*
X22461000Y31407000D03*
X22461000Y39027000D03*
X8491000Y31407000D03*
X8491000Y39027000D03*
X25636000Y39027000D03*
X25636000Y31407000D03*
X5316000Y39027000D03*
X5316000Y31407000D03*
X31765000Y26890000D03*
X31765000Y19270000D03*
X33637000Y45250000D03*
X38717000Y45250000D03*
X12047000Y45250000D03*
X17127000Y45250000D03*
D22*
X14714000Y30137000D02*
X14714000Y42837000D01*
X14714000Y42837000D02*
X17127000Y45250000D01*
X6332000Y20485000D02*
X6332000Y26327000D01*
X10142000Y30137000D02*
X11666000Y30137000D01*
X6332000Y26327000D02*
X10142000Y30137000D01*
X17127000Y45250000D02*
X33637000Y45250000D01*
X11666000Y30137000D02*
X14714000Y30137000D01*
X14714000Y30137000D02*
X17254000Y27597000D01*
X17254000Y27597000D02*
X19286000Y27597000D01*
X6332000Y12230000D02*
X6332000Y13246000D01*
X6332000Y13246000D02*
X8237000Y15151000D01*
X10015000Y27597000D02*
X11666000Y27597000D01*
X8237000Y25819000D02*
X10015000Y27597000D01*
X8237000Y15151000D02*
X8237000Y25819000D01*
X19286000Y32677000D02*
X20302000Y32677000D01*
X20302000Y32677000D02*
X25636000Y38011000D01*
X25636000Y38011000D02*
X25636000Y39027000D01*
X19286000Y32677000D02*
X20048000Y32677000D01*
X25636000Y38265000D02*
X25636000Y39027000D01*
D23*
G36*
X46636390Y48950592D02*
X48023654Y48023651D01*
X48950592Y46636390D01*
X49290000Y44930069D01*
X49290000Y5069931D01*
X48950592Y3363610D01*
X48023654Y1976349D01*
X46636390Y1049408D01*
X44930069Y710000D01*
X39460000Y710000D01*
X39460000Y4445126D01*
X41346370Y4445126D01*
X41898600Y3108628D01*
X42920249Y2085194D01*
X44255782Y1530632D01*
X45701874Y1529370D01*
X47038372Y2081600D01*
X48061806Y3103249D01*
X48616368Y4438782D01*
X48617630Y5884874D01*
X48065400Y7221372D01*
X47043751Y8244806D01*
X45708218Y8799368D01*
X44262126Y8800630D01*
X42925628Y8248400D01*
X41902194Y7226751D01*
X41347632Y5891218D01*
X41346370Y4445126D01*
X39460000Y4445126D01*
X39460000Y10500000D01*
X39405954Y10771705D01*
X39252046Y11002046D01*
X39240142Y11010000D01*
X44160173Y11010000D01*
X44254182Y10537386D01*
X44521896Y10136723D01*
X44922559Y9869009D01*
X45395173Y9775000D01*
X47278827Y9775000D01*
X47751441Y9869009D01*
X48152104Y10136723D01*
X48419818Y10537386D01*
X48513827Y11010000D01*
X48419818Y11482614D01*
X48152104Y11883277D01*
X47751441Y12150991D01*
X47278827Y12245000D01*
X45395173Y12245000D01*
X44922559Y12150991D01*
X44521896Y11883277D01*
X44254182Y11482614D01*
X44160173Y11010000D01*
X39240142Y11010000D01*
X39021705Y11155954D01*
X38750000Y11210000D01*
X38619468Y11210000D01*
X39063413Y11393434D01*
X39551851Y11881020D01*
X39816518Y12518409D01*
X39817120Y13208563D01*
X39553566Y13846413D01*
X39206189Y14194397D01*
X39480834Y14468563D01*
X39732713Y15075155D01*
X39733286Y15731963D01*
X39482466Y16338995D01*
X39018437Y16803834D01*
X38411845Y17055713D01*
X37755037Y17056286D01*
X37148005Y16805466D01*
X36683166Y16341437D01*
X36431287Y15734845D01*
X36430714Y15078037D01*
X36681534Y14471005D01*
X36957914Y14194142D01*
X36612149Y13848980D01*
X36347482Y13211591D01*
X36346880Y12521437D01*
X36610434Y11883587D01*
X37098020Y11395149D01*
X37543908Y11210000D01*
X33539468Y11210000D01*
X33983413Y11393434D01*
X34471851Y11881020D01*
X34736518Y12518409D01*
X34737120Y13208563D01*
X34473566Y13846413D01*
X34424241Y13895824D01*
X34469441Y13924910D01*
X34614431Y14137110D01*
X34665440Y14389000D01*
X34665440Y16421000D01*
X34621162Y16656317D01*
X34482090Y16872441D01*
X34269890Y17017431D01*
X34018000Y17068440D01*
X31986000Y17068440D01*
X31750683Y17024162D01*
X31534559Y16885090D01*
X31389569Y16672890D01*
X31338560Y16421000D01*
X31338560Y14389000D01*
X31382838Y14153683D01*
X31521910Y13937559D01*
X31580666Y13897413D01*
X31532149Y13848980D01*
X31267482Y13211591D01*
X31266880Y12521437D01*
X31530434Y11883587D01*
X32018020Y11395149D01*
X32463908Y11210000D01*
X11500000Y11210000D01*
X11228295Y11155954D01*
X10997954Y11002046D01*
X10844046Y10771705D01*
X10790000Y10500000D01*
X10790000Y710000D01*
X5069931Y710000D01*
X3363610Y1049408D01*
X1976349Y1976346D01*
X1049408Y3363610D01*
X834282Y4445126D01*
X1346370Y4445126D01*
X1898600Y3108628D01*
X2920249Y2085194D01*
X4255782Y1530632D01*
X5701874Y1529370D01*
X7038372Y2081600D01*
X8061806Y3103249D01*
X8616368Y4438782D01*
X8617630Y5884874D01*
X8065400Y7221372D01*
X7043751Y8244806D01*
X5708218Y8799368D01*
X4262126Y8800630D01*
X2925628Y8248400D01*
X1902194Y7226751D01*
X1347632Y5891218D01*
X1346370Y4445126D01*
X834282Y4445126D01*
X710000Y5069931D01*
X710000Y11944250D01*
X2141000Y11944250D01*
X2141000Y11087690D01*
X2237673Y10854301D01*
X2416302Y10675673D01*
X2649691Y10579000D01*
X3506250Y10579000D01*
X3665000Y10737750D01*
X3665000Y12103000D01*
X2299750Y12103000D01*
X2141000Y11944250D01*
X710000Y11944250D01*
X710000Y13372310D01*
X2141000Y13372310D01*
X2141000Y12515750D01*
X2299750Y12357000D01*
X3665000Y12357000D01*
X3665000Y13722250D01*
X3506250Y13881000D01*
X2649691Y13881000D01*
X2416302Y13784327D01*
X2237673Y13605699D01*
X2141000Y13372310D01*
X710000Y13372310D01*
X710000Y21501000D01*
X2128560Y21501000D01*
X2128560Y19469000D01*
X2172838Y19233683D01*
X2311910Y19017559D01*
X2524110Y18872569D01*
X2776000Y18821560D01*
X4808000Y18821560D01*
X5043317Y18865838D01*
X5259441Y19004910D01*
X5392779Y19200057D01*
X5448120Y19052378D01*
X6063642Y18823184D01*
X6720019Y18846986D01*
X7215880Y19052378D01*
X7221000Y19066041D01*
X7221000Y15571841D01*
X5613580Y13964420D01*
X5393338Y13634807D01*
X5393338Y13634806D01*
X5391105Y13623578D01*
X5354187Y13586724D01*
X5346327Y13605699D01*
X5167698Y13784327D01*
X4934309Y13881000D01*
X4077750Y13881000D01*
X3919000Y13722250D01*
X3919000Y12357000D01*
X3939000Y12357000D01*
X3939000Y12103000D01*
X3919000Y12103000D01*
X3919000Y10737750D01*
X4077750Y10579000D01*
X4934309Y10579000D01*
X5167698Y10675673D01*
X5346327Y10854301D01*
X5353993Y10872808D01*
X5395563Y10831166D01*
X6002155Y10579287D01*
X6658963Y10578714D01*
X7265995Y10829534D01*
X7730834Y11293563D01*
X7982713Y11900155D01*
X7983286Y12556963D01*
X7732466Y13163995D01*
X7709671Y13186830D01*
X8955421Y14432580D01*
X9175662Y14762193D01*
X9184138Y14804804D01*
X9258120Y14607378D01*
X9873642Y14378184D01*
X10530019Y14401986D01*
X11025880Y14607378D01*
X11126502Y14875893D01*
X11071502Y14930893D01*
X12365498Y14930893D01*
X12466120Y14662378D01*
X13081642Y14433184D01*
X13738019Y14456986D01*
X14233880Y14662378D01*
X14334502Y14930893D01*
X13350000Y15915395D01*
X12365498Y14930893D01*
X11071502Y14930893D01*
X10142000Y15860395D01*
X10127858Y15846252D01*
X9948253Y16025857D01*
X9962395Y16040000D01*
X10321605Y16040000D01*
X11306107Y15055498D01*
X11574622Y15156120D01*
X11747665Y15620844D01*
X11917378Y15211120D01*
X12185893Y15110498D01*
X13170395Y16095000D01*
X13529605Y16095000D01*
X14514107Y15110498D01*
X14782622Y15211120D01*
X15011816Y15826642D01*
X14988014Y16483019D01*
X14782622Y16978880D01*
X14514107Y17079502D01*
X13529605Y16095000D01*
X13170395Y16095000D01*
X12185893Y17079502D01*
X11917378Y16978880D01*
X11744335Y16514156D01*
X11574622Y16923880D01*
X11306107Y17024502D01*
X10321605Y16040000D01*
X9962395Y16040000D01*
X9948253Y16054142D01*
X10127858Y16233747D01*
X10142000Y16219605D01*
X11126502Y17204107D01*
X11105892Y17259107D01*
X12365498Y17259107D01*
X13350000Y16274605D01*
X14334502Y17259107D01*
X14233880Y17527622D01*
X13618358Y17756816D01*
X12961981Y17733014D01*
X12466120Y17527622D01*
X12365498Y17259107D01*
X11105892Y17259107D01*
X11025880Y17472622D01*
X10410358Y17701816D01*
X9753981Y17678014D01*
X9258120Y17472622D01*
X9253000Y17458959D01*
X9253000Y18943037D01*
X30113714Y18943037D01*
X30364534Y18336005D01*
X30828563Y17871166D01*
X31435155Y17619287D01*
X32091963Y17618714D01*
X32698995Y17869534D01*
X33163834Y18333563D01*
X33415713Y18940155D01*
X33416286Y19596963D01*
X33255455Y19986205D01*
X44701716Y19986205D01*
X44950106Y19385057D01*
X45409637Y18924722D01*
X45707723Y18800946D01*
X45437457Y18689274D01*
X44977122Y18229743D01*
X44727684Y17629028D01*
X44727116Y16978585D01*
X44975506Y16377437D01*
X45435037Y15917102D01*
X45689390Y15811486D01*
X45412057Y15696894D01*
X44951722Y15237363D01*
X44702284Y14636648D01*
X44701716Y13986205D01*
X44950106Y13385057D01*
X45409637Y12924722D01*
X46010352Y12675284D01*
X46660795Y12674716D01*
X47261943Y12923106D01*
X47722278Y13382637D01*
X47971716Y13983352D01*
X47972284Y14633795D01*
X47723894Y15234943D01*
X47264363Y15695278D01*
X47010010Y15800894D01*
X47287343Y15915486D01*
X47747678Y16375017D01*
X47997116Y16975732D01*
X47997684Y17626175D01*
X47749294Y18227323D01*
X47289763Y18687658D01*
X46991677Y18811434D01*
X47261943Y18923106D01*
X47722278Y19382637D01*
X47971716Y19983352D01*
X47972284Y20633795D01*
X47723894Y21234943D01*
X47264363Y21695278D01*
X46663648Y21944716D01*
X46013205Y21945284D01*
X45412057Y21696894D01*
X44951722Y21237363D01*
X44702284Y20636648D01*
X44701716Y19986205D01*
X33255455Y19986205D01*
X33165466Y20203995D01*
X32701437Y20668834D01*
X32094845Y20920713D01*
X31438037Y20921286D01*
X30831005Y20670466D01*
X30366166Y20206437D01*
X30114287Y19599845D01*
X30113714Y18943037D01*
X9253000Y18943037D01*
X9253000Y22241468D01*
X9812155Y22009287D01*
X10468963Y22008714D01*
X11075995Y22259534D01*
X11540834Y22723563D01*
X11757585Y23245558D01*
X11949534Y22781005D01*
X12413563Y22316166D01*
X13020155Y22064287D01*
X13676963Y22063714D01*
X14283995Y22314534D01*
X14748834Y22778563D01*
X15000713Y23385155D01*
X15001286Y24041963D01*
X14750466Y24648995D01*
X14286437Y25113834D01*
X13679845Y25365713D01*
X13023037Y25366286D01*
X12416005Y25115466D01*
X11951166Y24651437D01*
X11734415Y24129442D01*
X11542466Y24593995D01*
X11078437Y25058834D01*
X10471845Y25310713D01*
X9815037Y25311286D01*
X9253000Y25079058D01*
X9253000Y25398160D01*
X10375447Y26520606D01*
X10731238Y26282874D01*
X11275567Y26174600D01*
X12056433Y26174600D01*
X12600762Y26282874D01*
X13062222Y26591211D01*
X13370559Y27052671D01*
X13409798Y27249940D01*
X17550990Y27249940D01*
X17567673Y27170004D01*
X17834809Y26681014D01*
X18268738Y26331475D01*
X18803400Y26174600D01*
X19159000Y26174600D01*
X19159000Y27470000D01*
X19413000Y27470000D01*
X19413000Y26174600D01*
X19768600Y26174600D01*
X20303262Y26331475D01*
X20590730Y26563037D01*
X30113714Y26563037D01*
X30364534Y25956005D01*
X30828563Y25491166D01*
X31435155Y25239287D01*
X32091963Y25238714D01*
X32400019Y25366000D01*
X35181560Y25366000D01*
X35181560Y23334000D01*
X35225838Y23098683D01*
X35364910Y22882559D01*
X35494100Y22794287D01*
X35446166Y22746437D01*
X35194287Y22139845D01*
X35193714Y21483037D01*
X35444534Y20876005D01*
X35908563Y20411166D01*
X36515155Y20159287D01*
X37171963Y20158714D01*
X37778995Y20409534D01*
X38243834Y20873563D01*
X38495713Y21480155D01*
X38496286Y22136963D01*
X38245466Y22743995D01*
X38195128Y22794421D01*
X38312441Y22869910D01*
X38457431Y23082110D01*
X38508440Y23334000D01*
X38508440Y23610000D01*
X44160173Y23610000D01*
X44254182Y23137386D01*
X44521896Y22736723D01*
X44922559Y22469009D01*
X45395173Y22375000D01*
X47278827Y22375000D01*
X47751441Y22469009D01*
X48152104Y22736723D01*
X48419818Y23137386D01*
X48513827Y23610000D01*
X48419818Y24082614D01*
X48152104Y24483277D01*
X47751441Y24750991D01*
X47278827Y24845000D01*
X45395173Y24845000D01*
X44922559Y24750991D01*
X44521896Y24483277D01*
X44254182Y24082614D01*
X44160173Y23610000D01*
X38508440Y23610000D01*
X38508440Y25366000D01*
X38464162Y25601317D01*
X38325090Y25817441D01*
X38112890Y25962431D01*
X37861000Y26013440D01*
X35829000Y26013440D01*
X35593683Y25969162D01*
X35377559Y25830090D01*
X35232569Y25617890D01*
X35181560Y25366000D01*
X32400019Y25366000D01*
X32698995Y25489534D01*
X33163834Y25953563D01*
X33415713Y26560155D01*
X33416286Y27216963D01*
X33165466Y27823995D01*
X32701437Y28288834D01*
X32094845Y28540713D01*
X31438037Y28541286D01*
X30831005Y28290466D01*
X30366166Y27826437D01*
X30114287Y27219845D01*
X30113714Y26563037D01*
X20590730Y26563037D01*
X20737191Y26681014D01*
X21004327Y27170004D01*
X21021010Y27249940D01*
X20898852Y27470000D01*
X19413000Y27470000D01*
X19159000Y27470000D01*
X17673148Y27470000D01*
X17550990Y27249940D01*
X13409798Y27249940D01*
X13478833Y27597000D01*
X13370559Y28141329D01*
X13062222Y28602789D01*
X12667170Y28866754D01*
X12683262Y28871475D01*
X13117191Y29221014D01*
X13384327Y29710004D01*
X13401010Y29789940D01*
X13278852Y30010000D01*
X11793000Y30010000D01*
X11793000Y29990000D01*
X11539000Y29990000D01*
X11539000Y30010000D01*
X10053148Y30010000D01*
X9930990Y29789940D01*
X9947673Y29710004D01*
X10214809Y29221014D01*
X10648738Y28871475D01*
X10664830Y28866754D01*
X10285060Y28613000D01*
X10015000Y28613000D01*
X9626193Y28535662D01*
X9296580Y28315421D01*
X7518580Y26537420D01*
X7298338Y26207807D01*
X7298338Y26207806D01*
X7221000Y25819000D01*
X7221000Y21903959D01*
X7215880Y21917622D01*
X6600358Y22146816D01*
X5943981Y22123014D01*
X5448120Y21917622D01*
X5391581Y21766746D01*
X5272090Y21952441D01*
X5059890Y22097431D01*
X4808000Y22148440D01*
X2776000Y22148440D01*
X2540683Y22104162D01*
X2324559Y21965090D01*
X2179569Y21752890D01*
X2128560Y21501000D01*
X710000Y21501000D01*
X710000Y31080037D01*
X3664714Y31080037D01*
X3915534Y30473005D01*
X4379563Y30008166D01*
X4986155Y29756287D01*
X5642963Y29755714D01*
X6249995Y30006534D01*
X6714834Y30470563D01*
X6903654Y30925291D01*
X7090534Y30473005D01*
X7554563Y30008166D01*
X8161155Y29756287D01*
X8817963Y29755714D01*
X9424995Y30006534D01*
X9889834Y30470563D01*
X10141713Y31077155D01*
X10142286Y31733963D01*
X10003637Y32069520D01*
X10269778Y31671211D01*
X10664830Y31407246D01*
X10648738Y31402525D01*
X10214809Y31052986D01*
X9947673Y30563996D01*
X9930990Y30484060D01*
X10053148Y30264000D01*
X11539000Y30264000D01*
X11539000Y30284000D01*
X11793000Y30284000D01*
X11793000Y30264000D01*
X13278852Y30264000D01*
X13401010Y30484060D01*
X13384327Y30563996D01*
X13117191Y31052986D01*
X12683262Y31402525D01*
X12667170Y31407246D01*
X13062222Y31671211D01*
X13370559Y32132671D01*
X13478833Y32677000D01*
X13370559Y33221329D01*
X13062222Y33682789D01*
X12890540Y33797503D01*
X13044317Y33826438D01*
X13260441Y33965510D01*
X13405431Y34177710D01*
X13456440Y34429600D01*
X13456440Y35217000D01*
X17473167Y35217000D01*
X17581441Y34672671D01*
X17889778Y34211211D01*
X18285199Y33947000D01*
X17889778Y33682789D01*
X17581441Y33221329D01*
X17473167Y32677000D01*
X17581441Y32132671D01*
X17889778Y31671211D01*
X18285199Y31407000D01*
X17889778Y31142789D01*
X17581441Y30681329D01*
X17473167Y30137000D01*
X17581441Y29592671D01*
X17889778Y29131211D01*
X18284830Y28867246D01*
X18268738Y28862525D01*
X17834809Y28512986D01*
X17567673Y28023996D01*
X17550990Y27944060D01*
X17673148Y27724000D01*
X19159000Y27724000D01*
X19159000Y27744000D01*
X19413000Y27744000D01*
X19413000Y27724000D01*
X20898852Y27724000D01*
X21021010Y27944060D01*
X21004327Y28023996D01*
X20737191Y28512986D01*
X20303262Y28862525D01*
X20287170Y28867246D01*
X20538231Y29035000D01*
X37536050Y29035000D01*
X37630059Y28562386D01*
X37897773Y28161723D01*
X38298436Y27894009D01*
X38771050Y27800000D01*
X40042950Y27800000D01*
X40515564Y27894009D01*
X40916227Y28161723D01*
X41183941Y28562386D01*
X41277950Y29035000D01*
X41183941Y29507614D01*
X40916227Y29908277D01*
X40704123Y30050000D01*
X41292950Y30050000D01*
X41765564Y30144009D01*
X42166227Y30411723D01*
X42433941Y30812386D01*
X42527950Y31285000D01*
X42433941Y31757614D01*
X42166227Y32158277D01*
X41765564Y32425991D01*
X41292950Y32520000D01*
X40021050Y32520000D01*
X39548436Y32425991D01*
X39147773Y32158277D01*
X38880059Y31757614D01*
X38786050Y31285000D01*
X38880059Y30812386D01*
X39147773Y30411723D01*
X39359877Y30270000D01*
X38771050Y30270000D01*
X38298436Y30175991D01*
X37897773Y29908277D01*
X37630059Y29507614D01*
X37536050Y29035000D01*
X20538231Y29035000D01*
X20682222Y29131211D01*
X20990559Y29592671D01*
X21098833Y30137000D01*
X21005507Y30606181D01*
X21060534Y30473005D01*
X21524563Y30008166D01*
X22131155Y29756287D01*
X22787963Y29755714D01*
X23394995Y30006534D01*
X23859834Y30470563D01*
X24048654Y30925291D01*
X24235534Y30473005D01*
X24699563Y30008166D01*
X25306155Y29756287D01*
X25962963Y29755714D01*
X26569995Y30006534D01*
X27034834Y30470563D01*
X27286713Y31077155D01*
X27287286Y31733963D01*
X27080010Y32235612D01*
X27604225Y32235612D01*
X27845398Y31651928D01*
X28291579Y31204968D01*
X28874841Y30962776D01*
X29506388Y30962225D01*
X30090072Y31203398D01*
X30537032Y31649579D01*
X30779224Y32232841D01*
X30779226Y32235612D01*
X31414225Y32235612D01*
X31655398Y31651928D01*
X32101579Y31204968D01*
X32684841Y30962776D01*
X33316388Y30962225D01*
X33900072Y31203398D01*
X34347032Y31649579D01*
X34589224Y32232841D01*
X34589775Y32864388D01*
X34348602Y33448072D01*
X34139040Y33658000D01*
X46272000Y33658000D01*
X46272000Y33058000D01*
X46414610Y32595053D01*
X46723526Y32221920D01*
X47151719Y31995408D01*
X47189391Y31991538D01*
X47380000Y32116269D01*
X47380000Y33658000D01*
X47634000Y33658000D01*
X47634000Y32116269D01*
X47824609Y31991538D01*
X47862281Y31995408D01*
X48290474Y32221920D01*
X48599390Y32595053D01*
X48742000Y33058000D01*
X48742000Y33658000D01*
X47634000Y33658000D01*
X47380000Y33658000D01*
X46272000Y33658000D01*
X34139040Y33658000D01*
X33902421Y33895032D01*
X33319159Y34137224D01*
X32687612Y34137775D01*
X32103928Y33896602D01*
X31656968Y33450421D01*
X31414776Y32867159D01*
X31414225Y32235612D01*
X30779226Y32235612D01*
X30779775Y32864388D01*
X30538602Y33448072D01*
X30092421Y33895032D01*
X29509159Y34137224D01*
X28877612Y34137775D01*
X28293928Y33896602D01*
X27846968Y33450421D01*
X27604776Y32867159D01*
X27604225Y32235612D01*
X27080010Y32235612D01*
X27036466Y32340995D01*
X26572437Y32805834D01*
X25965845Y33057713D01*
X25309037Y33058286D01*
X24702005Y32807466D01*
X24237166Y32343437D01*
X24048346Y31888709D01*
X23861466Y32340995D01*
X23397437Y32805834D01*
X22790845Y33057713D01*
X22134037Y33058286D01*
X22110331Y33048491D01*
X23573840Y34512000D01*
X46272000Y34512000D01*
X46272000Y33912000D01*
X47380000Y33912000D01*
X47380000Y35453731D01*
X47634000Y35453731D01*
X47634000Y33912000D01*
X48742000Y33912000D01*
X48742000Y34512000D01*
X48599390Y34974947D01*
X48290474Y35348080D01*
X47862281Y35574592D01*
X47824609Y35578462D01*
X47634000Y35453731D01*
X47380000Y35453731D01*
X47189391Y35578462D01*
X47151719Y35574592D01*
X46723526Y35348080D01*
X46414610Y34974947D01*
X46272000Y34512000D01*
X23573840Y34512000D01*
X26354420Y37292579D01*
X26369810Y37315612D01*
X27604225Y37315612D01*
X27845398Y36731928D01*
X28291579Y36284968D01*
X28874841Y36042776D01*
X29506388Y36042225D01*
X30090072Y36283398D01*
X30537032Y36729579D01*
X30779224Y37312841D01*
X30779226Y37315612D01*
X31414225Y37315612D01*
X31655398Y36731928D01*
X32101579Y36284968D01*
X32684841Y36042776D01*
X33316388Y36042225D01*
X33900072Y36283398D01*
X34347032Y36729579D01*
X34589224Y37312841D01*
X34589775Y37944388D01*
X34348602Y38528072D01*
X33956409Y38920950D01*
X34672000Y38920950D01*
X34672000Y37649050D01*
X34766009Y37176436D01*
X35033723Y36775773D01*
X35434386Y36508059D01*
X35907000Y36414050D01*
X36379614Y36508059D01*
X36780277Y36775773D01*
X37047991Y37176436D01*
X37142000Y37649050D01*
X37142000Y38785000D01*
X41036050Y38785000D01*
X41130059Y38312386D01*
X41397773Y37911723D01*
X41798436Y37644009D01*
X42271050Y37550000D01*
X43542950Y37550000D01*
X44015564Y37644009D01*
X44416227Y37911723D01*
X44683941Y38312386D01*
X44777950Y38785000D01*
X44683941Y39257614D01*
X44416227Y39658277D01*
X44015564Y39925991D01*
X43542950Y40020000D01*
X42271050Y40020000D01*
X41798436Y39925991D01*
X41397773Y39658277D01*
X41130059Y39257614D01*
X41036050Y38785000D01*
X37142000Y38785000D01*
X37142000Y38920950D01*
X37047991Y39393564D01*
X36780277Y39794227D01*
X36379614Y40061941D01*
X35907000Y40155950D01*
X35434386Y40061941D01*
X35033723Y39794227D01*
X34766009Y39393564D01*
X34672000Y38920950D01*
X33956409Y38920950D01*
X33902421Y38975032D01*
X33319159Y39217224D01*
X32687612Y39217775D01*
X32103928Y38976602D01*
X31656968Y38530421D01*
X31414776Y37947159D01*
X31414225Y37315612D01*
X30779226Y37315612D01*
X30779775Y37944388D01*
X30538602Y38528072D01*
X30092421Y38975032D01*
X29509159Y39217224D01*
X28877612Y39217775D01*
X28293928Y38976602D01*
X27846968Y38530421D01*
X27604776Y37947159D01*
X27604225Y37315612D01*
X26369810Y37315612D01*
X26574662Y37622193D01*
X26576896Y37633423D01*
X27034834Y38090563D01*
X27286713Y38697155D01*
X27287286Y39353963D01*
X27036466Y39960995D01*
X26572437Y40425834D01*
X25965845Y40677713D01*
X25309037Y40678286D01*
X24702005Y40427466D01*
X24237166Y39963437D01*
X24048346Y39508709D01*
X23861466Y39960995D01*
X23397437Y40425834D01*
X23248450Y40487699D01*
X23791388Y40487225D01*
X24375072Y40728398D01*
X24822032Y41174579D01*
X25064224Y41757841D01*
X25064226Y41760612D01*
X26334225Y41760612D01*
X26575398Y41176928D01*
X27021579Y40729968D01*
X27604841Y40487776D01*
X28236388Y40487225D01*
X28820072Y40728398D01*
X29267032Y41174579D01*
X29509224Y41757841D01*
X29509775Y42389388D01*
X29268602Y42973072D01*
X28822421Y43420032D01*
X28239159Y43662224D01*
X27607612Y43662775D01*
X27023928Y43421602D01*
X26576968Y42975421D01*
X26334776Y42392159D01*
X26334225Y41760612D01*
X25064226Y41760612D01*
X25064775Y42389388D01*
X24823602Y42973072D01*
X24377421Y43420032D01*
X23794159Y43662224D01*
X23162612Y43662775D01*
X22578928Y43421602D01*
X22131968Y42975421D01*
X21889776Y42392159D01*
X21889225Y41760612D01*
X22130398Y41176928D01*
X22576579Y40729968D01*
X22702237Y40677790D01*
X22134037Y40678286D01*
X21527005Y40427466D01*
X21062166Y39963437D01*
X20810287Y39356845D01*
X20809714Y38700037D01*
X21060534Y38093005D01*
X21524563Y37628166D01*
X22131155Y37376287D01*
X22787963Y37375714D01*
X23394995Y37626534D01*
X23859834Y38090563D01*
X24048654Y38545291D01*
X24235534Y38093005D01*
X24258329Y38070170D01*
X21022771Y34834611D01*
X21098833Y35217000D01*
X20990559Y35761329D01*
X20682222Y36222789D01*
X20220762Y36531126D01*
X19676433Y36639400D01*
X18895567Y36639400D01*
X18351238Y36531126D01*
X17889778Y36222789D01*
X17581441Y35761329D01*
X17473167Y35217000D01*
X13456440Y35217000D01*
X13456440Y36004400D01*
X13412162Y36239717D01*
X13273090Y36455841D01*
X13060890Y36600831D01*
X12809000Y36651840D01*
X10523000Y36651840D01*
X10287683Y36607562D01*
X10071559Y36468490D01*
X9926569Y36256290D01*
X9875560Y36004400D01*
X9875560Y34429600D01*
X9919838Y34194283D01*
X10058910Y33978159D01*
X10271110Y33833169D01*
X10442803Y33798400D01*
X10269778Y33682789D01*
X9961441Y33221329D01*
X9853167Y32677000D01*
X9946493Y32207819D01*
X9891466Y32340995D01*
X9427437Y32805834D01*
X8820845Y33057713D01*
X8164037Y33058286D01*
X7557005Y32807466D01*
X7092166Y32343437D01*
X6903346Y31888709D01*
X6716466Y32340995D01*
X6252437Y32805834D01*
X5645845Y33057713D01*
X4989037Y33058286D01*
X4382005Y32807466D01*
X3917166Y32343437D01*
X3665287Y31736845D01*
X3664714Y31080037D01*
X710000Y31080037D01*
X710000Y38700037D01*
X3664714Y38700037D01*
X3915534Y38093005D01*
X4379563Y37628166D01*
X4986155Y37376287D01*
X5642963Y37375714D01*
X6249995Y37626534D01*
X6714834Y38090563D01*
X6903654Y38545291D01*
X7090534Y38093005D01*
X7554563Y37628166D01*
X8161155Y37376287D01*
X8817963Y37375714D01*
X9424995Y37626534D01*
X9889834Y38090563D01*
X10141713Y38697155D01*
X10142286Y39353963D01*
X9891466Y39960995D01*
X9427437Y40425834D01*
X8820845Y40677713D01*
X8164037Y40678286D01*
X7557005Y40427466D01*
X7092166Y39963437D01*
X6903346Y39508709D01*
X6716466Y39960995D01*
X6252437Y40425834D01*
X5645845Y40677713D01*
X4989037Y40678286D01*
X4382005Y40427466D01*
X3917166Y39963437D01*
X3665287Y39356845D01*
X3664714Y38700037D01*
X710000Y38700037D01*
X710000Y44445126D01*
X1346370Y44445126D01*
X1898600Y43108628D01*
X2920249Y42085194D01*
X4255782Y41530632D01*
X5701874Y41529370D01*
X7038372Y42081600D01*
X8061806Y43103249D01*
X8616368Y44438782D01*
X8616790Y44923037D01*
X10395714Y44923037D01*
X10646534Y44316005D01*
X11110563Y43851166D01*
X11717155Y43599287D01*
X12373963Y43598714D01*
X12980995Y43849534D01*
X13217766Y44085893D01*
X16142498Y44085893D01*
X16243120Y43817378D01*
X16858642Y43588184D01*
X17515019Y43611986D01*
X18010880Y43817378D01*
X18111502Y44085893D01*
X32652498Y44085893D01*
X32753120Y43817378D01*
X33368642Y43588184D01*
X34025019Y43611986D01*
X34520880Y43817378D01*
X34621502Y44085893D01*
X33637000Y45070395D01*
X32652498Y44085893D01*
X18111502Y44085893D01*
X17127000Y45070395D01*
X16142498Y44085893D01*
X13217766Y44085893D01*
X13445834Y44313563D01*
X13697713Y44920155D01*
X13698234Y45518358D01*
X15465184Y45518358D01*
X15488986Y44861981D01*
X15694378Y44366120D01*
X15962893Y44265498D01*
X16947395Y45250000D01*
X17306605Y45250000D01*
X18291107Y44265498D01*
X18559622Y44366120D01*
X18788816Y44981642D01*
X18769354Y45518358D01*
X31975184Y45518358D01*
X31998986Y44861981D01*
X32204378Y44366120D01*
X32472893Y44265498D01*
X33457395Y45250000D01*
X33816605Y45250000D01*
X34801107Y44265498D01*
X35069622Y44366120D01*
X35276994Y44923037D01*
X37065714Y44923037D01*
X37316534Y44316005D01*
X37780563Y43851166D01*
X38387155Y43599287D01*
X39043963Y43598714D01*
X39650995Y43849534D01*
X40115834Y44313563D01*
X40170463Y44445126D01*
X41346370Y44445126D01*
X41898600Y43108628D01*
X42920249Y42085194D01*
X44255782Y41530632D01*
X45701874Y41529370D01*
X47038372Y42081600D01*
X48061806Y43103249D01*
X48616368Y44438782D01*
X48617630Y45884874D01*
X48065400Y47221372D01*
X47043751Y48244806D01*
X45708218Y48799368D01*
X44262126Y48800630D01*
X42925628Y48248400D01*
X41902194Y47226751D01*
X41347632Y45891218D01*
X41346370Y44445126D01*
X40170463Y44445126D01*
X40367713Y44920155D01*
X40368286Y45576963D01*
X40117466Y46183995D01*
X39653437Y46648834D01*
X39046845Y46900713D01*
X38390037Y46901286D01*
X37783005Y46650466D01*
X37318166Y46186437D01*
X37066287Y45579845D01*
X37065714Y44923037D01*
X35276994Y44923037D01*
X35298816Y44981642D01*
X35275014Y45638019D01*
X35069622Y46133880D01*
X34801107Y46234502D01*
X33816605Y45250000D01*
X33457395Y45250000D01*
X32472893Y46234502D01*
X32204378Y46133880D01*
X31975184Y45518358D01*
X18769354Y45518358D01*
X18765014Y45638019D01*
X18559622Y46133880D01*
X18291107Y46234502D01*
X17306605Y45250000D01*
X16947395Y45250000D01*
X15962893Y46234502D01*
X15694378Y46133880D01*
X15465184Y45518358D01*
X13698234Y45518358D01*
X13698286Y45576963D01*
X13447466Y46183995D01*
X13217755Y46414107D01*
X16142498Y46414107D01*
X17127000Y45429605D01*
X18111502Y46414107D01*
X18010880Y46682622D01*
X17586584Y46840612D01*
X21889225Y46840612D01*
X22130398Y46256928D01*
X22576579Y45809968D01*
X23159841Y45567776D01*
X23791388Y45567225D01*
X24375072Y45808398D01*
X24822032Y46254579D01*
X25064224Y46837841D01*
X25064226Y46840612D01*
X26334225Y46840612D01*
X26575398Y46256928D01*
X27021579Y45809968D01*
X27604841Y45567776D01*
X28236388Y45567225D01*
X28820072Y45808398D01*
X29267032Y46254579D01*
X29333273Y46414107D01*
X32652498Y46414107D01*
X33637000Y45429605D01*
X34621502Y46414107D01*
X34520880Y46682622D01*
X33905358Y46911816D01*
X33248981Y46888014D01*
X32753120Y46682622D01*
X32652498Y46414107D01*
X29333273Y46414107D01*
X29509224Y46837841D01*
X29509775Y47469388D01*
X29268602Y48053072D01*
X28822421Y48500032D01*
X28239159Y48742224D01*
X27607612Y48742775D01*
X27023928Y48501602D01*
X26576968Y48055421D01*
X26334776Y47472159D01*
X26334225Y46840612D01*
X25064226Y46840612D01*
X25064775Y47469388D01*
X24823602Y48053072D01*
X24377421Y48500032D01*
X23794159Y48742224D01*
X23162612Y48742775D01*
X22578928Y48501602D01*
X22131968Y48055421D01*
X21889776Y47472159D01*
X21889225Y46840612D01*
X17586584Y46840612D01*
X17395358Y46911816D01*
X16738981Y46888014D01*
X16243120Y46682622D01*
X16142498Y46414107D01*
X13217755Y46414107D01*
X12983437Y46648834D01*
X12376845Y46900713D01*
X11720037Y46901286D01*
X11113005Y46650466D01*
X10648166Y46186437D01*
X10396287Y45579845D01*
X10395714Y44923037D01*
X8616790Y44923037D01*
X8617630Y45884874D01*
X8065400Y47221372D01*
X7043751Y48244806D01*
X5708218Y48799368D01*
X4262126Y48800630D01*
X2925628Y48248400D01*
X1902194Y47226751D01*
X1347632Y45891218D01*
X1346370Y44445126D01*
X710000Y44445126D01*
X710000Y44930069D01*
X1049408Y46636390D01*
X1976349Y48023654D01*
X3363610Y48950592D01*
X5069931Y49290000D01*
X44930069Y49290000D01*
X46636390Y48950592D01*
X46636390Y48950592D01*
G37*
X46636390Y48950592D02*
X48023654Y48023651D01*
X48950592Y46636390D01*
X49290000Y44930069D01*
X49290000Y5069931D01*
X48950592Y3363610D01*
X48023654Y1976349D01*
X46636390Y1049408D01*
X44930069Y710000D01*
X39460000Y710000D01*
X39460000Y4445126D01*
X41346370Y4445126D01*
X41898600Y3108628D01*
X42920249Y2085194D01*
X44255782Y1530632D01*
X45701874Y1529370D01*
X47038372Y2081600D01*
X48061806Y3103249D01*
X48616368Y4438782D01*
X48617630Y5884874D01*
X48065400Y7221372D01*
X47043751Y8244806D01*
X45708218Y8799368D01*
X44262126Y8800630D01*
X42925628Y8248400D01*
X41902194Y7226751D01*
X41347632Y5891218D01*
X41346370Y4445126D01*
X39460000Y4445126D01*
X39460000Y10500000D01*
X39405954Y10771705D01*
X39252046Y11002046D01*
X39240142Y11010000D01*
X44160173Y11010000D01*
X44254182Y10537386D01*
X44521896Y10136723D01*
X44922559Y9869009D01*
X45395173Y9775000D01*
X47278827Y9775000D01*
X47751441Y9869009D01*
X48152104Y10136723D01*
X48419818Y10537386D01*
X48513827Y11010000D01*
X48419818Y11482614D01*
X48152104Y11883277D01*
X47751441Y12150991D01*
X47278827Y12245000D01*
X45395173Y12245000D01*
X44922559Y12150991D01*
X44521896Y11883277D01*
X44254182Y11482614D01*
X44160173Y11010000D01*
X39240142Y11010000D01*
X39021705Y11155954D01*
X38750000Y11210000D01*
X38619468Y11210000D01*
X39063413Y11393434D01*
X39551851Y11881020D01*
X39816518Y12518409D01*
X39817120Y13208563D01*
X39553566Y13846413D01*
X39206189Y14194397D01*
X39480834Y14468563D01*
X39732713Y15075155D01*
X39733286Y15731963D01*
X39482466Y16338995D01*
X39018437Y16803834D01*
X38411845Y17055713D01*
X37755037Y17056286D01*
X37148005Y16805466D01*
X36683166Y16341437D01*
X36431287Y15734845D01*
X36430714Y15078037D01*
X36681534Y14471005D01*
X36957914Y14194142D01*
X36612149Y13848980D01*
X36347482Y13211591D01*
X36346880Y12521437D01*
X36610434Y11883587D01*
X37098020Y11395149D01*
X37543908Y11210000D01*
X33539468Y11210000D01*
X33983413Y11393434D01*
X34471851Y11881020D01*
X34736518Y12518409D01*
X34737120Y13208563D01*
X34473566Y13846413D01*
X34424241Y13895824D01*
X34469441Y13924910D01*
X34614431Y14137110D01*
X34665440Y14389000D01*
X34665440Y16421000D01*
X34621162Y16656317D01*
X34482090Y16872441D01*
X34269890Y17017431D01*
X34018000Y17068440D01*
X31986000Y17068440D01*
X31750683Y17024162D01*
X31534559Y16885090D01*
X31389569Y16672890D01*
X31338560Y16421000D01*
X31338560Y14389000D01*
X31382838Y14153683D01*
X31521910Y13937559D01*
X31580666Y13897413D01*
X31532149Y13848980D01*
X31267482Y13211591D01*
X31266880Y12521437D01*
X31530434Y11883587D01*
X32018020Y11395149D01*
X32463908Y11210000D01*
X11500000Y11210000D01*
X11228295Y11155954D01*
X10997954Y11002046D01*
X10844046Y10771705D01*
X10790000Y10500000D01*
X10790000Y710000D01*
X5069931Y710000D01*
X3363610Y1049408D01*
X1976349Y1976346D01*
X1049408Y3363610D01*
X834282Y4445126D01*
X1346370Y4445126D01*
X1898600Y3108628D01*
X2920249Y2085194D01*
X4255782Y1530632D01*
X5701874Y1529370D01*
X7038372Y2081600D01*
X8061806Y3103249D01*
X8616368Y4438782D01*
X8617630Y5884874D01*
X8065400Y7221372D01*
X7043751Y8244806D01*
X5708218Y8799368D01*
X4262126Y8800630D01*
X2925628Y8248400D01*
X1902194Y7226751D01*
X1347632Y5891218D01*
X1346370Y4445126D01*
X834282Y4445126D01*
X710000Y5069931D01*
X710000Y11944250D01*
X2141000Y11944250D01*
X2141000Y11087690D01*
X2237673Y10854301D01*
X2416302Y10675673D01*
X2649691Y10579000D01*
X3506250Y10579000D01*
X3665000Y10737750D01*
X3665000Y12103000D01*
X2299750Y12103000D01*
X2141000Y11944250D01*
X710000Y11944250D01*
X710000Y13372310D01*
X2141000Y13372310D01*
X2141000Y12515750D01*
X2299750Y12357000D01*
X3665000Y12357000D01*
X3665000Y13722250D01*
X3506250Y13881000D01*
X2649691Y13881000D01*
X2416302Y13784327D01*
X2237673Y13605699D01*
X2141000Y13372310D01*
X710000Y13372310D01*
X710000Y21501000D01*
X2128560Y21501000D01*
X2128560Y19469000D01*
X2172838Y19233683D01*
X2311910Y19017559D01*
X2524110Y18872569D01*
X2776000Y18821560D01*
X4808000Y18821560D01*
X5043317Y18865838D01*
X5259441Y19004910D01*
X5392779Y19200057D01*
X5448120Y19052378D01*
X6063642Y18823184D01*
X6720019Y18846986D01*
X7215880Y19052378D01*
X7221000Y19066041D01*
X7221000Y15571841D01*
X5613580Y13964420D01*
X5393338Y13634807D01*
X5393338Y13634806D01*
X5391105Y13623578D01*
X5354187Y13586724D01*
X5346327Y13605699D01*
X5167698Y13784327D01*
X4934309Y13881000D01*
X4077750Y13881000D01*
X3919000Y13722250D01*
X3919000Y12357000D01*
X3939000Y12357000D01*
X3939000Y12103000D01*
X3919000Y12103000D01*
X3919000Y10737750D01*
X4077750Y10579000D01*
X4934309Y10579000D01*
X5167698Y10675673D01*
X5346327Y10854301D01*
X5353993Y10872808D01*
X5395563Y10831166D01*
X6002155Y10579287D01*
X6658963Y10578714D01*
X7265995Y10829534D01*
X7730834Y11293563D01*
X7982713Y11900155D01*
X7983286Y12556963D01*
X7732466Y13163995D01*
X7709671Y13186830D01*
X8955421Y14432580D01*
X9175662Y14762193D01*
X9184138Y14804804D01*
X9258120Y14607378D01*
X9873642Y14378184D01*
X10530019Y14401986D01*
X11025880Y14607378D01*
X11126502Y14875893D01*
X11071502Y14930893D01*
X12365498Y14930893D01*
X12466120Y14662378D01*
X13081642Y14433184D01*
X13738019Y14456986D01*
X14233880Y14662378D01*
X14334502Y14930893D01*
X13350000Y15915395D01*
X12365498Y14930893D01*
X11071502Y14930893D01*
X10142000Y15860395D01*
X10127858Y15846252D01*
X9948253Y16025857D01*
X9962395Y16040000D01*
X10321605Y16040000D01*
X11306107Y15055498D01*
X11574622Y15156120D01*
X11747665Y15620844D01*
X11917378Y15211120D01*
X12185893Y15110498D01*
X13170395Y16095000D01*
X13529605Y16095000D01*
X14514107Y15110498D01*
X14782622Y15211120D01*
X15011816Y15826642D01*
X14988014Y16483019D01*
X14782622Y16978880D01*
X14514107Y17079502D01*
X13529605Y16095000D01*
X13170395Y16095000D01*
X12185893Y17079502D01*
X11917378Y16978880D01*
X11744335Y16514156D01*
X11574622Y16923880D01*
X11306107Y17024502D01*
X10321605Y16040000D01*
X9962395Y16040000D01*
X9948253Y16054142D01*
X10127858Y16233747D01*
X10142000Y16219605D01*
X11126502Y17204107D01*
X11105892Y17259107D01*
X12365498Y17259107D01*
X13350000Y16274605D01*
X14334502Y17259107D01*
X14233880Y17527622D01*
X13618358Y17756816D01*
X12961981Y17733014D01*
X12466120Y17527622D01*
X12365498Y17259107D01*
X11105892Y17259107D01*
X11025880Y17472622D01*
X10410358Y17701816D01*
X9753981Y17678014D01*
X9258120Y17472622D01*
X9253000Y17458959D01*
X9253000Y18943037D01*
X30113714Y18943037D01*
X30364534Y18336005D01*
X30828563Y17871166D01*
X31435155Y17619287D01*
X32091963Y17618714D01*
X32698995Y17869534D01*
X33163834Y18333563D01*
X33415713Y18940155D01*
X33416286Y19596963D01*
X33255455Y19986205D01*
X44701716Y19986205D01*
X44950106Y19385057D01*
X45409637Y18924722D01*
X45707723Y18800946D01*
X45437457Y18689274D01*
X44977122Y18229743D01*
X44727684Y17629028D01*
X44727116Y16978585D01*
X44975506Y16377437D01*
X45435037Y15917102D01*
X45689390Y15811486D01*
X45412057Y15696894D01*
X44951722Y15237363D01*
X44702284Y14636648D01*
X44701716Y13986205D01*
X44950106Y13385057D01*
X45409637Y12924722D01*
X46010352Y12675284D01*
X46660795Y12674716D01*
X47261943Y12923106D01*
X47722278Y13382637D01*
X47971716Y13983352D01*
X47972284Y14633795D01*
X47723894Y15234943D01*
X47264363Y15695278D01*
X47010010Y15800894D01*
X47287343Y15915486D01*
X47747678Y16375017D01*
X47997116Y16975732D01*
X47997684Y17626175D01*
X47749294Y18227323D01*
X47289763Y18687658D01*
X46991677Y18811434D01*
X47261943Y18923106D01*
X47722278Y19382637D01*
X47971716Y19983352D01*
X47972284Y20633795D01*
X47723894Y21234943D01*
X47264363Y21695278D01*
X46663648Y21944716D01*
X46013205Y21945284D01*
X45412057Y21696894D01*
X44951722Y21237363D01*
X44702284Y20636648D01*
X44701716Y19986205D01*
X33255455Y19986205D01*
X33165466Y20203995D01*
X32701437Y20668834D01*
X32094845Y20920713D01*
X31438037Y20921286D01*
X30831005Y20670466D01*
X30366166Y20206437D01*
X30114287Y19599845D01*
X30113714Y18943037D01*
X9253000Y18943037D01*
X9253000Y22241468D01*
X9812155Y22009287D01*
X10468963Y22008714D01*
X11075995Y22259534D01*
X11540834Y22723563D01*
X11757585Y23245558D01*
X11949534Y22781005D01*
X12413563Y22316166D01*
X13020155Y22064287D01*
X13676963Y22063714D01*
X14283995Y22314534D01*
X14748834Y22778563D01*
X15000713Y23385155D01*
X15001286Y24041963D01*
X14750466Y24648995D01*
X14286437Y25113834D01*
X13679845Y25365713D01*
X13023037Y25366286D01*
X12416005Y25115466D01*
X11951166Y24651437D01*
X11734415Y24129442D01*
X11542466Y24593995D01*
X11078437Y25058834D01*
X10471845Y25310713D01*
X9815037Y25311286D01*
X9253000Y25079058D01*
X9253000Y25398160D01*
X10375447Y26520606D01*
X10731238Y26282874D01*
X11275567Y26174600D01*
X12056433Y26174600D01*
X12600762Y26282874D01*
X13062222Y26591211D01*
X13370559Y27052671D01*
X13409798Y27249940D01*
X17550990Y27249940D01*
X17567673Y27170004D01*
X17834809Y26681014D01*
X18268738Y26331475D01*
X18803400Y26174600D01*
X19159000Y26174600D01*
X19159000Y27470000D01*
X19413000Y27470000D01*
X19413000Y26174600D01*
X19768600Y26174600D01*
X20303262Y26331475D01*
X20590730Y26563037D01*
X30113714Y26563037D01*
X30364534Y25956005D01*
X30828563Y25491166D01*
X31435155Y25239287D01*
X32091963Y25238714D01*
X32400019Y25366000D01*
X35181560Y25366000D01*
X35181560Y23334000D01*
X35225838Y23098683D01*
X35364910Y22882559D01*
X35494100Y22794287D01*
X35446166Y22746437D01*
X35194287Y22139845D01*
X35193714Y21483037D01*
X35444534Y20876005D01*
X35908563Y20411166D01*
X36515155Y20159287D01*
X37171963Y20158714D01*
X37778995Y20409534D01*
X38243834Y20873563D01*
X38495713Y21480155D01*
X38496286Y22136963D01*
X38245466Y22743995D01*
X38195128Y22794421D01*
X38312441Y22869910D01*
X38457431Y23082110D01*
X38508440Y23334000D01*
X38508440Y23610000D01*
X44160173Y23610000D01*
X44254182Y23137386D01*
X44521896Y22736723D01*
X44922559Y22469009D01*
X45395173Y22375000D01*
X47278827Y22375000D01*
X47751441Y22469009D01*
X48152104Y22736723D01*
X48419818Y23137386D01*
X48513827Y23610000D01*
X48419818Y24082614D01*
X48152104Y24483277D01*
X47751441Y24750991D01*
X47278827Y24845000D01*
X45395173Y24845000D01*
X44922559Y24750991D01*
X44521896Y24483277D01*
X44254182Y24082614D01*
X44160173Y23610000D01*
X38508440Y23610000D01*
X38508440Y25366000D01*
X38464162Y25601317D01*
X38325090Y25817441D01*
X38112890Y25962431D01*
X37861000Y26013440D01*
X35829000Y26013440D01*
X35593683Y25969162D01*
X35377559Y25830090D01*
X35232569Y25617890D01*
X35181560Y25366000D01*
X32400019Y25366000D01*
X32698995Y25489534D01*
X33163834Y25953563D01*
X33415713Y26560155D01*
X33416286Y27216963D01*
X33165466Y27823995D01*
X32701437Y28288834D01*
X32094845Y28540713D01*
X31438037Y28541286D01*
X30831005Y28290466D01*
X30366166Y27826437D01*
X30114287Y27219845D01*
X30113714Y26563037D01*
X20590730Y26563037D01*
X20737191Y26681014D01*
X21004327Y27170004D01*
X21021010Y27249940D01*
X20898852Y27470000D01*
X19413000Y27470000D01*
X19159000Y27470000D01*
X17673148Y27470000D01*
X17550990Y27249940D01*
X13409798Y27249940D01*
X13478833Y27597000D01*
X13370559Y28141329D01*
X13062222Y28602789D01*
X12667170Y28866754D01*
X12683262Y28871475D01*
X13117191Y29221014D01*
X13384327Y29710004D01*
X13401010Y29789940D01*
X13278852Y30010000D01*
X11793000Y30010000D01*
X11793000Y29990000D01*
X11539000Y29990000D01*
X11539000Y30010000D01*
X10053148Y30010000D01*
X9930990Y29789940D01*
X9947673Y29710004D01*
X10214809Y29221014D01*
X10648738Y28871475D01*
X10664830Y28866754D01*
X10285060Y28613000D01*
X10015000Y28613000D01*
X9626193Y28535662D01*
X9296580Y28315421D01*
X7518580Y26537420D01*
X7298338Y26207807D01*
X7298338Y26207806D01*
X7221000Y25819000D01*
X7221000Y21903959D01*
X7215880Y21917622D01*
X6600358Y22146816D01*
X5943981Y22123014D01*
X5448120Y21917622D01*
X5391581Y21766746D01*
X5272090Y21952441D01*
X5059890Y22097431D01*
X4808000Y22148440D01*
X2776000Y22148440D01*
X2540683Y22104162D01*
X2324559Y21965090D01*
X2179569Y21752890D01*
X2128560Y21501000D01*
X710000Y21501000D01*
X710000Y31080037D01*
X3664714Y31080037D01*
X3915534Y30473005D01*
X4379563Y30008166D01*
X4986155Y29756287D01*
X5642963Y29755714D01*
X6249995Y30006534D01*
X6714834Y30470563D01*
X6903654Y30925291D01*
X7090534Y30473005D01*
X7554563Y30008166D01*
X8161155Y29756287D01*
X8817963Y29755714D01*
X9424995Y30006534D01*
X9889834Y30470563D01*
X10141713Y31077155D01*
X10142286Y31733963D01*
X10003637Y32069520D01*
X10269778Y31671211D01*
X10664830Y31407246D01*
X10648738Y31402525D01*
X10214809Y31052986D01*
X9947673Y30563996D01*
X9930990Y30484060D01*
X10053148Y30264000D01*
X11539000Y30264000D01*
X11539000Y30284000D01*
X11793000Y30284000D01*
X11793000Y30264000D01*
X13278852Y30264000D01*
X13401010Y30484060D01*
X13384327Y30563996D01*
X13117191Y31052986D01*
X12683262Y31402525D01*
X12667170Y31407246D01*
X13062222Y31671211D01*
X13370559Y32132671D01*
X13478833Y32677000D01*
X13370559Y33221329D01*
X13062222Y33682789D01*
X12890540Y33797503D01*
X13044317Y33826438D01*
X13260441Y33965510D01*
X13405431Y34177710D01*
X13456440Y34429600D01*
X13456440Y35217000D01*
X17473167Y35217000D01*
X17581441Y34672671D01*
X17889778Y34211211D01*
X18285199Y33947000D01*
X17889778Y33682789D01*
X17581441Y33221329D01*
X17473167Y32677000D01*
X17581441Y32132671D01*
X17889778Y31671211D01*
X18285199Y31407000D01*
X17889778Y31142789D01*
X17581441Y30681329D01*
X17473167Y30137000D01*
X17581441Y29592671D01*
X17889778Y29131211D01*
X18284830Y28867246D01*
X18268738Y28862525D01*
X17834809Y28512986D01*
X17567673Y28023996D01*
X17550990Y27944060D01*
X17673148Y27724000D01*
X19159000Y27724000D01*
X19159000Y27744000D01*
X19413000Y27744000D01*
X19413000Y27724000D01*
X20898852Y27724000D01*
X21021010Y27944060D01*
X21004327Y28023996D01*
X20737191Y28512986D01*
X20303262Y28862525D01*
X20287170Y28867246D01*
X20538231Y29035000D01*
X37536050Y29035000D01*
X37630059Y28562386D01*
X37897773Y28161723D01*
X38298436Y27894009D01*
X38771050Y27800000D01*
X40042950Y27800000D01*
X40515564Y27894009D01*
X40916227Y28161723D01*
X41183941Y28562386D01*
X41277950Y29035000D01*
X41183941Y29507614D01*
X40916227Y29908277D01*
X40704123Y30050000D01*
X41292950Y30050000D01*
X41765564Y30144009D01*
X42166227Y30411723D01*
X42433941Y30812386D01*
X42527950Y31285000D01*
X42433941Y31757614D01*
X42166227Y32158277D01*
X41765564Y32425991D01*
X41292950Y32520000D01*
X40021050Y32520000D01*
X39548436Y32425991D01*
X39147773Y32158277D01*
X38880059Y31757614D01*
X38786050Y31285000D01*
X38880059Y30812386D01*
X39147773Y30411723D01*
X39359877Y30270000D01*
X38771050Y30270000D01*
X38298436Y30175991D01*
X37897773Y29908277D01*
X37630059Y29507614D01*
X37536050Y29035000D01*
X20538231Y29035000D01*
X20682222Y29131211D01*
X20990559Y29592671D01*
X21098833Y30137000D01*
X21005507Y30606181D01*
X21060534Y30473005D01*
X21524563Y30008166D01*
X22131155Y29756287D01*
X22787963Y29755714D01*
X23394995Y30006534D01*
X23859834Y30470563D01*
X24048654Y30925291D01*
X24235534Y30473005D01*
X24699563Y30008166D01*
X25306155Y29756287D01*
X25962963Y29755714D01*
X26569995Y30006534D01*
X27034834Y30470563D01*
X27286713Y31077155D01*
X27287286Y31733963D01*
X27080010Y32235612D01*
X27604225Y32235612D01*
X27845398Y31651928D01*
X28291579Y31204968D01*
X28874841Y30962776D01*
X29506388Y30962225D01*
X30090072Y31203398D01*
X30537032Y31649579D01*
X30779224Y32232841D01*
X30779226Y32235612D01*
X31414225Y32235612D01*
X31655398Y31651928D01*
X32101579Y31204968D01*
X32684841Y30962776D01*
X33316388Y30962225D01*
X33900072Y31203398D01*
X34347032Y31649579D01*
X34589224Y32232841D01*
X34589775Y32864388D01*
X34348602Y33448072D01*
X34139040Y33658000D01*
X46272000Y33658000D01*
X46272000Y33058000D01*
X46414610Y32595053D01*
X46723526Y32221920D01*
X47151719Y31995408D01*
X47189391Y31991538D01*
X47380000Y32116269D01*
X47380000Y33658000D01*
X47634000Y33658000D01*
X47634000Y32116269D01*
X47824609Y31991538D01*
X47862281Y31995408D01*
X48290474Y32221920D01*
X48599390Y32595053D01*
X48742000Y33058000D01*
X48742000Y33658000D01*
X47634000Y33658000D01*
X47380000Y33658000D01*
X46272000Y33658000D01*
X34139040Y33658000D01*
X33902421Y33895032D01*
X33319159Y34137224D01*
X32687612Y34137775D01*
X32103928Y33896602D01*
X31656968Y33450421D01*
X31414776Y32867159D01*
X31414225Y32235612D01*
X30779226Y32235612D01*
X30779775Y32864388D01*
X30538602Y33448072D01*
X30092421Y33895032D01*
X29509159Y34137224D01*
X28877612Y34137775D01*
X28293928Y33896602D01*
X27846968Y33450421D01*
X27604776Y32867159D01*
X27604225Y32235612D01*
X27080010Y32235612D01*
X27036466Y32340995D01*
X26572437Y32805834D01*
X25965845Y33057713D01*
X25309037Y33058286D01*
X24702005Y32807466D01*
X24237166Y32343437D01*
X24048346Y31888709D01*
X23861466Y32340995D01*
X23397437Y32805834D01*
X22790845Y33057713D01*
X22134037Y33058286D01*
X22110331Y33048491D01*
X23573840Y34512000D01*
X46272000Y34512000D01*
X46272000Y33912000D01*
X47380000Y33912000D01*
X47380000Y35453731D01*
X47634000Y35453731D01*
X47634000Y33912000D01*
X48742000Y33912000D01*
X48742000Y34512000D01*
X48599390Y34974947D01*
X48290474Y35348080D01*
X47862281Y35574592D01*
X47824609Y35578462D01*
X47634000Y35453731D01*
X47380000Y35453731D01*
X47189391Y35578462D01*
X47151719Y35574592D01*
X46723526Y35348080D01*
X46414610Y34974947D01*
X46272000Y34512000D01*
X23573840Y34512000D01*
X26354420Y37292579D01*
X26369810Y37315612D01*
X27604225Y37315612D01*
X27845398Y36731928D01*
X28291579Y36284968D01*
X28874841Y36042776D01*
X29506388Y36042225D01*
X30090072Y36283398D01*
X30537032Y36729579D01*
X30779224Y37312841D01*
X30779226Y37315612D01*
X31414225Y37315612D01*
X31655398Y36731928D01*
X32101579Y36284968D01*
X32684841Y36042776D01*
X33316388Y36042225D01*
X33900072Y36283398D01*
X34347032Y36729579D01*
X34589224Y37312841D01*
X34589775Y37944388D01*
X34348602Y38528072D01*
X33956409Y38920950D01*
X34672000Y38920950D01*
X34672000Y37649050D01*
X34766009Y37176436D01*
X35033723Y36775773D01*
X35434386Y36508059D01*
X35907000Y36414050D01*
X36379614Y36508059D01*
X36780277Y36775773D01*
X37047991Y37176436D01*
X37142000Y37649050D01*
X37142000Y38785000D01*
X41036050Y38785000D01*
X41130059Y38312386D01*
X41397773Y37911723D01*
X41798436Y37644009D01*
X42271050Y37550000D01*
X43542950Y37550000D01*
X44015564Y37644009D01*
X44416227Y37911723D01*
X44683941Y38312386D01*
X44777950Y38785000D01*
X44683941Y39257614D01*
X44416227Y39658277D01*
X44015564Y39925991D01*
X43542950Y40020000D01*
X42271050Y40020000D01*
X41798436Y39925991D01*
X41397773Y39658277D01*
X41130059Y39257614D01*
X41036050Y38785000D01*
X37142000Y38785000D01*
X37142000Y38920950D01*
X37047991Y39393564D01*
X36780277Y39794227D01*
X36379614Y40061941D01*
X35907000Y40155950D01*
X35434386Y40061941D01*
X35033723Y39794227D01*
X34766009Y39393564D01*
X34672000Y38920950D01*
X33956409Y38920950D01*
X33902421Y38975032D01*
X33319159Y39217224D01*
X32687612Y39217775D01*
X32103928Y38976602D01*
X31656968Y38530421D01*
X31414776Y37947159D01*
X31414225Y37315612D01*
X30779226Y37315612D01*
X30779775Y37944388D01*
X30538602Y38528072D01*
X30092421Y38975032D01*
X29509159Y39217224D01*
X28877612Y39217775D01*
X28293928Y38976602D01*
X27846968Y38530421D01*
X27604776Y37947159D01*
X27604225Y37315612D01*
X26369810Y37315612D01*
X26574662Y37622193D01*
X26576896Y37633423D01*
X27034834Y38090563D01*
X27286713Y38697155D01*
X27287286Y39353963D01*
X27036466Y39960995D01*
X26572437Y40425834D01*
X25965845Y40677713D01*
X25309037Y40678286D01*
X24702005Y40427466D01*
X24237166Y39963437D01*
X24048346Y39508709D01*
X23861466Y39960995D01*
X23397437Y40425834D01*
X23248450Y40487699D01*
X23791388Y40487225D01*
X24375072Y40728398D01*
X24822032Y41174579D01*
X25064224Y41757841D01*
X25064226Y41760612D01*
X26334225Y41760612D01*
X26575398Y41176928D01*
X27021579Y40729968D01*
X27604841Y40487776D01*
X28236388Y40487225D01*
X28820072Y40728398D01*
X29267032Y41174579D01*
X29509224Y41757841D01*
X29509775Y42389388D01*
X29268602Y42973072D01*
X28822421Y43420032D01*
X28239159Y43662224D01*
X27607612Y43662775D01*
X27023928Y43421602D01*
X26576968Y42975421D01*
X26334776Y42392159D01*
X26334225Y41760612D01*
X25064226Y41760612D01*
X25064775Y42389388D01*
X24823602Y42973072D01*
X24377421Y43420032D01*
X23794159Y43662224D01*
X23162612Y43662775D01*
X22578928Y43421602D01*
X22131968Y42975421D01*
X21889776Y42392159D01*
X21889225Y41760612D01*
X22130398Y41176928D01*
X22576579Y40729968D01*
X22702237Y40677790D01*
X22134037Y40678286D01*
X21527005Y40427466D01*
X21062166Y39963437D01*
X20810287Y39356845D01*
X20809714Y38700037D01*
X21060534Y38093005D01*
X21524563Y37628166D01*
X22131155Y37376287D01*
X22787963Y37375714D01*
X23394995Y37626534D01*
X23859834Y38090563D01*
X24048654Y38545291D01*
X24235534Y38093005D01*
X24258329Y38070170D01*
X21022771Y34834611D01*
X21098833Y35217000D01*
X20990559Y35761329D01*
X20682222Y36222789D01*
X20220762Y36531126D01*
X19676433Y36639400D01*
X18895567Y36639400D01*
X18351238Y36531126D01*
X17889778Y36222789D01*
X17581441Y35761329D01*
X17473167Y35217000D01*
X13456440Y35217000D01*
X13456440Y36004400D01*
X13412162Y36239717D01*
X13273090Y36455841D01*
X13060890Y36600831D01*
X12809000Y36651840D01*
X10523000Y36651840D01*
X10287683Y36607562D01*
X10071559Y36468490D01*
X9926569Y36256290D01*
X9875560Y36004400D01*
X9875560Y34429600D01*
X9919838Y34194283D01*
X10058910Y33978159D01*
X10271110Y33833169D01*
X10442803Y33798400D01*
X10269778Y33682789D01*
X9961441Y33221329D01*
X9853167Y32677000D01*
X9946493Y32207819D01*
X9891466Y32340995D01*
X9427437Y32805834D01*
X8820845Y33057713D01*
X8164037Y33058286D01*
X7557005Y32807466D01*
X7092166Y32343437D01*
X6903346Y31888709D01*
X6716466Y32340995D01*
X6252437Y32805834D01*
X5645845Y33057713D01*
X4989037Y33058286D01*
X4382005Y32807466D01*
X3917166Y32343437D01*
X3665287Y31736845D01*
X3664714Y31080037D01*
X710000Y31080037D01*
X710000Y38700037D01*
X3664714Y38700037D01*
X3915534Y38093005D01*
X4379563Y37628166D01*
X4986155Y37376287D01*
X5642963Y37375714D01*
X6249995Y37626534D01*
X6714834Y38090563D01*
X6903654Y38545291D01*
X7090534Y38093005D01*
X7554563Y37628166D01*
X8161155Y37376287D01*
X8817963Y37375714D01*
X9424995Y37626534D01*
X9889834Y38090563D01*
X10141713Y38697155D01*
X10142286Y39353963D01*
X9891466Y39960995D01*
X9427437Y40425834D01*
X8820845Y40677713D01*
X8164037Y40678286D01*
X7557005Y40427466D01*
X7092166Y39963437D01*
X6903346Y39508709D01*
X6716466Y39960995D01*
X6252437Y40425834D01*
X5645845Y40677713D01*
X4989037Y40678286D01*
X4382005Y40427466D01*
X3917166Y39963437D01*
X3665287Y39356845D01*
X3664714Y38700037D01*
X710000Y38700037D01*
X710000Y44445126D01*
X1346370Y44445126D01*
X1898600Y43108628D01*
X2920249Y42085194D01*
X4255782Y41530632D01*
X5701874Y41529370D01*
X7038372Y42081600D01*
X8061806Y43103249D01*
X8616368Y44438782D01*
X8616790Y44923037D01*
X10395714Y44923037D01*
X10646534Y44316005D01*
X11110563Y43851166D01*
X11717155Y43599287D01*
X12373963Y43598714D01*
X12980995Y43849534D01*
X13217766Y44085893D01*
X16142498Y44085893D01*
X16243120Y43817378D01*
X16858642Y43588184D01*
X17515019Y43611986D01*
X18010880Y43817378D01*
X18111502Y44085893D01*
X32652498Y44085893D01*
X32753120Y43817378D01*
X33368642Y43588184D01*
X34025019Y43611986D01*
X34520880Y43817378D01*
X34621502Y44085893D01*
X33637000Y45070395D01*
X32652498Y44085893D01*
X18111502Y44085893D01*
X17127000Y45070395D01*
X16142498Y44085893D01*
X13217766Y44085893D01*
X13445834Y44313563D01*
X13697713Y44920155D01*
X13698234Y45518358D01*
X15465184Y45518358D01*
X15488986Y44861981D01*
X15694378Y44366120D01*
X15962893Y44265498D01*
X16947395Y45250000D01*
X17306605Y45250000D01*
X18291107Y44265498D01*
X18559622Y44366120D01*
X18788816Y44981642D01*
X18769354Y45518358D01*
X31975184Y45518358D01*
X31998986Y44861981D01*
X32204378Y44366120D01*
X32472893Y44265498D01*
X33457395Y45250000D01*
X33816605Y45250000D01*
X34801107Y44265498D01*
X35069622Y44366120D01*
X35276994Y44923037D01*
X37065714Y44923037D01*
X37316534Y44316005D01*
X37780563Y43851166D01*
X38387155Y43599287D01*
X39043963Y43598714D01*
X39650995Y43849534D01*
X40115834Y44313563D01*
X40170463Y44445126D01*
X41346370Y44445126D01*
X41898600Y43108628D01*
X42920249Y42085194D01*
X44255782Y41530632D01*
X45701874Y41529370D01*
X47038372Y42081600D01*
X48061806Y43103249D01*
X48616368Y44438782D01*
X48617630Y45884874D01*
X48065400Y47221372D01*
X47043751Y48244806D01*
X45708218Y48799368D01*
X44262126Y48800630D01*
X42925628Y48248400D01*
X41902194Y47226751D01*
X41347632Y45891218D01*
X41346370Y44445126D01*
X40170463Y44445126D01*
X40367713Y44920155D01*
X40368286Y45576963D01*
X40117466Y46183995D01*
X39653437Y46648834D01*
X39046845Y46900713D01*
X38390037Y46901286D01*
X37783005Y46650466D01*
X37318166Y46186437D01*
X37066287Y45579845D01*
X37065714Y44923037D01*
X35276994Y44923037D01*
X35298816Y44981642D01*
X35275014Y45638019D01*
X35069622Y46133880D01*
X34801107Y46234502D01*
X33816605Y45250000D01*
X33457395Y45250000D01*
X32472893Y46234502D01*
X32204378Y46133880D01*
X31975184Y45518358D01*
X18769354Y45518358D01*
X18765014Y45638019D01*
X18559622Y46133880D01*
X18291107Y46234502D01*
X17306605Y45250000D01*
X16947395Y45250000D01*
X15962893Y46234502D01*
X15694378Y46133880D01*
X15465184Y45518358D01*
X13698234Y45518358D01*
X13698286Y45576963D01*
X13447466Y46183995D01*
X13217755Y46414107D01*
X16142498Y46414107D01*
X17127000Y45429605D01*
X18111502Y46414107D01*
X18010880Y46682622D01*
X17586584Y46840612D01*
X21889225Y46840612D01*
X22130398Y46256928D01*
X22576579Y45809968D01*
X23159841Y45567776D01*
X23791388Y45567225D01*
X24375072Y45808398D01*
X24822032Y46254579D01*
X25064224Y46837841D01*
X25064226Y46840612D01*
X26334225Y46840612D01*
X26575398Y46256928D01*
X27021579Y45809968D01*
X27604841Y45567776D01*
X28236388Y45567225D01*
X28820072Y45808398D01*
X29267032Y46254579D01*
X29333273Y46414107D01*
X32652498Y46414107D01*
X33637000Y45429605D01*
X34621502Y46414107D01*
X34520880Y46682622D01*
X33905358Y46911816D01*
X33248981Y46888014D01*
X32753120Y46682622D01*
X32652498Y46414107D01*
X29333273Y46414107D01*
X29509224Y46837841D01*
X29509775Y47469388D01*
X29268602Y48053072D01*
X28822421Y48500032D01*
X28239159Y48742224D01*
X27607612Y48742775D01*
X27023928Y48501602D01*
X26576968Y48055421D01*
X26334776Y47472159D01*
X26334225Y46840612D01*
X25064226Y46840612D01*
X25064775Y47469388D01*
X24823602Y48053072D01*
X24377421Y48500032D01*
X23794159Y48742224D01*
X23162612Y48742775D01*
X22578928Y48501602D01*
X22131968Y48055421D01*
X21889776Y47472159D01*
X21889225Y46840612D01*
X17586584Y46840612D01*
X17395358Y46911816D01*
X16738981Y46888014D01*
X16243120Y46682622D01*
X16142498Y46414107D01*
X13217755Y46414107D01*
X12983437Y46648834D01*
X12376845Y46900713D01*
X11720037Y46901286D01*
X11113005Y46650466D01*
X10648166Y46186437D01*
X10396287Y45579845D01*
X10395714Y44923037D01*
X8616790Y44923037D01*
X8617630Y45884874D01*
X8065400Y47221372D01*
X7043751Y48244806D01*
X5708218Y48799368D01*
X4262126Y48800630D01*
X2925628Y48248400D01*
X1902194Y47226751D01*
X1347632Y45891218D01*
X1346370Y44445126D01*
X710000Y44445126D01*
X710000Y44930069D01*
X1049408Y46636390D01*
X1976349Y48023654D01*
X3363610Y48950592D01*
X5069931Y49290000D01*
X44930069Y49290000D01*
X46636390Y48950592D01*
G36*
X6525748Y20499142D02*
X6511605Y20485000D01*
X6525748Y20470857D01*
X6346143Y20291252D01*
X6332000Y20305395D01*
X6317858Y20291252D01*
X6138253Y20470857D01*
X6152395Y20485000D01*
X6138253Y20499142D01*
X6317858Y20678747D01*
X6332000Y20664605D01*
X6346143Y20678747D01*
X6525748Y20499142D01*
X6525748Y20499142D01*
G37*
X6525748Y20499142D02*
X6511605Y20485000D01*
X6525748Y20470857D01*
X6346143Y20291252D01*
X6332000Y20305395D01*
X6317858Y20291252D01*
X6138253Y20470857D01*
X6152395Y20485000D01*
X6138253Y20499142D01*
X6317858Y20678747D01*
X6332000Y20664605D01*
X6346143Y20678747D01*
X6525748Y20499142D01*
M02*
