M48
; DRILL file {KiCad (5.1.10)-1} date 07/25/21 15:26:44
; FORMAT={-:-/ absolute / inch / decimal}
; #@! TF.CreationDate,2021-07-25T15:26:44+01:00
; #@! TF.GenerationSoftware,Kicad,Pcbnew,(5.1.10)-1
FMAT,2
INCH
T1C0.0157
T2C0.0197
T3C0.0315
T4C0.0315
T5C0.0320
T6C0.0787
T7C0.1181
%
G90
G05
T3
X1.8243Y0.7996
X1.8243Y0.5634
X1.8253Y0.6812
T4
X0.1493Y0.8065
X0.1493Y0.4815
X0.2093Y1.5365
X0.2093Y1.2365
X0.2493Y0.8065
X0.2493Y0.4815
X0.3343Y1.5365
X0.3343Y1.2365
X0.3993Y0.9315
X0.3993Y0.6315
X0.4743Y1.7815
X0.5256Y0.9337
X0.5256Y0.6337
X0.6743Y1.7815
X0.8843Y1.5365
X0.8843Y1.2365
X0.9243Y1.8565
X0.9243Y1.6565
X1.0093Y1.5365
X1.0093Y1.2365
X1.0993Y1.8565
X1.0993Y1.6565
X1.1493Y1.4815
X1.1493Y1.2815
X1.2506Y1.0587
X1.2506Y0.7587
X1.2993Y1.4815
X1.2993Y1.2815
X1.2993Y0.6065
X1.3243Y1.7815
X1.4993Y0.6065
X1.5243Y1.7815
T5
X0.4593Y1.3865
X0.4593Y1.2865
X0.4593Y1.1865
X0.4593Y1.0865
X0.7593Y1.3865
X0.7593Y1.2865
X0.7593Y1.1865
X0.7593Y1.0865
X1.4506Y0.9587
X1.4506Y0.8587
T6
X1.2993Y0.5065
X1.4993Y0.5065
T7
X0.1961Y1.7781
X0.1961Y0.2033
X1.7709Y1.7781
X1.7709Y0.2033
T1
G00X1.7889Y0.9295
M15
G01X1.8597Y0.9295
M16
G05
G00X1.7889Y0.4335
M15
G01X1.8597Y0.4335
M16
G05
T2
G00X1.4137Y1.522
M15
G01X1.4137Y1.4925
M16
G05
G00X1.5662Y1.1431
M15
G01X1.5367Y1.1431
M16
G05
G00X1.6154Y1.2317
M15
G01X1.5859Y1.2317
M16
G05
G00X1.704Y1.527
M15
G01X1.6745Y1.527
M16
G05
G00X1.8704Y1.3449
M15
G01X1.8704Y1.3154
M16
G05
T0
M30
