G04 #@! TF.GenerationSoftware,KiCad,Pcbnew,(5.1.10)-1*
G04 #@! TF.CreationDate,2021-07-25T15:26:41+01:00*
G04 #@! TF.ProjectId,EMFDetector_v2,454d4644-6574-4656-9374-6f725f76322e,rev?*
G04 #@! TF.SameCoordinates,PX7270e00PY8a48640*
G04 #@! TF.FileFunction,Copper,L2,Bot*
G04 #@! TF.FilePolarity,Positive*
%FSLAX46Y46*%
G04 Gerber Fmt 4.6, Leading zero omitted, Abs format (unit mm)*
G04 Created by KiCad (PCBNEW (5.1.10)-1) date 2021-07-25 15:26:41*
%MOMM*%
%LPD*%
G01*
G04 APERTURE LIST*
G04 #@! TA.AperFunction,NonConductor*
%ADD10C,0.300000*%
G04 #@! TD*
G04 #@! TA.AperFunction,ComponentPad*
%ADD11C,2.032000*%
G04 #@! TD*
G04 #@! TA.AperFunction,ComponentPad*
%ADD12R,2.032000X2.032000*%
G04 #@! TD*
G04 #@! TA.AperFunction,ComponentPad*
%ADD13O,2.286000X1.574800*%
G04 #@! TD*
G04 #@! TA.AperFunction,ComponentPad*
%ADD14R,2.286000X1.574800*%
G04 #@! TD*
G04 #@! TA.AperFunction,ComponentPad*
%ADD15C,2.199640*%
G04 #@! TD*
G04 #@! TA.AperFunction,ComponentPad*
%ADD16O,3.000000X1.200000*%
G04 #@! TD*
G04 #@! TA.AperFunction,ComponentPad*
%ADD17C,2.000000*%
G04 #@! TD*
G04 #@! TA.AperFunction,ComponentPad*
%ADD18C,1.905000*%
G04 #@! TD*
G04 #@! TA.AperFunction,ComponentPad*
%ADD19O,2.400000X1.200000*%
G04 #@! TD*
G04 #@! TA.AperFunction,ComponentPad*
%ADD20O,1.200000X2.400000*%
G04 #@! TD*
G04 #@! TA.AperFunction,Conductor*
%ADD21C,0.762000*%
G04 #@! TD*
G04 #@! TA.AperFunction,Conductor*
%ADD22C,0.254000*%
G04 #@! TD*
G04 #@! TA.AperFunction,Conductor*
%ADD23C,0.300000*%
G04 #@! TD*
G04 APERTURE END LIST*
D10*
X27541571Y13892429D02*
X28398714Y13892429D01*
X27970142Y13892429D02*
X27970142Y15392429D01*
X28113000Y15178143D01*
X28255857Y15035286D01*
X28398714Y14963858D01*
X27041571Y15392429D02*
X26041571Y15392429D01*
X26684428Y13892429D01*
X24398714Y15463858D02*
X25684428Y13535286D01*
X23684428Y14749572D02*
X23827285Y14821000D01*
X23898714Y14892429D01*
X23970142Y15035286D01*
X23970142Y15106715D01*
X23898714Y15249572D01*
X23827285Y15321000D01*
X23684428Y15392429D01*
X23398714Y15392429D01*
X23255857Y15321000D01*
X23184428Y15249572D01*
X23113000Y15106715D01*
X23113000Y15035286D01*
X23184428Y14892429D01*
X23255857Y14821000D01*
X23398714Y14749572D01*
X23684428Y14749572D01*
X23827285Y14678143D01*
X23898714Y14606715D01*
X23970142Y14463858D01*
X23970142Y14178143D01*
X23898714Y14035286D01*
X23827285Y13963858D01*
X23684428Y13892429D01*
X23398714Y13892429D01*
X23255857Y13963858D01*
X23184428Y14035286D01*
X23113000Y14178143D01*
X23113000Y14463858D01*
X23184428Y14606715D01*
X23255857Y14678143D01*
X23398714Y14749572D01*
X21398714Y15463858D02*
X22684428Y13535286D01*
X20970142Y15249572D02*
X20898714Y15321000D01*
X20755857Y15392429D01*
X20398714Y15392429D01*
X20255857Y15321000D01*
X20184428Y15249572D01*
X20113000Y15106715D01*
X20113000Y14963858D01*
X20184428Y14749572D01*
X21041571Y13892429D01*
X20113000Y13892429D01*
X19184428Y15392429D02*
X19041571Y15392429D01*
X18898714Y15321000D01*
X18827285Y15249572D01*
X18755857Y15106715D01*
X18684428Y14821000D01*
X18684428Y14463858D01*
X18755857Y14178143D01*
X18827285Y14035286D01*
X18898714Y13963858D01*
X19041571Y13892429D01*
X19184428Y13892429D01*
X19327285Y13963858D01*
X19398714Y14035286D01*
X19470142Y14178143D01*
X19541571Y14463858D01*
X19541571Y14821000D01*
X19470142Y15106715D01*
X19398714Y15249572D01*
X19327285Y15321000D01*
X19184428Y15392429D01*
X17255857Y13892429D02*
X18113000Y13892429D01*
X17684428Y13892429D02*
X17684428Y15392429D01*
X17827285Y15178143D01*
X17970142Y15035286D01*
X18113000Y14963858D01*
X15970142Y15392429D02*
X16255857Y15392429D01*
X16398714Y15321000D01*
X16470142Y15249572D01*
X16613000Y15035286D01*
X16684428Y14749572D01*
X16684428Y14178143D01*
X16613000Y14035286D01*
X16541571Y13963858D01*
X16398714Y13892429D01*
X16113000Y13892429D01*
X15970142Y13963858D01*
X15898714Y14035286D01*
X15827285Y14178143D01*
X15827285Y14535286D01*
X15898714Y14678143D01*
X15970142Y14749572D01*
X16113000Y14821000D01*
X16398714Y14821000D01*
X16541571Y14749572D01*
X16613000Y14678143D01*
X16684428Y14535286D01*
X29565428Y16964143D02*
X29065428Y16964143D01*
X28851142Y16178429D02*
X29565428Y16178429D01*
X29565428Y17678429D01*
X28851142Y17678429D01*
X28208285Y16178429D02*
X28208285Y17678429D01*
X27708285Y16607000D01*
X27208285Y17678429D01*
X27208285Y16178429D01*
X25994000Y16964143D02*
X26494000Y16964143D01*
X26494000Y16178429D02*
X26494000Y17678429D01*
X25779714Y17678429D01*
X24065428Y16178429D02*
X24065428Y17678429D01*
X23708285Y17678429D01*
X23494000Y17607000D01*
X23351142Y17464143D01*
X23279714Y17321286D01*
X23208285Y17035572D01*
X23208285Y16821286D01*
X23279714Y16535572D01*
X23351142Y16392715D01*
X23494000Y16249858D01*
X23708285Y16178429D01*
X24065428Y16178429D01*
X21994000Y16249858D02*
X22136857Y16178429D01*
X22422571Y16178429D01*
X22565428Y16249858D01*
X22636857Y16392715D01*
X22636857Y16964143D01*
X22565428Y17107000D01*
X22422571Y17178429D01*
X22136857Y17178429D01*
X21994000Y17107000D01*
X21922571Y16964143D01*
X21922571Y16821286D01*
X22636857Y16678429D01*
X21494000Y17178429D02*
X20922571Y17178429D01*
X21279714Y17678429D02*
X21279714Y16392715D01*
X21208285Y16249858D01*
X21065428Y16178429D01*
X20922571Y16178429D01*
X19851142Y16249858D02*
X19994000Y16178429D01*
X20279714Y16178429D01*
X20422571Y16249858D01*
X20494000Y16392715D01*
X20494000Y16964143D01*
X20422571Y17107000D01*
X20279714Y17178429D01*
X19994000Y17178429D01*
X19851142Y17107000D01*
X19779714Y16964143D01*
X19779714Y16821286D01*
X20494000Y16678429D01*
X18494000Y16249858D02*
X18636857Y16178429D01*
X18922571Y16178429D01*
X19065428Y16249858D01*
X19136857Y16321286D01*
X19208285Y16464143D01*
X19208285Y16892715D01*
X19136857Y17035572D01*
X19065428Y17107000D01*
X18922571Y17178429D01*
X18636857Y17178429D01*
X18494000Y17107000D01*
X18065428Y17178429D02*
X17494000Y17178429D01*
X17851142Y17678429D02*
X17851142Y16392715D01*
X17779714Y16249858D01*
X17636857Y16178429D01*
X17494000Y16178429D01*
X16779714Y16178429D02*
X16922571Y16249858D01*
X16994000Y16321286D01*
X17065428Y16464143D01*
X17065428Y16892715D01*
X16994000Y17035572D01*
X16922571Y17107000D01*
X16779714Y17178429D01*
X16565428Y17178429D01*
X16422571Y17107000D01*
X16351142Y17035572D01*
X16279714Y16892715D01*
X16279714Y16464143D01*
X16351142Y16321286D01*
X16422571Y16249858D01*
X16565428Y16178429D01*
X16779714Y16178429D01*
X15636857Y16178429D02*
X15636857Y17178429D01*
X15636857Y16892715D02*
X15565428Y17035572D01*
X15494000Y17107000D01*
X15351142Y17178429D01*
X15208285Y17178429D01*
X2019142Y37278858D02*
X2090571Y37421715D01*
X2090571Y37707429D01*
X2019142Y37850286D01*
X1947714Y37921715D01*
X1804857Y37993143D01*
X1376285Y37993143D01*
X1233428Y37921715D01*
X1162000Y37850286D01*
X1090571Y37707429D01*
X1090571Y37421715D01*
X1162000Y37278858D01*
X1090571Y35993143D02*
X2090571Y35993143D01*
X1090571Y36636000D02*
X1876285Y36636000D01*
X2019142Y36564572D01*
X2090571Y36421715D01*
X2090571Y36207429D01*
X2019142Y36064572D01*
X1947714Y35993143D01*
X2090571Y35278858D02*
X1090571Y35278858D01*
X1376285Y35278858D02*
X1233428Y35207429D01*
X1162000Y35136000D01*
X1090571Y34993143D01*
X1090571Y34850286D01*
X2090571Y34350286D02*
X1090571Y34350286D01*
X590571Y34350286D02*
X662000Y34421715D01*
X733428Y34350286D01*
X662000Y34278858D01*
X590571Y34350286D01*
X733428Y34350286D01*
X2090571Y33421715D02*
X2019142Y33564572D01*
X1947714Y33636000D01*
X1804857Y33707429D01*
X1376285Y33707429D01*
X1233428Y33636000D01*
X1162000Y33564572D01*
X1090571Y33421715D01*
X1090571Y33207429D01*
X1162000Y33064572D01*
X1233428Y32993143D01*
X1376285Y32921715D01*
X1804857Y32921715D01*
X1947714Y32993143D01*
X2019142Y33064572D01*
X2090571Y33207429D01*
X2090571Y33421715D01*
X1090571Y31636000D02*
X2090571Y31636000D01*
X1090571Y32278858D02*
X1876285Y32278858D01*
X2019142Y32207429D01*
X2090571Y32064572D01*
X2090571Y31850286D01*
X2019142Y31707429D01*
X1947714Y31636000D01*
X2019142Y30993143D02*
X2090571Y30850286D01*
X2090571Y30564572D01*
X2019142Y30421715D01*
X1876285Y30350286D01*
X1804857Y30350286D01*
X1662000Y30421715D01*
X1590571Y30564572D01*
X1590571Y30778858D01*
X1519142Y30921715D01*
X1376285Y30993143D01*
X1304857Y30993143D01*
X1162000Y30921715D01*
X1090571Y30778858D01*
X1090571Y30564572D01*
X1162000Y30421715D01*
X2019142Y29136000D02*
X2090571Y29278858D01*
X2090571Y29564572D01*
X2019142Y29707429D01*
X1876285Y29778858D01*
X1304857Y29778858D01*
X1162000Y29707429D01*
X1090571Y29564572D01*
X1090571Y29278858D01*
X1162000Y29136000D01*
X1304857Y29064572D01*
X1447714Y29064572D01*
X1590571Y29778858D01*
X2090571Y28207429D02*
X2019142Y28350286D01*
X1876285Y28421715D01*
X590571Y28421715D01*
X2019142Y27064572D02*
X2090571Y27207429D01*
X2090571Y27493143D01*
X2019142Y27636000D01*
X1876285Y27707429D01*
X1304857Y27707429D01*
X1162000Y27636000D01*
X1090571Y27493143D01*
X1090571Y27207429D01*
X1162000Y27064572D01*
X1304857Y26993143D01*
X1447714Y26993143D01*
X1590571Y27707429D01*
X2019142Y25707429D02*
X2090571Y25850286D01*
X2090571Y26136000D01*
X2019142Y26278858D01*
X1947714Y26350286D01*
X1804857Y26421715D01*
X1376285Y26421715D01*
X1233428Y26350286D01*
X1162000Y26278858D01*
X1090571Y26136000D01*
X1090571Y25850286D01*
X1162000Y25707429D01*
X1090571Y25278858D02*
X1090571Y24707429D01*
X590571Y25064572D02*
X1876285Y25064572D01*
X2019142Y24993143D01*
X2090571Y24850286D01*
X2090571Y24707429D01*
X2090571Y24207429D02*
X1090571Y24207429D01*
X1376285Y24207429D02*
X1233428Y24136000D01*
X1162000Y24064572D01*
X1090571Y23921715D01*
X1090571Y23778858D01*
X2090571Y23278858D02*
X1090571Y23278858D01*
X590571Y23278858D02*
X662000Y23350286D01*
X733428Y23278858D01*
X662000Y23207429D01*
X590571Y23278858D01*
X733428Y23278858D01*
X2019142Y21921715D02*
X2090571Y22064572D01*
X2090571Y22350286D01*
X2019142Y22493143D01*
X1947714Y22564572D01*
X1804857Y22636000D01*
X1376285Y22636000D01*
X1233428Y22564572D01*
X1162000Y22493143D01*
X1090571Y22350286D01*
X1090571Y22064572D01*
X1162000Y21921715D01*
X1947714Y21278858D02*
X2019142Y21207429D01*
X2090571Y21278858D01*
X2019142Y21350286D01*
X1947714Y21278858D01*
X2090571Y21278858D01*
X2019142Y19921715D02*
X2090571Y20064572D01*
X2090571Y20350286D01*
X2019142Y20493143D01*
X1947714Y20564572D01*
X1804857Y20636000D01*
X1376285Y20636000D01*
X1233428Y20564572D01*
X1162000Y20493143D01*
X1090571Y20350286D01*
X1090571Y20064572D01*
X1162000Y19921715D01*
X2090571Y19064572D02*
X2019142Y19207429D01*
X1947714Y19278858D01*
X1804857Y19350286D01*
X1376285Y19350286D01*
X1233428Y19278858D01*
X1162000Y19207429D01*
X1090571Y19064572D01*
X1090571Y18850286D01*
X1162000Y18707429D01*
X1233428Y18636000D01*
X1376285Y18564572D01*
X1804857Y18564572D01*
X1947714Y18636000D01*
X2019142Y18707429D01*
X2090571Y18850286D01*
X2090571Y19064572D01*
X1947714Y17921715D02*
X2019142Y17850286D01*
X2090571Y17921715D01*
X2019142Y17993143D01*
X1947714Y17921715D01*
X2090571Y17921715D01*
X1090571Y16564572D02*
X2090571Y16564572D01*
X1090571Y17207429D02*
X1876285Y17207429D01*
X2019142Y17136000D01*
X2090571Y16993143D01*
X2090571Y16778858D01*
X2019142Y16636000D01*
X1947714Y16564572D01*
X2090571Y15850286D02*
X590571Y15850286D01*
X1519142Y15707429D02*
X2090571Y15278858D01*
X1090571Y15278858D02*
X1662000Y15850286D01*
D11*
X6332000Y12230000D03*
D12*
X3792000Y12230000D03*
D11*
X6332000Y20485000D03*
D12*
X3792000Y20485000D03*
D13*
X19286000Y35217000D03*
X19286000Y32677000D03*
X19286000Y30137000D03*
X19286000Y27597000D03*
X11666000Y27597000D03*
X11666000Y30137000D03*
X11666000Y32677000D03*
D14*
X11666000Y35217000D03*
D15*
X38082000Y12865000D03*
X33002000Y12865000D03*
D11*
X38082000Y15405000D03*
D12*
X33002000Y15405000D03*
D16*
X46337000Y11010000D03*
X46337000Y23610000D03*
D17*
X46337000Y14310000D03*
X46337000Y20310000D03*
X46362400Y17302380D03*
D12*
X36845000Y24350000D03*
D11*
X36845000Y21810000D03*
X31765000Y19270000D03*
X31765000Y26890000D03*
X22461000Y39027000D03*
X22461000Y31407000D03*
X8491000Y39027000D03*
X8491000Y31407000D03*
D18*
X27922000Y42075000D03*
X27922000Y47155000D03*
X23477000Y42075000D03*
X23477000Y47155000D03*
X29192000Y32550000D03*
X29192000Y37630000D03*
X33002000Y32550000D03*
X33002000Y37630000D03*
D11*
X12047000Y45250000D03*
X17127000Y45250000D03*
X33637000Y45250000D03*
X38717000Y45250000D03*
D19*
X40657000Y31285000D03*
D20*
X47507000Y33785000D03*
D19*
X42907000Y38785000D03*
X39407000Y29035000D03*
D20*
X35907000Y38285000D03*
D11*
X10142000Y23660000D03*
X10142000Y16040000D03*
X13350000Y23715000D03*
X13350000Y16095000D03*
X25636000Y31407000D03*
X25636000Y39027000D03*
X5316000Y39027000D03*
X5316000Y31407000D03*
D21*
X19286000Y35217000D02*
X18121000Y35217000D01*
X16144000Y33240000D02*
X16144000Y21175000D01*
X18121000Y35217000D02*
X16144000Y33240000D01*
X45472000Y21175000D02*
X46337000Y20310000D01*
X10142000Y23660000D02*
X10142000Y23113000D01*
X10142000Y23113000D02*
X12080000Y21175000D01*
X3792000Y20485000D02*
X3792000Y22898000D01*
X4554000Y23660000D02*
X10142000Y23660000D01*
X3792000Y22898000D02*
X4554000Y23660000D01*
X36845000Y21810000D02*
X36972000Y21810000D01*
X36972000Y21810000D02*
X37607000Y21175000D01*
X37607000Y21175000D02*
X36845000Y21810000D01*
X36845000Y21810000D02*
X37480000Y21175000D01*
X16144000Y21175000D02*
X37607000Y21175000D01*
X37607000Y21175000D02*
X45472000Y21175000D01*
X14620000Y21175000D02*
X36210000Y21175000D01*
X36210000Y21175000D02*
X36845000Y21810000D01*
X12080000Y21175000D02*
X14620000Y21175000D01*
X10142000Y16040000D02*
X7690000Y16040000D01*
X6122000Y17608000D02*
X6332000Y17608000D01*
X7690000Y16040000D02*
X6122000Y17608000D01*
X10142000Y16040000D02*
X13295000Y16040000D01*
X13295000Y16040000D02*
X13350000Y16095000D01*
X3792000Y12230000D02*
X3792000Y15278000D01*
X3792000Y15278000D02*
X6332000Y17818000D01*
X6332000Y17818000D02*
X6332000Y17608000D01*
X6332000Y17608000D02*
X6332000Y20485000D01*
X33637000Y45250000D02*
X33637000Y42925000D01*
X33637000Y42925000D02*
X34813000Y41749000D01*
X34813000Y41749000D02*
X45100000Y41749000D01*
X47507000Y39342000D02*
X47507000Y33785000D01*
X45100000Y41749000D02*
X47507000Y39342000D01*
X6332000Y12230000D02*
X28281000Y12230000D01*
X31456000Y15405000D02*
X33002000Y15405000D01*
X28281000Y12230000D02*
X31456000Y15405000D01*
X31765000Y19270000D02*
X31765000Y18508000D01*
X31765000Y18508000D02*
X33002000Y17271000D01*
X33002000Y17271000D02*
X33002000Y15405000D01*
X13350000Y23715000D02*
X13350000Y25913000D01*
X13350000Y25913000D02*
X11666000Y27597000D01*
X6332000Y12230000D02*
X6840000Y12230000D01*
X22461000Y39027000D02*
X22969000Y39027000D01*
X22969000Y39027000D02*
X26017000Y42075000D01*
X26017000Y42075000D02*
X27922000Y42075000D01*
X27922000Y47155000D02*
X36812000Y47155000D01*
X36812000Y47155000D02*
X38717000Y45250000D01*
X23477000Y42075000D02*
X10396000Y42075000D01*
X8491000Y40170000D02*
X8491000Y39027000D01*
X10396000Y42075000D02*
X8491000Y40170000D01*
X23477000Y47155000D02*
X13952000Y47155000D01*
X13952000Y47155000D02*
X12047000Y45250000D01*
X29192000Y32550000D02*
X29192000Y31026000D01*
X31183000Y29035000D02*
X39407000Y29035000D01*
X29192000Y31026000D02*
X31183000Y29035000D01*
X29192000Y32550000D02*
X29192000Y33185000D01*
X11666000Y35217000D02*
X15095000Y35217000D01*
X17000000Y37122000D02*
X28684000Y37122000D01*
X15095000Y35217000D02*
X17000000Y37122000D01*
X28684000Y37122000D02*
X29192000Y37630000D01*
X5316000Y39027000D02*
X5316000Y36995000D01*
X5316000Y36995000D02*
X7094000Y35217000D01*
X7094000Y35217000D02*
X11666000Y35217000D01*
X33002000Y32550000D02*
X34885000Y32550000D01*
X34885000Y32550000D02*
X35647000Y32550000D01*
X34885000Y32550000D02*
X35288000Y32550000D01*
X41882000Y38785000D02*
X42907000Y38785000D01*
X35647000Y32550000D02*
X41882000Y38785000D01*
X25636000Y39027000D02*
X26652000Y39027000D01*
X26652000Y39027000D02*
X27541000Y39916000D01*
X31351000Y39916000D02*
X33002000Y38265000D01*
X27541000Y39916000D02*
X31351000Y39916000D01*
X33002000Y38265000D02*
X33002000Y37630000D01*
X38082000Y15405000D02*
X41003000Y15405000D01*
X42900380Y17302380D02*
X46362400Y17302380D01*
X41003000Y15405000D02*
X42900380Y17302380D01*
X19286000Y30137000D02*
X21191000Y30137000D01*
X21191000Y30137000D02*
X22461000Y31407000D01*
X25636000Y31407000D02*
X22461000Y31407000D01*
X11666000Y32677000D02*
X9761000Y32677000D01*
X9761000Y32677000D02*
X8491000Y31407000D01*
X5316000Y31407000D02*
X8491000Y31407000D01*
X36845000Y24350000D02*
X34305000Y26890000D01*
X34305000Y26890000D02*
X31765000Y26890000D01*
D22*
X45759192Y49219422D02*
X46494389Y49018295D01*
X47182351Y48690154D01*
X47801331Y48245372D01*
X48331761Y47698012D01*
X48756884Y47065361D01*
X49063251Y46367439D01*
X49242499Y45620817D01*
X49290000Y44973970D01*
X49290001Y5031630D01*
X49219422Y4240807D01*
X49018295Y3505611D01*
X48690152Y2817645D01*
X48245374Y2198672D01*
X47698012Y1668239D01*
X47065362Y1243117D01*
X46367439Y936749D01*
X45620819Y757501D01*
X44973970Y710000D01*
X39460000Y710000D01*
X39460000Y5375279D01*
X42847000Y5375279D01*
X42847000Y4954721D01*
X42929047Y4542244D01*
X43089988Y4153698D01*
X43323637Y3804017D01*
X43621017Y3506637D01*
X43970698Y3272988D01*
X44359244Y3112047D01*
X44771721Y3030000D01*
X45192279Y3030000D01*
X45604756Y3112047D01*
X45993302Y3272988D01*
X46342983Y3506637D01*
X46640363Y3804017D01*
X46874012Y4153698D01*
X47034953Y4542244D01*
X47117000Y4954721D01*
X47117000Y5375279D01*
X47034953Y5787756D01*
X46874012Y6176302D01*
X46640363Y6525983D01*
X46342983Y6823363D01*
X45993302Y7057012D01*
X45604756Y7217953D01*
X45192279Y7300000D01*
X44771721Y7300000D01*
X44359244Y7217953D01*
X43970698Y7057012D01*
X43621017Y6823363D01*
X43323637Y6525983D01*
X43089988Y6176302D01*
X42929047Y5787756D01*
X42847000Y5375279D01*
X39460000Y5375279D01*
X39460000Y10465123D01*
X39463435Y10500000D01*
X39449727Y10639184D01*
X39409128Y10773020D01*
X39343200Y10896363D01*
X39254475Y11004475D01*
X39247743Y11010000D01*
X44196025Y11010000D01*
X44219870Y10767898D01*
X44290489Y10535099D01*
X44405167Y10320551D01*
X44559498Y10132498D01*
X44747551Y9978167D01*
X44962099Y9863489D01*
X45194898Y9792870D01*
X45376335Y9775000D01*
X47297665Y9775000D01*
X47479102Y9792870D01*
X47711901Y9863489D01*
X47926449Y9978167D01*
X48114502Y10132498D01*
X48268833Y10320551D01*
X48383511Y10535099D01*
X48454130Y10767898D01*
X48477975Y11010000D01*
X48454130Y11252102D01*
X48383511Y11484901D01*
X48268833Y11699449D01*
X48114502Y11887502D01*
X47926449Y12041833D01*
X47711901Y12156511D01*
X47479102Y12227130D01*
X47297665Y12245000D01*
X45376335Y12245000D01*
X45194898Y12227130D01*
X44962099Y12156511D01*
X44747551Y12041833D01*
X44559498Y11887502D01*
X44405167Y11699449D01*
X44290489Y11484901D01*
X44219870Y11252102D01*
X44196025Y11010000D01*
X39247743Y11010000D01*
X39146363Y11093200D01*
X39023020Y11159128D01*
X38889184Y11199727D01*
X38750000Y11213435D01*
X38715123Y11210000D01*
X38619780Y11210000D01*
X38903745Y11327623D01*
X39187883Y11517477D01*
X39429523Y11759117D01*
X39619377Y12043255D01*
X39750152Y12358972D01*
X39816820Y12694135D01*
X39816820Y13035865D01*
X39750152Y13371028D01*
X39619377Y13686745D01*
X39429523Y13970883D01*
X39206136Y14194270D01*
X39364415Y14352549D01*
X39388771Y14389000D01*
X40953098Y14389000D01*
X41003000Y14384085D01*
X41052902Y14389000D01*
X41202171Y14403702D01*
X41393687Y14461798D01*
X41570190Y14556140D01*
X41724896Y14683104D01*
X41756712Y14721872D01*
X43321221Y16286380D01*
X45074872Y16286380D01*
X45092413Y16260128D01*
X45320148Y16032393D01*
X45587937Y15853462D01*
X45689361Y15811451D01*
X45562537Y15758918D01*
X45294748Y15579987D01*
X45067013Y15352252D01*
X44888082Y15084463D01*
X44764832Y14786912D01*
X44702000Y14471033D01*
X44702000Y14148967D01*
X44764832Y13833088D01*
X44888082Y13535537D01*
X45067013Y13267748D01*
X45294748Y13040013D01*
X45562537Y12861082D01*
X45860088Y12737832D01*
X46175967Y12675000D01*
X46498033Y12675000D01*
X46813912Y12737832D01*
X47111463Y12861082D01*
X47379252Y13040013D01*
X47606987Y13267748D01*
X47785918Y13535537D01*
X47909168Y13833088D01*
X47972000Y14148967D01*
X47972000Y14471033D01*
X47909168Y14786912D01*
X47785918Y15084463D01*
X47606987Y15352252D01*
X47379252Y15579987D01*
X47111463Y15758918D01*
X47010039Y15800929D01*
X47136863Y15853462D01*
X47404652Y16032393D01*
X47632387Y16260128D01*
X47811318Y16527917D01*
X47934568Y16825468D01*
X47997400Y17141347D01*
X47997400Y17463413D01*
X47934568Y17779292D01*
X47811318Y18076843D01*
X47632387Y18344632D01*
X47404652Y18572367D01*
X47136863Y18751298D01*
X46991642Y18811451D01*
X47111463Y18861082D01*
X47379252Y19040013D01*
X47606987Y19267748D01*
X47785918Y19535537D01*
X47909168Y19833088D01*
X47972000Y20148967D01*
X47972000Y20471033D01*
X47909168Y20786912D01*
X47785918Y21084463D01*
X47606987Y21352252D01*
X47379252Y21579987D01*
X47111463Y21758918D01*
X46813912Y21882168D01*
X46498033Y21945000D01*
X46175967Y21945000D01*
X46143219Y21938486D01*
X46039190Y22023860D01*
X45862687Y22118202D01*
X45671171Y22176298D01*
X45521902Y22191000D01*
X45472000Y22195915D01*
X45422098Y22191000D01*
X38452559Y22191000D01*
X38432553Y22291579D01*
X38308097Y22592042D01*
X38179636Y22784296D01*
X38215494Y22803463D01*
X38312185Y22882815D01*
X38391537Y22979506D01*
X38450502Y23089820D01*
X38486812Y23209518D01*
X38499072Y23334000D01*
X38499072Y23610000D01*
X44196025Y23610000D01*
X44219870Y23367898D01*
X44290489Y23135099D01*
X44405167Y22920551D01*
X44559498Y22732498D01*
X44747551Y22578167D01*
X44962099Y22463489D01*
X45194898Y22392870D01*
X45376335Y22375000D01*
X47297665Y22375000D01*
X47479102Y22392870D01*
X47711901Y22463489D01*
X47926449Y22578167D01*
X48114502Y22732498D01*
X48268833Y22920551D01*
X48383511Y23135099D01*
X48454130Y23367898D01*
X48477975Y23610000D01*
X48454130Y23852102D01*
X48383511Y24084901D01*
X48268833Y24299449D01*
X48114502Y24487502D01*
X47926449Y24641833D01*
X47711901Y24756511D01*
X47479102Y24827130D01*
X47297665Y24845000D01*
X45376335Y24845000D01*
X45194898Y24827130D01*
X44962099Y24756511D01*
X44747551Y24641833D01*
X44559498Y24487502D01*
X44405167Y24299449D01*
X44290489Y24084901D01*
X44219870Y23852102D01*
X44196025Y23610000D01*
X38499072Y23610000D01*
X38499072Y25366000D01*
X38486812Y25490482D01*
X38450502Y25610180D01*
X38391537Y25720494D01*
X38312185Y25817185D01*
X38215494Y25896537D01*
X38105180Y25955502D01*
X37985482Y25991812D01*
X37861000Y26004072D01*
X36627769Y26004072D01*
X35058712Y27573128D01*
X35026896Y27611896D01*
X34872190Y27738860D01*
X34695687Y27833202D01*
X34504171Y27891298D01*
X34354902Y27906000D01*
X34305000Y27910915D01*
X34255098Y27906000D01*
X33071771Y27906000D01*
X33047415Y27942451D01*
X32970866Y28019000D01*
X38098258Y28019000D01*
X38117551Y28003167D01*
X38332099Y27888489D01*
X38564898Y27817870D01*
X38746335Y27800000D01*
X40067665Y27800000D01*
X40249102Y27817870D01*
X40481901Y27888489D01*
X40696449Y28003167D01*
X40884502Y28157498D01*
X41038833Y28345551D01*
X41153511Y28560099D01*
X41224130Y28792898D01*
X41247975Y29035000D01*
X41224130Y29277102D01*
X41153511Y29509901D01*
X41038833Y29724449D01*
X40884502Y29912502D01*
X40716960Y30050000D01*
X41317665Y30050000D01*
X41499102Y30067870D01*
X41731901Y30138489D01*
X41946449Y30253167D01*
X42134502Y30407498D01*
X42288833Y30595551D01*
X42403511Y30810099D01*
X42474130Y31042898D01*
X42497975Y31285000D01*
X42474130Y31527102D01*
X42403511Y31759901D01*
X42288833Y31974449D01*
X42134502Y32162502D01*
X41946449Y32316833D01*
X41731901Y32431511D01*
X41499102Y32502130D01*
X41317665Y32520000D01*
X39996335Y32520000D01*
X39814898Y32502130D01*
X39582099Y32431511D01*
X39367551Y32316833D01*
X39179498Y32162502D01*
X39025167Y31974449D01*
X38910489Y31759901D01*
X38839870Y31527102D01*
X38816025Y31285000D01*
X38839870Y31042898D01*
X38910489Y30810099D01*
X39025167Y30595551D01*
X39179498Y30407498D01*
X39347040Y30270000D01*
X38746335Y30270000D01*
X38564898Y30252130D01*
X38332099Y30181511D01*
X38117551Y30066833D01*
X38098258Y30051000D01*
X31603841Y30051000D01*
X30270952Y31383888D01*
X30425092Y31538028D01*
X30598824Y31798037D01*
X30718493Y32086943D01*
X30779500Y32393645D01*
X30779500Y32706355D01*
X31414500Y32706355D01*
X31414500Y32393645D01*
X31475507Y32086943D01*
X31595176Y31798037D01*
X31768908Y31538028D01*
X31990028Y31316908D01*
X32250037Y31143176D01*
X32538943Y31023507D01*
X32845645Y30962500D01*
X33158355Y30962500D01*
X33465057Y31023507D01*
X33753963Y31143176D01*
X34013972Y31316908D01*
X34231064Y31534000D01*
X35597098Y31534000D01*
X35647000Y31529085D01*
X35696902Y31534000D01*
X35846171Y31548702D01*
X36037687Y31606798D01*
X36214190Y31701140D01*
X36368896Y31828104D01*
X36400712Y31866872D01*
X38191840Y33658000D01*
X46272000Y33658000D01*
X46272000Y33058000D01*
X46320507Y32819504D01*
X46414610Y32595054D01*
X46550693Y32393275D01*
X46723526Y32221922D01*
X46926467Y32087579D01*
X47151718Y31995409D01*
X47189391Y31991538D01*
X47380000Y32116269D01*
X47380000Y33658000D01*
X47634000Y33658000D01*
X47634000Y32116269D01*
X47824609Y31991538D01*
X47862282Y31995409D01*
X48087533Y32087579D01*
X48290474Y32221922D01*
X48463307Y32393275D01*
X48599390Y32595054D01*
X48693493Y32819504D01*
X48742000Y33058000D01*
X48742000Y33658000D01*
X47634000Y33658000D01*
X47380000Y33658000D01*
X46272000Y33658000D01*
X38191840Y33658000D01*
X39045840Y34512000D01*
X46272000Y34512000D01*
X46272000Y33912000D01*
X47380000Y33912000D01*
X47380000Y35453731D01*
X47634000Y35453731D01*
X47634000Y33912000D01*
X48742000Y33912000D01*
X48742000Y34512000D01*
X48693493Y34750496D01*
X48599390Y34974946D01*
X48463307Y35176725D01*
X48290474Y35348078D01*
X48087533Y35482421D01*
X47862282Y35574591D01*
X47824609Y35578462D01*
X47634000Y35453731D01*
X47380000Y35453731D01*
X47189391Y35578462D01*
X47151718Y35574591D01*
X46926467Y35482421D01*
X46723526Y35348078D01*
X46550693Y35176725D01*
X46414610Y34974946D01*
X46320507Y34750496D01*
X46272000Y34512000D01*
X39045840Y34512000D01*
X42098410Y37564569D01*
X42246335Y37550000D01*
X43567665Y37550000D01*
X43749102Y37567870D01*
X43981901Y37638489D01*
X44196449Y37753167D01*
X44384502Y37907498D01*
X44538833Y38095551D01*
X44653511Y38310099D01*
X44724130Y38542898D01*
X44747975Y38785000D01*
X44724130Y39027102D01*
X44653511Y39259901D01*
X44538833Y39474449D01*
X44384502Y39662502D01*
X44196449Y39816833D01*
X43981901Y39931511D01*
X43749102Y40002130D01*
X43567665Y40020000D01*
X42246335Y40020000D01*
X42064898Y40002130D01*
X41832099Y39931511D01*
X41617551Y39816833D01*
X41520250Y39736980D01*
X41491313Y39728202D01*
X41314810Y39633860D01*
X41160104Y39506896D01*
X41128292Y39468133D01*
X35226160Y33566000D01*
X34231064Y33566000D01*
X34013972Y33783092D01*
X33753963Y33956824D01*
X33465057Y34076493D01*
X33158355Y34137500D01*
X32845645Y34137500D01*
X32538943Y34076493D01*
X32250037Y33956824D01*
X31990028Y33783092D01*
X31768908Y33561972D01*
X31595176Y33301963D01*
X31475507Y33013057D01*
X31414500Y32706355D01*
X30779500Y32706355D01*
X30718493Y33013057D01*
X30598824Y33301963D01*
X30425092Y33561972D01*
X30203972Y33783092D01*
X29943963Y33956824D01*
X29760421Y34032850D01*
X29759190Y34033860D01*
X29582687Y34128202D01*
X29391171Y34186298D01*
X29192000Y34205915D01*
X28992830Y34186298D01*
X28801314Y34128202D01*
X28624811Y34033860D01*
X28623581Y34032851D01*
X28440037Y33956824D01*
X28180028Y33783092D01*
X27958908Y33561972D01*
X27785176Y33301963D01*
X27665507Y33013057D01*
X27604500Y32706355D01*
X27604500Y32393645D01*
X27665507Y32086943D01*
X27785176Y31798037D01*
X27958908Y31538028D01*
X28176001Y31320935D01*
X28176001Y31075911D01*
X28171085Y31026000D01*
X28190702Y30826830D01*
X28233695Y30685105D01*
X28248799Y30635313D01*
X28343141Y30458810D01*
X28470105Y30304104D01*
X28508868Y30272292D01*
X30429292Y28351867D01*
X30461104Y28313104D01*
X30615810Y28186140D01*
X30687797Y28147663D01*
X30482585Y27942451D01*
X30301903Y27672042D01*
X30177447Y27371579D01*
X30114000Y27052609D01*
X30114000Y26727391D01*
X30177447Y26408421D01*
X30301903Y26107958D01*
X30482585Y25837549D01*
X30712549Y25607585D01*
X30982958Y25426903D01*
X31283421Y25302447D01*
X31602391Y25239000D01*
X31927609Y25239000D01*
X32246579Y25302447D01*
X32547042Y25426903D01*
X32817451Y25607585D01*
X33047415Y25837549D01*
X33071771Y25874000D01*
X33884160Y25874000D01*
X35190928Y24567231D01*
X35190928Y23334000D01*
X35203188Y23209518D01*
X35239498Y23089820D01*
X35298463Y22979506D01*
X35377815Y22882815D01*
X35474506Y22803463D01*
X35510364Y22784296D01*
X35381903Y22592042D01*
X35257447Y22291579D01*
X35237441Y22191000D01*
X17160000Y22191000D01*
X17160000Y27249940D01*
X17550990Y27249940D01*
X17567672Y27170004D01*
X17677159Y26912354D01*
X17834808Y26681014D01*
X18034560Y26484875D01*
X18268738Y26331474D01*
X18528344Y26226707D01*
X18803400Y26174600D01*
X19159000Y26174600D01*
X19159000Y27470000D01*
X19413000Y27470000D01*
X19413000Y26174600D01*
X19768600Y26174600D01*
X20043656Y26226707D01*
X20303262Y26331474D01*
X20537440Y26484875D01*
X20737192Y26681014D01*
X20894841Y26912354D01*
X21004328Y27170004D01*
X21021010Y27249940D01*
X20898852Y27470000D01*
X19413000Y27470000D01*
X19159000Y27470000D01*
X17673148Y27470000D01*
X17550990Y27249940D01*
X17160000Y27249940D01*
X17160000Y32819160D01*
X17661717Y33320877D01*
X17609916Y33223963D01*
X17528581Y32955839D01*
X17501118Y32677000D01*
X17528581Y32398161D01*
X17609916Y32130037D01*
X17741995Y31882933D01*
X17919745Y31666345D01*
X18136333Y31488595D01*
X18288987Y31407000D01*
X18136333Y31325405D01*
X17919745Y31147655D01*
X17741995Y30931067D01*
X17609916Y30683963D01*
X17528581Y30415839D01*
X17501118Y30137000D01*
X17528581Y29858161D01*
X17609916Y29590037D01*
X17741995Y29342933D01*
X17919745Y29126345D01*
X18136333Y28948595D01*
X18285045Y28869107D01*
X18268738Y28862526D01*
X18034560Y28709125D01*
X17834808Y28512986D01*
X17677159Y28281646D01*
X17567672Y28023996D01*
X17550990Y27944060D01*
X17673148Y27724000D01*
X19159000Y27724000D01*
X19159000Y27744000D01*
X19413000Y27744000D01*
X19413000Y27724000D01*
X20898852Y27724000D01*
X21021010Y27944060D01*
X21004328Y28023996D01*
X20894841Y28281646D01*
X20737192Y28512986D01*
X20537440Y28709125D01*
X20303262Y28862526D01*
X20286955Y28869107D01*
X20435667Y28948595D01*
X20645742Y29121000D01*
X21141098Y29121000D01*
X21191000Y29116085D01*
X21240902Y29121000D01*
X21390171Y29135702D01*
X21581687Y29193798D01*
X21758190Y29288140D01*
X21912896Y29415104D01*
X21944712Y29453872D01*
X22255393Y29764553D01*
X22298391Y29756000D01*
X22623609Y29756000D01*
X22942579Y29819447D01*
X23243042Y29943903D01*
X23513451Y30124585D01*
X23743415Y30354549D01*
X23767771Y30391000D01*
X24329229Y30391000D01*
X24353585Y30354549D01*
X24583549Y30124585D01*
X24853958Y29943903D01*
X25154421Y29819447D01*
X25473391Y29756000D01*
X25798609Y29756000D01*
X26117579Y29819447D01*
X26418042Y29943903D01*
X26688451Y30124585D01*
X26918415Y30354549D01*
X27099097Y30624958D01*
X27223553Y30925421D01*
X27287000Y31244391D01*
X27287000Y31569609D01*
X27223553Y31888579D01*
X27099097Y32189042D01*
X26918415Y32459451D01*
X26688451Y32689415D01*
X26418042Y32870097D01*
X26117579Y32994553D01*
X25798609Y33058000D01*
X25473391Y33058000D01*
X25154421Y32994553D01*
X24853958Y32870097D01*
X24583549Y32689415D01*
X24353585Y32459451D01*
X24329229Y32423000D01*
X23767771Y32423000D01*
X23743415Y32459451D01*
X23513451Y32689415D01*
X23243042Y32870097D01*
X22942579Y32994553D01*
X22623609Y33058000D01*
X22298391Y33058000D01*
X21979421Y32994553D01*
X21678958Y32870097D01*
X21408549Y32689415D01*
X21178585Y32459451D01*
X20997903Y32189042D01*
X20873447Y31888579D01*
X20810000Y31569609D01*
X20810000Y31244391D01*
X20818553Y31201393D01*
X20770160Y31153000D01*
X20645742Y31153000D01*
X20435667Y31325405D01*
X20283013Y31407000D01*
X20435667Y31488595D01*
X20652255Y31666345D01*
X20830005Y31882933D01*
X20962084Y32130037D01*
X21043419Y32398161D01*
X21070882Y32677000D01*
X21043419Y32955839D01*
X20962084Y33223963D01*
X20830005Y33471067D01*
X20652255Y33687655D01*
X20435667Y33865405D01*
X20283013Y33947000D01*
X20435667Y34028595D01*
X20652255Y34206345D01*
X20830005Y34422933D01*
X20962084Y34670037D01*
X21043419Y34938161D01*
X21070882Y35217000D01*
X21043419Y35495839D01*
X20962084Y35763963D01*
X20830005Y36011067D01*
X20752095Y36106000D01*
X28634098Y36106000D01*
X28684000Y36101085D01*
X28725033Y36105127D01*
X28728943Y36103507D01*
X29035645Y36042500D01*
X29348355Y36042500D01*
X29655057Y36103507D01*
X29943963Y36223176D01*
X30203972Y36396908D01*
X30425092Y36618028D01*
X30598824Y36878037D01*
X30718493Y37166943D01*
X30779500Y37473645D01*
X30779500Y37786355D01*
X30718493Y38093057D01*
X30598824Y38381963D01*
X30425092Y38641972D01*
X30203972Y38863092D01*
X30148735Y38900000D01*
X30930160Y38900000D01*
X31552127Y38278033D01*
X31475507Y38093057D01*
X31414500Y37786355D01*
X31414500Y37473645D01*
X31475507Y37166943D01*
X31595176Y36878037D01*
X31768908Y36618028D01*
X31990028Y36396908D01*
X32250037Y36223176D01*
X32538943Y36103507D01*
X32845645Y36042500D01*
X33158355Y36042500D01*
X33465057Y36103507D01*
X33753963Y36223176D01*
X34013972Y36396908D01*
X34235092Y36618028D01*
X34408824Y36878037D01*
X34528493Y37166943D01*
X34589500Y37473645D01*
X34589500Y37786355D01*
X34528493Y38093057D01*
X34408824Y38381963D01*
X34235092Y38641972D01*
X34013972Y38863092D01*
X33890393Y38945665D01*
X34672000Y38945665D01*
X34672000Y37624336D01*
X34689870Y37442899D01*
X34760489Y37210100D01*
X34875167Y36995552D01*
X35029498Y36807498D01*
X35217551Y36653167D01*
X35432099Y36538489D01*
X35664898Y36467870D01*
X35907000Y36444025D01*
X36149101Y36467870D01*
X36381900Y36538489D01*
X36596448Y36653167D01*
X36784502Y36807498D01*
X36938833Y36995551D01*
X37053511Y37210099D01*
X37124130Y37442898D01*
X37142000Y37624335D01*
X37142000Y38945665D01*
X37124130Y39127102D01*
X37053511Y39359901D01*
X36938833Y39574449D01*
X36784502Y39762502D01*
X36596449Y39916833D01*
X36381901Y40031511D01*
X36149102Y40102130D01*
X35907000Y40125975D01*
X35664899Y40102130D01*
X35432100Y40031511D01*
X35217552Y39916833D01*
X35029499Y39762502D01*
X34875168Y39574449D01*
X34760489Y39359901D01*
X34689870Y39127102D01*
X34672000Y38945665D01*
X33890393Y38945665D01*
X33753963Y39036824D01*
X33605537Y39098304D01*
X32104712Y40599128D01*
X32072896Y40637896D01*
X31918190Y40764860D01*
X31741687Y40859202D01*
X31550171Y40917298D01*
X31400902Y40932000D01*
X31351000Y40936915D01*
X31301098Y40932000D01*
X29024064Y40932000D01*
X29155092Y41063028D01*
X29328824Y41323037D01*
X29448493Y41611943D01*
X29509500Y41918645D01*
X29509500Y42231355D01*
X29448493Y42538057D01*
X29328824Y42826963D01*
X29155092Y43086972D01*
X28933972Y43308092D01*
X28673963Y43481824D01*
X28385057Y43601493D01*
X28078355Y43662500D01*
X27765645Y43662500D01*
X27458943Y43601493D01*
X27170037Y43481824D01*
X26910028Y43308092D01*
X26692936Y43091000D01*
X26066902Y43091000D01*
X26017000Y43095915D01*
X25817829Y43076298D01*
X25626312Y43018202D01*
X25564832Y42985340D01*
X25449810Y42923860D01*
X25295104Y42796896D01*
X25263292Y42758133D01*
X25010084Y42504924D01*
X25003493Y42538057D01*
X24883824Y42826963D01*
X24710092Y43086972D01*
X24488972Y43308092D01*
X24228963Y43481824D01*
X23940057Y43601493D01*
X23633355Y43662500D01*
X23320645Y43662500D01*
X23013943Y43601493D01*
X22725037Y43481824D01*
X22465028Y43308092D01*
X22247936Y43091000D01*
X10445902Y43091000D01*
X10396000Y43095915D01*
X10346098Y43091000D01*
X10196829Y43076298D01*
X10005313Y43018202D01*
X9828810Y42923860D01*
X9674104Y42796896D01*
X9642292Y42758133D01*
X7807872Y40923712D01*
X7769104Y40891896D01*
X7642140Y40737190D01*
X7547798Y40560686D01*
X7489702Y40369171D01*
X7489702Y40369170D01*
X7487006Y40341793D01*
X7438549Y40309415D01*
X7208585Y40079451D01*
X7027903Y39809042D01*
X6903500Y39508707D01*
X6779097Y39809042D01*
X6598415Y40079451D01*
X6368451Y40309415D01*
X6098042Y40490097D01*
X5797579Y40614553D01*
X5478609Y40678000D01*
X5153391Y40678000D01*
X4834421Y40614553D01*
X4533958Y40490097D01*
X4263549Y40309415D01*
X4033585Y40079451D01*
X3852903Y39809042D01*
X3728447Y39508579D01*
X3665000Y39189609D01*
X3665000Y38864391D01*
X3728447Y38545421D01*
X3852903Y38244958D01*
X4033585Y37974549D01*
X4263549Y37744585D01*
X4300001Y37720229D01*
X4300001Y37044911D01*
X4295085Y36995000D01*
X4314702Y36795830D01*
X4365401Y36628702D01*
X4372799Y36604313D01*
X4467141Y36427810D01*
X4594105Y36273104D01*
X4632868Y36241292D01*
X6340292Y34533867D01*
X6372104Y34495104D01*
X6526810Y34368140D01*
X6703311Y34273799D01*
X6703313Y34273798D01*
X6894829Y34215702D01*
X7094000Y34196085D01*
X7143902Y34201000D01*
X9928772Y34201000D01*
X9933498Y34185420D01*
X9992463Y34075106D01*
X10071815Y33978415D01*
X10168506Y33899063D01*
X10278820Y33840098D01*
X10398518Y33803788D01*
X10436674Y33800030D01*
X10306258Y33693000D01*
X9810893Y33693000D01*
X9760999Y33697914D01*
X9711105Y33693000D01*
X9711098Y33693000D01*
X9561829Y33678298D01*
X9370313Y33620202D01*
X9193810Y33525860D01*
X9039104Y33398896D01*
X9007292Y33360133D01*
X8696607Y33049447D01*
X8653609Y33058000D01*
X8328391Y33058000D01*
X8009421Y32994553D01*
X7708958Y32870097D01*
X7438549Y32689415D01*
X7208585Y32459451D01*
X7184229Y32423000D01*
X6622771Y32423000D01*
X6598415Y32459451D01*
X6368451Y32689415D01*
X6098042Y32870097D01*
X5797579Y32994553D01*
X5478609Y33058000D01*
X5153391Y33058000D01*
X4834421Y32994553D01*
X4533958Y32870097D01*
X4263549Y32689415D01*
X4033585Y32459451D01*
X3852903Y32189042D01*
X3728447Y31888579D01*
X3665000Y31569609D01*
X3665000Y31244391D01*
X3728447Y30925421D01*
X3852903Y30624958D01*
X4033585Y30354549D01*
X4263549Y30124585D01*
X4533958Y29943903D01*
X4834421Y29819447D01*
X5153391Y29756000D01*
X5478609Y29756000D01*
X5797579Y29819447D01*
X6098042Y29943903D01*
X6368451Y30124585D01*
X6598415Y30354549D01*
X6622771Y30391000D01*
X7184229Y30391000D01*
X7208585Y30354549D01*
X7438549Y30124585D01*
X7708958Y29943903D01*
X8009421Y29819447D01*
X8328391Y29756000D01*
X8653609Y29756000D01*
X8972579Y29819447D01*
X9273042Y29943903D01*
X9543451Y30124585D01*
X9773415Y30354549D01*
X9954097Y30624958D01*
X10078553Y30925421D01*
X10142000Y31244391D01*
X10142000Y31569609D01*
X10133447Y31612607D01*
X10181841Y31661000D01*
X10306258Y31661000D01*
X10516333Y31488595D01*
X10665045Y31409107D01*
X10648738Y31402526D01*
X10414560Y31249125D01*
X10214808Y31052986D01*
X10057159Y30821646D01*
X9947672Y30563996D01*
X9930990Y30484060D01*
X10053148Y30264000D01*
X11539000Y30264000D01*
X11539000Y30284000D01*
X11793000Y30284000D01*
X11793000Y30264000D01*
X13278852Y30264000D01*
X13401010Y30484060D01*
X13384328Y30563996D01*
X13274841Y30821646D01*
X13117192Y31052986D01*
X12917440Y31249125D01*
X12683262Y31402526D01*
X12666955Y31409107D01*
X12815667Y31488595D01*
X13032255Y31666345D01*
X13210005Y31882933D01*
X13342084Y32130037D01*
X13423419Y32398161D01*
X13450882Y32677000D01*
X13423419Y32955839D01*
X13342084Y33223963D01*
X13210005Y33471067D01*
X13032255Y33687655D01*
X12895326Y33800030D01*
X12933482Y33803788D01*
X13053180Y33840098D01*
X13163494Y33899063D01*
X13260185Y33978415D01*
X13339537Y34075106D01*
X13398502Y34185420D01*
X13403228Y34201000D01*
X15045098Y34201000D01*
X15095000Y34196085D01*
X15144902Y34201000D01*
X15294171Y34215702D01*
X15485687Y34273798D01*
X15662190Y34368140D01*
X15816896Y34495104D01*
X15848712Y34533872D01*
X17420841Y36106000D01*
X17628907Y36106000D01*
X17553810Y36065860D01*
X17399104Y35938896D01*
X17367294Y35900135D01*
X15460872Y33993712D01*
X15422104Y33961896D01*
X15295140Y33807190D01*
X15200798Y33630686D01*
X15168999Y33525859D01*
X15142702Y33439170D01*
X15123085Y33240000D01*
X15128000Y33190098D01*
X15128001Y22191000D01*
X13985009Y22191000D01*
X14132042Y22251903D01*
X14402451Y22432585D01*
X14632415Y22662549D01*
X14813097Y22932958D01*
X14937553Y23233421D01*
X15001000Y23552391D01*
X15001000Y23877609D01*
X14937553Y24196579D01*
X14813097Y24497042D01*
X14632415Y24767451D01*
X14402451Y24997415D01*
X14366000Y25021771D01*
X14366000Y25863098D01*
X14370915Y25913000D01*
X14351298Y26112171D01*
X14293202Y26303687D01*
X14198860Y26480190D01*
X14183166Y26499313D01*
X14071896Y26634896D01*
X14033133Y26666708D01*
X13413704Y27286136D01*
X13423419Y27318161D01*
X13450882Y27597000D01*
X13423419Y27875839D01*
X13342084Y28143963D01*
X13210005Y28391067D01*
X13032255Y28607655D01*
X12815667Y28785405D01*
X12666955Y28864893D01*
X12683262Y28871474D01*
X12917440Y29024875D01*
X13117192Y29221014D01*
X13274841Y29452354D01*
X13384328Y29710004D01*
X13401010Y29789940D01*
X13278852Y30010000D01*
X11793000Y30010000D01*
X11793000Y29990000D01*
X11539000Y29990000D01*
X11539000Y30010000D01*
X10053148Y30010000D01*
X9930990Y29789940D01*
X9947672Y29710004D01*
X10057159Y29452354D01*
X10214808Y29221014D01*
X10414560Y29024875D01*
X10648738Y28871474D01*
X10665045Y28864893D01*
X10516333Y28785405D01*
X10299745Y28607655D01*
X10121995Y28391067D01*
X9989916Y28143963D01*
X9908581Y27875839D01*
X9881118Y27597000D01*
X9908581Y27318161D01*
X9989916Y27050037D01*
X10121995Y26802933D01*
X10299745Y26586345D01*
X10516333Y26408595D01*
X10763437Y26276516D01*
X11031561Y26195181D01*
X11240525Y26174600D01*
X11651560Y26174600D01*
X12334001Y25492158D01*
X12334001Y25021771D01*
X12297549Y24997415D01*
X12067585Y24767451D01*
X11886903Y24497042D01*
X11762447Y24196579D01*
X11740530Y24086394D01*
X11729553Y24141579D01*
X11605097Y24442042D01*
X11424415Y24712451D01*
X11194451Y24942415D01*
X10924042Y25123097D01*
X10623579Y25247553D01*
X10304609Y25311000D01*
X9979391Y25311000D01*
X9660421Y25247553D01*
X9359958Y25123097D01*
X9089549Y24942415D01*
X8859585Y24712451D01*
X8835229Y24676000D01*
X4603902Y24676000D01*
X4554000Y24680915D01*
X4504098Y24676000D01*
X4354829Y24661298D01*
X4163313Y24603202D01*
X3986810Y24508860D01*
X3832104Y24381896D01*
X3800292Y24343133D01*
X3442000Y23984840D01*
X3442000Y39063857D01*
X710000Y39063857D01*
X710000Y44968382D01*
X746314Y45375279D01*
X2847000Y45375279D01*
X2847000Y44954721D01*
X2929047Y44542244D01*
X3089988Y44153698D01*
X3323637Y43804017D01*
X3621017Y43506637D01*
X3970698Y43272988D01*
X4359244Y43112047D01*
X4771721Y43030000D01*
X5192279Y43030000D01*
X5604756Y43112047D01*
X5993302Y43272988D01*
X6342983Y43506637D01*
X6640363Y43804017D01*
X6874012Y44153698D01*
X7034953Y44542244D01*
X7117000Y44954721D01*
X7117000Y45375279D01*
X7109575Y45412609D01*
X10396000Y45412609D01*
X10396000Y45087391D01*
X10459447Y44768421D01*
X10583903Y44467958D01*
X10764585Y44197549D01*
X10994549Y43967585D01*
X11264958Y43786903D01*
X11565421Y43662447D01*
X11884391Y43599000D01*
X12209609Y43599000D01*
X12528579Y43662447D01*
X12829042Y43786903D01*
X13099451Y43967585D01*
X13235043Y44103177D01*
X16159782Y44103177D01*
X16257478Y43837140D01*
X16549821Y43694652D01*
X16864344Y43611936D01*
X17188962Y43592169D01*
X17511198Y43636112D01*
X17818670Y43742076D01*
X17996522Y43837140D01*
X18094218Y44103177D01*
X32669782Y44103177D01*
X32767478Y43837140D01*
X33059821Y43694652D01*
X33374344Y43611936D01*
X33698962Y43592169D01*
X34021198Y43636112D01*
X34328670Y43742076D01*
X34506522Y43837140D01*
X34604218Y44103177D01*
X33637000Y45070395D01*
X32669782Y44103177D01*
X18094218Y44103177D01*
X17127000Y45070395D01*
X16159782Y44103177D01*
X13235043Y44103177D01*
X13329415Y44197549D01*
X13510097Y44467958D01*
X13634553Y44768421D01*
X13698000Y45087391D01*
X13698000Y45412609D01*
X13689447Y45455607D01*
X14372841Y46139000D01*
X15767181Y46139000D01*
X15714140Y46119522D01*
X15571652Y45827179D01*
X15488936Y45512656D01*
X15469169Y45188038D01*
X15513112Y44865802D01*
X15619076Y44558330D01*
X15714140Y44380478D01*
X15980177Y44282782D01*
X16947395Y45250000D01*
X16933253Y45264142D01*
X17112858Y45443747D01*
X17127000Y45429605D01*
X17141143Y45443747D01*
X17320748Y45264142D01*
X17306605Y45250000D01*
X18273823Y44282782D01*
X18539860Y44380478D01*
X18682348Y44672821D01*
X18765064Y44987344D01*
X18784831Y45311962D01*
X18740888Y45634198D01*
X18634924Y45941670D01*
X18539860Y46119522D01*
X18486819Y46139000D01*
X22247936Y46139000D01*
X22465028Y45921908D01*
X22725037Y45748176D01*
X23013943Y45628507D01*
X23320645Y45567500D01*
X23633355Y45567500D01*
X23940057Y45628507D01*
X24228963Y45748176D01*
X24488972Y45921908D01*
X24710092Y46143028D01*
X24883824Y46403037D01*
X25003493Y46691943D01*
X25064500Y46998645D01*
X25064500Y47311355D01*
X26334500Y47311355D01*
X26334500Y46998645D01*
X26395507Y46691943D01*
X26515176Y46403037D01*
X26688908Y46143028D01*
X26910028Y45921908D01*
X27170037Y45748176D01*
X27458943Y45628507D01*
X27765645Y45567500D01*
X28078355Y45567500D01*
X28385057Y45628507D01*
X28673963Y45748176D01*
X28933972Y45921908D01*
X29151064Y46139000D01*
X32277181Y46139000D01*
X32224140Y46119522D01*
X32081652Y45827179D01*
X31998936Y45512656D01*
X31979169Y45188038D01*
X32023112Y44865802D01*
X32129076Y44558330D01*
X32224140Y44380478D01*
X32490177Y44282782D01*
X33457395Y45250000D01*
X33443253Y45264142D01*
X33622858Y45443747D01*
X33637000Y45429605D01*
X33651143Y45443747D01*
X33830748Y45264142D01*
X33816605Y45250000D01*
X34783823Y44282782D01*
X35049860Y44380478D01*
X35192348Y44672821D01*
X35275064Y44987344D01*
X35294831Y45311962D01*
X35250888Y45634198D01*
X35144924Y45941670D01*
X35049860Y46119522D01*
X34996819Y46139000D01*
X36391160Y46139000D01*
X37074553Y45455607D01*
X37066000Y45412609D01*
X37066000Y45087391D01*
X37129447Y44768421D01*
X37253903Y44467958D01*
X37434585Y44197549D01*
X37664549Y43967585D01*
X37934958Y43786903D01*
X38235421Y43662447D01*
X38554391Y43599000D01*
X38879609Y43599000D01*
X39198579Y43662447D01*
X39499042Y43786903D01*
X39769451Y43967585D01*
X39999415Y44197549D01*
X40180097Y44467958D01*
X40304553Y44768421D01*
X40368000Y45087391D01*
X40368000Y45375279D01*
X42847000Y45375279D01*
X42847000Y44954721D01*
X42929047Y44542244D01*
X43089988Y44153698D01*
X43323637Y43804017D01*
X43621017Y43506637D01*
X43970698Y43272988D01*
X44359244Y43112047D01*
X44771721Y43030000D01*
X45192279Y43030000D01*
X45604756Y43112047D01*
X45993302Y43272988D01*
X46342983Y43506637D01*
X46640363Y43804017D01*
X46874012Y44153698D01*
X47034953Y44542244D01*
X47117000Y44954721D01*
X47117000Y45375279D01*
X47034953Y45787756D01*
X46874012Y46176302D01*
X46640363Y46525983D01*
X46342983Y46823363D01*
X45993302Y47057012D01*
X45604756Y47217953D01*
X45192279Y47300000D01*
X44771721Y47300000D01*
X44359244Y47217953D01*
X43970698Y47057012D01*
X43621017Y46823363D01*
X43323637Y46525983D01*
X43089988Y46176302D01*
X42929047Y45787756D01*
X42847000Y45375279D01*
X40368000Y45375279D01*
X40368000Y45412609D01*
X40304553Y45731579D01*
X40180097Y46032042D01*
X39999415Y46302451D01*
X39769451Y46532415D01*
X39499042Y46713097D01*
X39198579Y46837553D01*
X38879609Y46901000D01*
X38554391Y46901000D01*
X38511393Y46892447D01*
X37565712Y47838128D01*
X37533896Y47876896D01*
X37379190Y48003860D01*
X37202687Y48098202D01*
X37011171Y48156298D01*
X36861902Y48171000D01*
X36812000Y48175915D01*
X36762098Y48171000D01*
X29151064Y48171000D01*
X28933972Y48388092D01*
X28673963Y48561824D01*
X28385057Y48681493D01*
X28078355Y48742500D01*
X27765645Y48742500D01*
X27458943Y48681493D01*
X27170037Y48561824D01*
X26910028Y48388092D01*
X26688908Y48166972D01*
X26515176Y47906963D01*
X26395507Y47618057D01*
X26334500Y47311355D01*
X25064500Y47311355D01*
X25003493Y47618057D01*
X24883824Y47906963D01*
X24710092Y48166972D01*
X24488972Y48388092D01*
X24228963Y48561824D01*
X23940057Y48681493D01*
X23633355Y48742500D01*
X23320645Y48742500D01*
X23013943Y48681493D01*
X22725037Y48561824D01*
X22465028Y48388092D01*
X22247936Y48171000D01*
X14001902Y48171000D01*
X13952000Y48175915D01*
X13902098Y48171000D01*
X13752829Y48156298D01*
X13561313Y48098202D01*
X13384810Y48003860D01*
X13230104Y47876896D01*
X13198292Y47838133D01*
X12252607Y46892447D01*
X12209609Y46901000D01*
X11884391Y46901000D01*
X11565421Y46837553D01*
X11264958Y46713097D01*
X10994549Y46532415D01*
X10764585Y46302451D01*
X10583903Y46032042D01*
X10459447Y45731579D01*
X10396000Y45412609D01*
X7109575Y45412609D01*
X7034953Y45787756D01*
X6874012Y46176302D01*
X6640363Y46525983D01*
X6342983Y46823363D01*
X5993302Y47057012D01*
X5604756Y47217953D01*
X5192279Y47300000D01*
X4771721Y47300000D01*
X4359244Y47217953D01*
X3970698Y47057012D01*
X3621017Y46823363D01*
X3323637Y46525983D01*
X3089988Y46176302D01*
X2929047Y45787756D01*
X2847000Y45375279D01*
X746314Y45375279D01*
X780578Y45759192D01*
X981705Y46494389D01*
X1309846Y47182351D01*
X1754628Y47801331D01*
X2301988Y48331761D01*
X2934639Y48756884D01*
X3632561Y49063251D01*
X4379183Y49242499D01*
X5026030Y49290000D01*
X44968382Y49290000D01*
X45759192Y49219422D01*
G04 #@! TA.AperFunction,Conductor*
D23*
G36*
X45759192Y49219422D02*
G01*
X46494389Y49018295D01*
X47182351Y48690154D01*
X47801331Y48245372D01*
X48331761Y47698012D01*
X48756884Y47065361D01*
X49063251Y46367439D01*
X49242499Y45620817D01*
X49290000Y44973970D01*
X49290001Y5031630D01*
X49219422Y4240807D01*
X49018295Y3505611D01*
X48690152Y2817645D01*
X48245374Y2198672D01*
X47698012Y1668239D01*
X47065362Y1243117D01*
X46367439Y936749D01*
X45620819Y757501D01*
X44973970Y710000D01*
X39460000Y710000D01*
X39460000Y5375279D01*
X42847000Y5375279D01*
X42847000Y4954721D01*
X42929047Y4542244D01*
X43089988Y4153698D01*
X43323637Y3804017D01*
X43621017Y3506637D01*
X43970698Y3272988D01*
X44359244Y3112047D01*
X44771721Y3030000D01*
X45192279Y3030000D01*
X45604756Y3112047D01*
X45993302Y3272988D01*
X46342983Y3506637D01*
X46640363Y3804017D01*
X46874012Y4153698D01*
X47034953Y4542244D01*
X47117000Y4954721D01*
X47117000Y5375279D01*
X47034953Y5787756D01*
X46874012Y6176302D01*
X46640363Y6525983D01*
X46342983Y6823363D01*
X45993302Y7057012D01*
X45604756Y7217953D01*
X45192279Y7300000D01*
X44771721Y7300000D01*
X44359244Y7217953D01*
X43970698Y7057012D01*
X43621017Y6823363D01*
X43323637Y6525983D01*
X43089988Y6176302D01*
X42929047Y5787756D01*
X42847000Y5375279D01*
X39460000Y5375279D01*
X39460000Y10465123D01*
X39463435Y10500000D01*
X39449727Y10639184D01*
X39409128Y10773020D01*
X39343200Y10896363D01*
X39254475Y11004475D01*
X39247743Y11010000D01*
X44196025Y11010000D01*
X44219870Y10767898D01*
X44290489Y10535099D01*
X44405167Y10320551D01*
X44559498Y10132498D01*
X44747551Y9978167D01*
X44962099Y9863489D01*
X45194898Y9792870D01*
X45376335Y9775000D01*
X47297665Y9775000D01*
X47479102Y9792870D01*
X47711901Y9863489D01*
X47926449Y9978167D01*
X48114502Y10132498D01*
X48268833Y10320551D01*
X48383511Y10535099D01*
X48454130Y10767898D01*
X48477975Y11010000D01*
X48454130Y11252102D01*
X48383511Y11484901D01*
X48268833Y11699449D01*
X48114502Y11887502D01*
X47926449Y12041833D01*
X47711901Y12156511D01*
X47479102Y12227130D01*
X47297665Y12245000D01*
X45376335Y12245000D01*
X45194898Y12227130D01*
X44962099Y12156511D01*
X44747551Y12041833D01*
X44559498Y11887502D01*
X44405167Y11699449D01*
X44290489Y11484901D01*
X44219870Y11252102D01*
X44196025Y11010000D01*
X39247743Y11010000D01*
X39146363Y11093200D01*
X39023020Y11159128D01*
X38889184Y11199727D01*
X38750000Y11213435D01*
X38715123Y11210000D01*
X38619780Y11210000D01*
X38903745Y11327623D01*
X39187883Y11517477D01*
X39429523Y11759117D01*
X39619377Y12043255D01*
X39750152Y12358972D01*
X39816820Y12694135D01*
X39816820Y13035865D01*
X39750152Y13371028D01*
X39619377Y13686745D01*
X39429523Y13970883D01*
X39206136Y14194270D01*
X39364415Y14352549D01*
X39388771Y14389000D01*
X40953098Y14389000D01*
X41003000Y14384085D01*
X41052902Y14389000D01*
X41202171Y14403702D01*
X41393687Y14461798D01*
X41570190Y14556140D01*
X41724896Y14683104D01*
X41756712Y14721872D01*
X43321221Y16286380D01*
X45074872Y16286380D01*
X45092413Y16260128D01*
X45320148Y16032393D01*
X45587937Y15853462D01*
X45689361Y15811451D01*
X45562537Y15758918D01*
X45294748Y15579987D01*
X45067013Y15352252D01*
X44888082Y15084463D01*
X44764832Y14786912D01*
X44702000Y14471033D01*
X44702000Y14148967D01*
X44764832Y13833088D01*
X44888082Y13535537D01*
X45067013Y13267748D01*
X45294748Y13040013D01*
X45562537Y12861082D01*
X45860088Y12737832D01*
X46175967Y12675000D01*
X46498033Y12675000D01*
X46813912Y12737832D01*
X47111463Y12861082D01*
X47379252Y13040013D01*
X47606987Y13267748D01*
X47785918Y13535537D01*
X47909168Y13833088D01*
X47972000Y14148967D01*
X47972000Y14471033D01*
X47909168Y14786912D01*
X47785918Y15084463D01*
X47606987Y15352252D01*
X47379252Y15579987D01*
X47111463Y15758918D01*
X47010039Y15800929D01*
X47136863Y15853462D01*
X47404652Y16032393D01*
X47632387Y16260128D01*
X47811318Y16527917D01*
X47934568Y16825468D01*
X47997400Y17141347D01*
X47997400Y17463413D01*
X47934568Y17779292D01*
X47811318Y18076843D01*
X47632387Y18344632D01*
X47404652Y18572367D01*
X47136863Y18751298D01*
X46991642Y18811451D01*
X47111463Y18861082D01*
X47379252Y19040013D01*
X47606987Y19267748D01*
X47785918Y19535537D01*
X47909168Y19833088D01*
X47972000Y20148967D01*
X47972000Y20471033D01*
X47909168Y20786912D01*
X47785918Y21084463D01*
X47606987Y21352252D01*
X47379252Y21579987D01*
X47111463Y21758918D01*
X46813912Y21882168D01*
X46498033Y21945000D01*
X46175967Y21945000D01*
X46143219Y21938486D01*
X46039190Y22023860D01*
X45862687Y22118202D01*
X45671171Y22176298D01*
X45521902Y22191000D01*
X45472000Y22195915D01*
X45422098Y22191000D01*
X38452559Y22191000D01*
X38432553Y22291579D01*
X38308097Y22592042D01*
X38179636Y22784296D01*
X38215494Y22803463D01*
X38312185Y22882815D01*
X38391537Y22979506D01*
X38450502Y23089820D01*
X38486812Y23209518D01*
X38499072Y23334000D01*
X38499072Y23610000D01*
X44196025Y23610000D01*
X44219870Y23367898D01*
X44290489Y23135099D01*
X44405167Y22920551D01*
X44559498Y22732498D01*
X44747551Y22578167D01*
X44962099Y22463489D01*
X45194898Y22392870D01*
X45376335Y22375000D01*
X47297665Y22375000D01*
X47479102Y22392870D01*
X47711901Y22463489D01*
X47926449Y22578167D01*
X48114502Y22732498D01*
X48268833Y22920551D01*
X48383511Y23135099D01*
X48454130Y23367898D01*
X48477975Y23610000D01*
X48454130Y23852102D01*
X48383511Y24084901D01*
X48268833Y24299449D01*
X48114502Y24487502D01*
X47926449Y24641833D01*
X47711901Y24756511D01*
X47479102Y24827130D01*
X47297665Y24845000D01*
X45376335Y24845000D01*
X45194898Y24827130D01*
X44962099Y24756511D01*
X44747551Y24641833D01*
X44559498Y24487502D01*
X44405167Y24299449D01*
X44290489Y24084901D01*
X44219870Y23852102D01*
X44196025Y23610000D01*
X38499072Y23610000D01*
X38499072Y25366000D01*
X38486812Y25490482D01*
X38450502Y25610180D01*
X38391537Y25720494D01*
X38312185Y25817185D01*
X38215494Y25896537D01*
X38105180Y25955502D01*
X37985482Y25991812D01*
X37861000Y26004072D01*
X36627769Y26004072D01*
X35058712Y27573128D01*
X35026896Y27611896D01*
X34872190Y27738860D01*
X34695687Y27833202D01*
X34504171Y27891298D01*
X34354902Y27906000D01*
X34305000Y27910915D01*
X34255098Y27906000D01*
X33071771Y27906000D01*
X33047415Y27942451D01*
X32970866Y28019000D01*
X38098258Y28019000D01*
X38117551Y28003167D01*
X38332099Y27888489D01*
X38564898Y27817870D01*
X38746335Y27800000D01*
X40067665Y27800000D01*
X40249102Y27817870D01*
X40481901Y27888489D01*
X40696449Y28003167D01*
X40884502Y28157498D01*
X41038833Y28345551D01*
X41153511Y28560099D01*
X41224130Y28792898D01*
X41247975Y29035000D01*
X41224130Y29277102D01*
X41153511Y29509901D01*
X41038833Y29724449D01*
X40884502Y29912502D01*
X40716960Y30050000D01*
X41317665Y30050000D01*
X41499102Y30067870D01*
X41731901Y30138489D01*
X41946449Y30253167D01*
X42134502Y30407498D01*
X42288833Y30595551D01*
X42403511Y30810099D01*
X42474130Y31042898D01*
X42497975Y31285000D01*
X42474130Y31527102D01*
X42403511Y31759901D01*
X42288833Y31974449D01*
X42134502Y32162502D01*
X41946449Y32316833D01*
X41731901Y32431511D01*
X41499102Y32502130D01*
X41317665Y32520000D01*
X39996335Y32520000D01*
X39814898Y32502130D01*
X39582099Y32431511D01*
X39367551Y32316833D01*
X39179498Y32162502D01*
X39025167Y31974449D01*
X38910489Y31759901D01*
X38839870Y31527102D01*
X38816025Y31285000D01*
X38839870Y31042898D01*
X38910489Y30810099D01*
X39025167Y30595551D01*
X39179498Y30407498D01*
X39347040Y30270000D01*
X38746335Y30270000D01*
X38564898Y30252130D01*
X38332099Y30181511D01*
X38117551Y30066833D01*
X38098258Y30051000D01*
X31603841Y30051000D01*
X30270952Y31383888D01*
X30425092Y31538028D01*
X30598824Y31798037D01*
X30718493Y32086943D01*
X30779500Y32393645D01*
X30779500Y32706355D01*
X31414500Y32706355D01*
X31414500Y32393645D01*
X31475507Y32086943D01*
X31595176Y31798037D01*
X31768908Y31538028D01*
X31990028Y31316908D01*
X32250037Y31143176D01*
X32538943Y31023507D01*
X32845645Y30962500D01*
X33158355Y30962500D01*
X33465057Y31023507D01*
X33753963Y31143176D01*
X34013972Y31316908D01*
X34231064Y31534000D01*
X35597098Y31534000D01*
X35647000Y31529085D01*
X35696902Y31534000D01*
X35846171Y31548702D01*
X36037687Y31606798D01*
X36214190Y31701140D01*
X36368896Y31828104D01*
X36400712Y31866872D01*
X38191840Y33658000D01*
X46272000Y33658000D01*
X46272000Y33058000D01*
X46320507Y32819504D01*
X46414610Y32595054D01*
X46550693Y32393275D01*
X46723526Y32221922D01*
X46926467Y32087579D01*
X47151718Y31995409D01*
X47189391Y31991538D01*
X47380000Y32116269D01*
X47380000Y33658000D01*
X47634000Y33658000D01*
X47634000Y32116269D01*
X47824609Y31991538D01*
X47862282Y31995409D01*
X48087533Y32087579D01*
X48290474Y32221922D01*
X48463307Y32393275D01*
X48599390Y32595054D01*
X48693493Y32819504D01*
X48742000Y33058000D01*
X48742000Y33658000D01*
X47634000Y33658000D01*
X47380000Y33658000D01*
X46272000Y33658000D01*
X38191840Y33658000D01*
X39045840Y34512000D01*
X46272000Y34512000D01*
X46272000Y33912000D01*
X47380000Y33912000D01*
X47380000Y35453731D01*
X47634000Y35453731D01*
X47634000Y33912000D01*
X48742000Y33912000D01*
X48742000Y34512000D01*
X48693493Y34750496D01*
X48599390Y34974946D01*
X48463307Y35176725D01*
X48290474Y35348078D01*
X48087533Y35482421D01*
X47862282Y35574591D01*
X47824609Y35578462D01*
X47634000Y35453731D01*
X47380000Y35453731D01*
X47189391Y35578462D01*
X47151718Y35574591D01*
X46926467Y35482421D01*
X46723526Y35348078D01*
X46550693Y35176725D01*
X46414610Y34974946D01*
X46320507Y34750496D01*
X46272000Y34512000D01*
X39045840Y34512000D01*
X42098410Y37564569D01*
X42246335Y37550000D01*
X43567665Y37550000D01*
X43749102Y37567870D01*
X43981901Y37638489D01*
X44196449Y37753167D01*
X44384502Y37907498D01*
X44538833Y38095551D01*
X44653511Y38310099D01*
X44724130Y38542898D01*
X44747975Y38785000D01*
X44724130Y39027102D01*
X44653511Y39259901D01*
X44538833Y39474449D01*
X44384502Y39662502D01*
X44196449Y39816833D01*
X43981901Y39931511D01*
X43749102Y40002130D01*
X43567665Y40020000D01*
X42246335Y40020000D01*
X42064898Y40002130D01*
X41832099Y39931511D01*
X41617551Y39816833D01*
X41520250Y39736980D01*
X41491313Y39728202D01*
X41314810Y39633860D01*
X41160104Y39506896D01*
X41128292Y39468133D01*
X35226160Y33566000D01*
X34231064Y33566000D01*
X34013972Y33783092D01*
X33753963Y33956824D01*
X33465057Y34076493D01*
X33158355Y34137500D01*
X32845645Y34137500D01*
X32538943Y34076493D01*
X32250037Y33956824D01*
X31990028Y33783092D01*
X31768908Y33561972D01*
X31595176Y33301963D01*
X31475507Y33013057D01*
X31414500Y32706355D01*
X30779500Y32706355D01*
X30718493Y33013057D01*
X30598824Y33301963D01*
X30425092Y33561972D01*
X30203972Y33783092D01*
X29943963Y33956824D01*
X29760421Y34032850D01*
X29759190Y34033860D01*
X29582687Y34128202D01*
X29391171Y34186298D01*
X29192000Y34205915D01*
X28992830Y34186298D01*
X28801314Y34128202D01*
X28624811Y34033860D01*
X28623581Y34032851D01*
X28440037Y33956824D01*
X28180028Y33783092D01*
X27958908Y33561972D01*
X27785176Y33301963D01*
X27665507Y33013057D01*
X27604500Y32706355D01*
X27604500Y32393645D01*
X27665507Y32086943D01*
X27785176Y31798037D01*
X27958908Y31538028D01*
X28176001Y31320935D01*
X28176001Y31075911D01*
X28171085Y31026000D01*
X28190702Y30826830D01*
X28233695Y30685105D01*
X28248799Y30635313D01*
X28343141Y30458810D01*
X28470105Y30304104D01*
X28508868Y30272292D01*
X30429292Y28351867D01*
X30461104Y28313104D01*
X30615810Y28186140D01*
X30687797Y28147663D01*
X30482585Y27942451D01*
X30301903Y27672042D01*
X30177447Y27371579D01*
X30114000Y27052609D01*
X30114000Y26727391D01*
X30177447Y26408421D01*
X30301903Y26107958D01*
X30482585Y25837549D01*
X30712549Y25607585D01*
X30982958Y25426903D01*
X31283421Y25302447D01*
X31602391Y25239000D01*
X31927609Y25239000D01*
X32246579Y25302447D01*
X32547042Y25426903D01*
X32817451Y25607585D01*
X33047415Y25837549D01*
X33071771Y25874000D01*
X33884160Y25874000D01*
X35190928Y24567231D01*
X35190928Y23334000D01*
X35203188Y23209518D01*
X35239498Y23089820D01*
X35298463Y22979506D01*
X35377815Y22882815D01*
X35474506Y22803463D01*
X35510364Y22784296D01*
X35381903Y22592042D01*
X35257447Y22291579D01*
X35237441Y22191000D01*
X17160000Y22191000D01*
X17160000Y27249940D01*
X17550990Y27249940D01*
X17567672Y27170004D01*
X17677159Y26912354D01*
X17834808Y26681014D01*
X18034560Y26484875D01*
X18268738Y26331474D01*
X18528344Y26226707D01*
X18803400Y26174600D01*
X19159000Y26174600D01*
X19159000Y27470000D01*
X19413000Y27470000D01*
X19413000Y26174600D01*
X19768600Y26174600D01*
X20043656Y26226707D01*
X20303262Y26331474D01*
X20537440Y26484875D01*
X20737192Y26681014D01*
X20894841Y26912354D01*
X21004328Y27170004D01*
X21021010Y27249940D01*
X20898852Y27470000D01*
X19413000Y27470000D01*
X19159000Y27470000D01*
X17673148Y27470000D01*
X17550990Y27249940D01*
X17160000Y27249940D01*
X17160000Y32819160D01*
X17661717Y33320877D01*
X17609916Y33223963D01*
X17528581Y32955839D01*
X17501118Y32677000D01*
X17528581Y32398161D01*
X17609916Y32130037D01*
X17741995Y31882933D01*
X17919745Y31666345D01*
X18136333Y31488595D01*
X18288987Y31407000D01*
X18136333Y31325405D01*
X17919745Y31147655D01*
X17741995Y30931067D01*
X17609916Y30683963D01*
X17528581Y30415839D01*
X17501118Y30137000D01*
X17528581Y29858161D01*
X17609916Y29590037D01*
X17741995Y29342933D01*
X17919745Y29126345D01*
X18136333Y28948595D01*
X18285045Y28869107D01*
X18268738Y28862526D01*
X18034560Y28709125D01*
X17834808Y28512986D01*
X17677159Y28281646D01*
X17567672Y28023996D01*
X17550990Y27944060D01*
X17673148Y27724000D01*
X19159000Y27724000D01*
X19159000Y27744000D01*
X19413000Y27744000D01*
X19413000Y27724000D01*
X20898852Y27724000D01*
X21021010Y27944060D01*
X21004328Y28023996D01*
X20894841Y28281646D01*
X20737192Y28512986D01*
X20537440Y28709125D01*
X20303262Y28862526D01*
X20286955Y28869107D01*
X20435667Y28948595D01*
X20645742Y29121000D01*
X21141098Y29121000D01*
X21191000Y29116085D01*
X21240902Y29121000D01*
X21390171Y29135702D01*
X21581687Y29193798D01*
X21758190Y29288140D01*
X21912896Y29415104D01*
X21944712Y29453872D01*
X22255393Y29764553D01*
X22298391Y29756000D01*
X22623609Y29756000D01*
X22942579Y29819447D01*
X23243042Y29943903D01*
X23513451Y30124585D01*
X23743415Y30354549D01*
X23767771Y30391000D01*
X24329229Y30391000D01*
X24353585Y30354549D01*
X24583549Y30124585D01*
X24853958Y29943903D01*
X25154421Y29819447D01*
X25473391Y29756000D01*
X25798609Y29756000D01*
X26117579Y29819447D01*
X26418042Y29943903D01*
X26688451Y30124585D01*
X26918415Y30354549D01*
X27099097Y30624958D01*
X27223553Y30925421D01*
X27287000Y31244391D01*
X27287000Y31569609D01*
X27223553Y31888579D01*
X27099097Y32189042D01*
X26918415Y32459451D01*
X26688451Y32689415D01*
X26418042Y32870097D01*
X26117579Y32994553D01*
X25798609Y33058000D01*
X25473391Y33058000D01*
X25154421Y32994553D01*
X24853958Y32870097D01*
X24583549Y32689415D01*
X24353585Y32459451D01*
X24329229Y32423000D01*
X23767771Y32423000D01*
X23743415Y32459451D01*
X23513451Y32689415D01*
X23243042Y32870097D01*
X22942579Y32994553D01*
X22623609Y33058000D01*
X22298391Y33058000D01*
X21979421Y32994553D01*
X21678958Y32870097D01*
X21408549Y32689415D01*
X21178585Y32459451D01*
X20997903Y32189042D01*
X20873447Y31888579D01*
X20810000Y31569609D01*
X20810000Y31244391D01*
X20818553Y31201393D01*
X20770160Y31153000D01*
X20645742Y31153000D01*
X20435667Y31325405D01*
X20283013Y31407000D01*
X20435667Y31488595D01*
X20652255Y31666345D01*
X20830005Y31882933D01*
X20962084Y32130037D01*
X21043419Y32398161D01*
X21070882Y32677000D01*
X21043419Y32955839D01*
X20962084Y33223963D01*
X20830005Y33471067D01*
X20652255Y33687655D01*
X20435667Y33865405D01*
X20283013Y33947000D01*
X20435667Y34028595D01*
X20652255Y34206345D01*
X20830005Y34422933D01*
X20962084Y34670037D01*
X21043419Y34938161D01*
X21070882Y35217000D01*
X21043419Y35495839D01*
X20962084Y35763963D01*
X20830005Y36011067D01*
X20752095Y36106000D01*
X28634098Y36106000D01*
X28684000Y36101085D01*
X28725033Y36105127D01*
X28728943Y36103507D01*
X29035645Y36042500D01*
X29348355Y36042500D01*
X29655057Y36103507D01*
X29943963Y36223176D01*
X30203972Y36396908D01*
X30425092Y36618028D01*
X30598824Y36878037D01*
X30718493Y37166943D01*
X30779500Y37473645D01*
X30779500Y37786355D01*
X30718493Y38093057D01*
X30598824Y38381963D01*
X30425092Y38641972D01*
X30203972Y38863092D01*
X30148735Y38900000D01*
X30930160Y38900000D01*
X31552127Y38278033D01*
X31475507Y38093057D01*
X31414500Y37786355D01*
X31414500Y37473645D01*
X31475507Y37166943D01*
X31595176Y36878037D01*
X31768908Y36618028D01*
X31990028Y36396908D01*
X32250037Y36223176D01*
X32538943Y36103507D01*
X32845645Y36042500D01*
X33158355Y36042500D01*
X33465057Y36103507D01*
X33753963Y36223176D01*
X34013972Y36396908D01*
X34235092Y36618028D01*
X34408824Y36878037D01*
X34528493Y37166943D01*
X34589500Y37473645D01*
X34589500Y37786355D01*
X34528493Y38093057D01*
X34408824Y38381963D01*
X34235092Y38641972D01*
X34013972Y38863092D01*
X33890393Y38945665D01*
X34672000Y38945665D01*
X34672000Y37624336D01*
X34689870Y37442899D01*
X34760489Y37210100D01*
X34875167Y36995552D01*
X35029498Y36807498D01*
X35217551Y36653167D01*
X35432099Y36538489D01*
X35664898Y36467870D01*
X35907000Y36444025D01*
X36149101Y36467870D01*
X36381900Y36538489D01*
X36596448Y36653167D01*
X36784502Y36807498D01*
X36938833Y36995551D01*
X37053511Y37210099D01*
X37124130Y37442898D01*
X37142000Y37624335D01*
X37142000Y38945665D01*
X37124130Y39127102D01*
X37053511Y39359901D01*
X36938833Y39574449D01*
X36784502Y39762502D01*
X36596449Y39916833D01*
X36381901Y40031511D01*
X36149102Y40102130D01*
X35907000Y40125975D01*
X35664899Y40102130D01*
X35432100Y40031511D01*
X35217552Y39916833D01*
X35029499Y39762502D01*
X34875168Y39574449D01*
X34760489Y39359901D01*
X34689870Y39127102D01*
X34672000Y38945665D01*
X33890393Y38945665D01*
X33753963Y39036824D01*
X33605537Y39098304D01*
X32104712Y40599128D01*
X32072896Y40637896D01*
X31918190Y40764860D01*
X31741687Y40859202D01*
X31550171Y40917298D01*
X31400902Y40932000D01*
X31351000Y40936915D01*
X31301098Y40932000D01*
X29024064Y40932000D01*
X29155092Y41063028D01*
X29328824Y41323037D01*
X29448493Y41611943D01*
X29509500Y41918645D01*
X29509500Y42231355D01*
X29448493Y42538057D01*
X29328824Y42826963D01*
X29155092Y43086972D01*
X28933972Y43308092D01*
X28673963Y43481824D01*
X28385057Y43601493D01*
X28078355Y43662500D01*
X27765645Y43662500D01*
X27458943Y43601493D01*
X27170037Y43481824D01*
X26910028Y43308092D01*
X26692936Y43091000D01*
X26066902Y43091000D01*
X26017000Y43095915D01*
X25817829Y43076298D01*
X25626312Y43018202D01*
X25564832Y42985340D01*
X25449810Y42923860D01*
X25295104Y42796896D01*
X25263292Y42758133D01*
X25010084Y42504924D01*
X25003493Y42538057D01*
X24883824Y42826963D01*
X24710092Y43086972D01*
X24488972Y43308092D01*
X24228963Y43481824D01*
X23940057Y43601493D01*
X23633355Y43662500D01*
X23320645Y43662500D01*
X23013943Y43601493D01*
X22725037Y43481824D01*
X22465028Y43308092D01*
X22247936Y43091000D01*
X10445902Y43091000D01*
X10396000Y43095915D01*
X10346098Y43091000D01*
X10196829Y43076298D01*
X10005313Y43018202D01*
X9828810Y42923860D01*
X9674104Y42796896D01*
X9642292Y42758133D01*
X7807872Y40923712D01*
X7769104Y40891896D01*
X7642140Y40737190D01*
X7547798Y40560686D01*
X7489702Y40369171D01*
X7489702Y40369170D01*
X7487006Y40341793D01*
X7438549Y40309415D01*
X7208585Y40079451D01*
X7027903Y39809042D01*
X6903500Y39508707D01*
X6779097Y39809042D01*
X6598415Y40079451D01*
X6368451Y40309415D01*
X6098042Y40490097D01*
X5797579Y40614553D01*
X5478609Y40678000D01*
X5153391Y40678000D01*
X4834421Y40614553D01*
X4533958Y40490097D01*
X4263549Y40309415D01*
X4033585Y40079451D01*
X3852903Y39809042D01*
X3728447Y39508579D01*
X3665000Y39189609D01*
X3665000Y38864391D01*
X3728447Y38545421D01*
X3852903Y38244958D01*
X4033585Y37974549D01*
X4263549Y37744585D01*
X4300001Y37720229D01*
X4300001Y37044911D01*
X4295085Y36995000D01*
X4314702Y36795830D01*
X4365401Y36628702D01*
X4372799Y36604313D01*
X4467141Y36427810D01*
X4594105Y36273104D01*
X4632868Y36241292D01*
X6340292Y34533867D01*
X6372104Y34495104D01*
X6526810Y34368140D01*
X6703311Y34273799D01*
X6703313Y34273798D01*
X6894829Y34215702D01*
X7094000Y34196085D01*
X7143902Y34201000D01*
X9928772Y34201000D01*
X9933498Y34185420D01*
X9992463Y34075106D01*
X10071815Y33978415D01*
X10168506Y33899063D01*
X10278820Y33840098D01*
X10398518Y33803788D01*
X10436674Y33800030D01*
X10306258Y33693000D01*
X9810893Y33693000D01*
X9760999Y33697914D01*
X9711105Y33693000D01*
X9711098Y33693000D01*
X9561829Y33678298D01*
X9370313Y33620202D01*
X9193810Y33525860D01*
X9039104Y33398896D01*
X9007292Y33360133D01*
X8696607Y33049447D01*
X8653609Y33058000D01*
X8328391Y33058000D01*
X8009421Y32994553D01*
X7708958Y32870097D01*
X7438549Y32689415D01*
X7208585Y32459451D01*
X7184229Y32423000D01*
X6622771Y32423000D01*
X6598415Y32459451D01*
X6368451Y32689415D01*
X6098042Y32870097D01*
X5797579Y32994553D01*
X5478609Y33058000D01*
X5153391Y33058000D01*
X4834421Y32994553D01*
X4533958Y32870097D01*
X4263549Y32689415D01*
X4033585Y32459451D01*
X3852903Y32189042D01*
X3728447Y31888579D01*
X3665000Y31569609D01*
X3665000Y31244391D01*
X3728447Y30925421D01*
X3852903Y30624958D01*
X4033585Y30354549D01*
X4263549Y30124585D01*
X4533958Y29943903D01*
X4834421Y29819447D01*
X5153391Y29756000D01*
X5478609Y29756000D01*
X5797579Y29819447D01*
X6098042Y29943903D01*
X6368451Y30124585D01*
X6598415Y30354549D01*
X6622771Y30391000D01*
X7184229Y30391000D01*
X7208585Y30354549D01*
X7438549Y30124585D01*
X7708958Y29943903D01*
X8009421Y29819447D01*
X8328391Y29756000D01*
X8653609Y29756000D01*
X8972579Y29819447D01*
X9273042Y29943903D01*
X9543451Y30124585D01*
X9773415Y30354549D01*
X9954097Y30624958D01*
X10078553Y30925421D01*
X10142000Y31244391D01*
X10142000Y31569609D01*
X10133447Y31612607D01*
X10181841Y31661000D01*
X10306258Y31661000D01*
X10516333Y31488595D01*
X10665045Y31409107D01*
X10648738Y31402526D01*
X10414560Y31249125D01*
X10214808Y31052986D01*
X10057159Y30821646D01*
X9947672Y30563996D01*
X9930990Y30484060D01*
X10053148Y30264000D01*
X11539000Y30264000D01*
X11539000Y30284000D01*
X11793000Y30284000D01*
X11793000Y30264000D01*
X13278852Y30264000D01*
X13401010Y30484060D01*
X13384328Y30563996D01*
X13274841Y30821646D01*
X13117192Y31052986D01*
X12917440Y31249125D01*
X12683262Y31402526D01*
X12666955Y31409107D01*
X12815667Y31488595D01*
X13032255Y31666345D01*
X13210005Y31882933D01*
X13342084Y32130037D01*
X13423419Y32398161D01*
X13450882Y32677000D01*
X13423419Y32955839D01*
X13342084Y33223963D01*
X13210005Y33471067D01*
X13032255Y33687655D01*
X12895326Y33800030D01*
X12933482Y33803788D01*
X13053180Y33840098D01*
X13163494Y33899063D01*
X13260185Y33978415D01*
X13339537Y34075106D01*
X13398502Y34185420D01*
X13403228Y34201000D01*
X15045098Y34201000D01*
X15095000Y34196085D01*
X15144902Y34201000D01*
X15294171Y34215702D01*
X15485687Y34273798D01*
X15662190Y34368140D01*
X15816896Y34495104D01*
X15848712Y34533872D01*
X17420841Y36106000D01*
X17628907Y36106000D01*
X17553810Y36065860D01*
X17399104Y35938896D01*
X17367294Y35900135D01*
X15460872Y33993712D01*
X15422104Y33961896D01*
X15295140Y33807190D01*
X15200798Y33630686D01*
X15168999Y33525859D01*
X15142702Y33439170D01*
X15123085Y33240000D01*
X15128000Y33190098D01*
X15128001Y22191000D01*
X13985009Y22191000D01*
X14132042Y22251903D01*
X14402451Y22432585D01*
X14632415Y22662549D01*
X14813097Y22932958D01*
X14937553Y23233421D01*
X15001000Y23552391D01*
X15001000Y23877609D01*
X14937553Y24196579D01*
X14813097Y24497042D01*
X14632415Y24767451D01*
X14402451Y24997415D01*
X14366000Y25021771D01*
X14366000Y25863098D01*
X14370915Y25913000D01*
X14351298Y26112171D01*
X14293202Y26303687D01*
X14198860Y26480190D01*
X14183166Y26499313D01*
X14071896Y26634896D01*
X14033133Y26666708D01*
X13413704Y27286136D01*
X13423419Y27318161D01*
X13450882Y27597000D01*
X13423419Y27875839D01*
X13342084Y28143963D01*
X13210005Y28391067D01*
X13032255Y28607655D01*
X12815667Y28785405D01*
X12666955Y28864893D01*
X12683262Y28871474D01*
X12917440Y29024875D01*
X13117192Y29221014D01*
X13274841Y29452354D01*
X13384328Y29710004D01*
X13401010Y29789940D01*
X13278852Y30010000D01*
X11793000Y30010000D01*
X11793000Y29990000D01*
X11539000Y29990000D01*
X11539000Y30010000D01*
X10053148Y30010000D01*
X9930990Y29789940D01*
X9947672Y29710004D01*
X10057159Y29452354D01*
X10214808Y29221014D01*
X10414560Y29024875D01*
X10648738Y28871474D01*
X10665045Y28864893D01*
X10516333Y28785405D01*
X10299745Y28607655D01*
X10121995Y28391067D01*
X9989916Y28143963D01*
X9908581Y27875839D01*
X9881118Y27597000D01*
X9908581Y27318161D01*
X9989916Y27050037D01*
X10121995Y26802933D01*
X10299745Y26586345D01*
X10516333Y26408595D01*
X10763437Y26276516D01*
X11031561Y26195181D01*
X11240525Y26174600D01*
X11651560Y26174600D01*
X12334001Y25492158D01*
X12334001Y25021771D01*
X12297549Y24997415D01*
X12067585Y24767451D01*
X11886903Y24497042D01*
X11762447Y24196579D01*
X11740530Y24086394D01*
X11729553Y24141579D01*
X11605097Y24442042D01*
X11424415Y24712451D01*
X11194451Y24942415D01*
X10924042Y25123097D01*
X10623579Y25247553D01*
X10304609Y25311000D01*
X9979391Y25311000D01*
X9660421Y25247553D01*
X9359958Y25123097D01*
X9089549Y24942415D01*
X8859585Y24712451D01*
X8835229Y24676000D01*
X4603902Y24676000D01*
X4554000Y24680915D01*
X4504098Y24676000D01*
X4354829Y24661298D01*
X4163313Y24603202D01*
X3986810Y24508860D01*
X3832104Y24381896D01*
X3800292Y24343133D01*
X3442000Y23984840D01*
X3442000Y39063857D01*
X710000Y39063857D01*
X710000Y44968382D01*
X746314Y45375279D01*
X2847000Y45375279D01*
X2847000Y44954721D01*
X2929047Y44542244D01*
X3089988Y44153698D01*
X3323637Y43804017D01*
X3621017Y43506637D01*
X3970698Y43272988D01*
X4359244Y43112047D01*
X4771721Y43030000D01*
X5192279Y43030000D01*
X5604756Y43112047D01*
X5993302Y43272988D01*
X6342983Y43506637D01*
X6640363Y43804017D01*
X6874012Y44153698D01*
X7034953Y44542244D01*
X7117000Y44954721D01*
X7117000Y45375279D01*
X7109575Y45412609D01*
X10396000Y45412609D01*
X10396000Y45087391D01*
X10459447Y44768421D01*
X10583903Y44467958D01*
X10764585Y44197549D01*
X10994549Y43967585D01*
X11264958Y43786903D01*
X11565421Y43662447D01*
X11884391Y43599000D01*
X12209609Y43599000D01*
X12528579Y43662447D01*
X12829042Y43786903D01*
X13099451Y43967585D01*
X13235043Y44103177D01*
X16159782Y44103177D01*
X16257478Y43837140D01*
X16549821Y43694652D01*
X16864344Y43611936D01*
X17188962Y43592169D01*
X17511198Y43636112D01*
X17818670Y43742076D01*
X17996522Y43837140D01*
X18094218Y44103177D01*
X32669782Y44103177D01*
X32767478Y43837140D01*
X33059821Y43694652D01*
X33374344Y43611936D01*
X33698962Y43592169D01*
X34021198Y43636112D01*
X34328670Y43742076D01*
X34506522Y43837140D01*
X34604218Y44103177D01*
X33637000Y45070395D01*
X32669782Y44103177D01*
X18094218Y44103177D01*
X17127000Y45070395D01*
X16159782Y44103177D01*
X13235043Y44103177D01*
X13329415Y44197549D01*
X13510097Y44467958D01*
X13634553Y44768421D01*
X13698000Y45087391D01*
X13698000Y45412609D01*
X13689447Y45455607D01*
X14372841Y46139000D01*
X15767181Y46139000D01*
X15714140Y46119522D01*
X15571652Y45827179D01*
X15488936Y45512656D01*
X15469169Y45188038D01*
X15513112Y44865802D01*
X15619076Y44558330D01*
X15714140Y44380478D01*
X15980177Y44282782D01*
X16947395Y45250000D01*
X16933253Y45264142D01*
X17112858Y45443747D01*
X17127000Y45429605D01*
X17141143Y45443747D01*
X17320748Y45264142D01*
X17306605Y45250000D01*
X18273823Y44282782D01*
X18539860Y44380478D01*
X18682348Y44672821D01*
X18765064Y44987344D01*
X18784831Y45311962D01*
X18740888Y45634198D01*
X18634924Y45941670D01*
X18539860Y46119522D01*
X18486819Y46139000D01*
X22247936Y46139000D01*
X22465028Y45921908D01*
X22725037Y45748176D01*
X23013943Y45628507D01*
X23320645Y45567500D01*
X23633355Y45567500D01*
X23940057Y45628507D01*
X24228963Y45748176D01*
X24488972Y45921908D01*
X24710092Y46143028D01*
X24883824Y46403037D01*
X25003493Y46691943D01*
X25064500Y46998645D01*
X25064500Y47311355D01*
X26334500Y47311355D01*
X26334500Y46998645D01*
X26395507Y46691943D01*
X26515176Y46403037D01*
X26688908Y46143028D01*
X26910028Y45921908D01*
X27170037Y45748176D01*
X27458943Y45628507D01*
X27765645Y45567500D01*
X28078355Y45567500D01*
X28385057Y45628507D01*
X28673963Y45748176D01*
X28933972Y45921908D01*
X29151064Y46139000D01*
X32277181Y46139000D01*
X32224140Y46119522D01*
X32081652Y45827179D01*
X31998936Y45512656D01*
X31979169Y45188038D01*
X32023112Y44865802D01*
X32129076Y44558330D01*
X32224140Y44380478D01*
X32490177Y44282782D01*
X33457395Y45250000D01*
X33443253Y45264142D01*
X33622858Y45443747D01*
X33637000Y45429605D01*
X33651143Y45443747D01*
X33830748Y45264142D01*
X33816605Y45250000D01*
X34783823Y44282782D01*
X35049860Y44380478D01*
X35192348Y44672821D01*
X35275064Y44987344D01*
X35294831Y45311962D01*
X35250888Y45634198D01*
X35144924Y45941670D01*
X35049860Y46119522D01*
X34996819Y46139000D01*
X36391160Y46139000D01*
X37074553Y45455607D01*
X37066000Y45412609D01*
X37066000Y45087391D01*
X37129447Y44768421D01*
X37253903Y44467958D01*
X37434585Y44197549D01*
X37664549Y43967585D01*
X37934958Y43786903D01*
X38235421Y43662447D01*
X38554391Y43599000D01*
X38879609Y43599000D01*
X39198579Y43662447D01*
X39499042Y43786903D01*
X39769451Y43967585D01*
X39999415Y44197549D01*
X40180097Y44467958D01*
X40304553Y44768421D01*
X40368000Y45087391D01*
X40368000Y45375279D01*
X42847000Y45375279D01*
X42847000Y44954721D01*
X42929047Y44542244D01*
X43089988Y44153698D01*
X43323637Y43804017D01*
X43621017Y43506637D01*
X43970698Y43272988D01*
X44359244Y43112047D01*
X44771721Y43030000D01*
X45192279Y43030000D01*
X45604756Y43112047D01*
X45993302Y43272988D01*
X46342983Y43506637D01*
X46640363Y43804017D01*
X46874012Y44153698D01*
X47034953Y44542244D01*
X47117000Y44954721D01*
X47117000Y45375279D01*
X47034953Y45787756D01*
X46874012Y46176302D01*
X46640363Y46525983D01*
X46342983Y46823363D01*
X45993302Y47057012D01*
X45604756Y47217953D01*
X45192279Y47300000D01*
X44771721Y47300000D01*
X44359244Y47217953D01*
X43970698Y47057012D01*
X43621017Y46823363D01*
X43323637Y46525983D01*
X43089988Y46176302D01*
X42929047Y45787756D01*
X42847000Y45375279D01*
X40368000Y45375279D01*
X40368000Y45412609D01*
X40304553Y45731579D01*
X40180097Y46032042D01*
X39999415Y46302451D01*
X39769451Y46532415D01*
X39499042Y46713097D01*
X39198579Y46837553D01*
X38879609Y46901000D01*
X38554391Y46901000D01*
X38511393Y46892447D01*
X37565712Y47838128D01*
X37533896Y47876896D01*
X37379190Y48003860D01*
X37202687Y48098202D01*
X37011171Y48156298D01*
X36861902Y48171000D01*
X36812000Y48175915D01*
X36762098Y48171000D01*
X29151064Y48171000D01*
X28933972Y48388092D01*
X28673963Y48561824D01*
X28385057Y48681493D01*
X28078355Y48742500D01*
X27765645Y48742500D01*
X27458943Y48681493D01*
X27170037Y48561824D01*
X26910028Y48388092D01*
X26688908Y48166972D01*
X26515176Y47906963D01*
X26395507Y47618057D01*
X26334500Y47311355D01*
X25064500Y47311355D01*
X25003493Y47618057D01*
X24883824Y47906963D01*
X24710092Y48166972D01*
X24488972Y48388092D01*
X24228963Y48561824D01*
X23940057Y48681493D01*
X23633355Y48742500D01*
X23320645Y48742500D01*
X23013943Y48681493D01*
X22725037Y48561824D01*
X22465028Y48388092D01*
X22247936Y48171000D01*
X14001902Y48171000D01*
X13952000Y48175915D01*
X13902098Y48171000D01*
X13752829Y48156298D01*
X13561313Y48098202D01*
X13384810Y48003860D01*
X13230104Y47876896D01*
X13198292Y47838133D01*
X12252607Y46892447D01*
X12209609Y46901000D01*
X11884391Y46901000D01*
X11565421Y46837553D01*
X11264958Y46713097D01*
X10994549Y46532415D01*
X10764585Y46302451D01*
X10583903Y46032042D01*
X10459447Y45731579D01*
X10396000Y45412609D01*
X7109575Y45412609D01*
X7034953Y45787756D01*
X6874012Y46176302D01*
X6640363Y46525983D01*
X6342983Y46823363D01*
X5993302Y47057012D01*
X5604756Y47217953D01*
X5192279Y47300000D01*
X4771721Y47300000D01*
X4359244Y47217953D01*
X3970698Y47057012D01*
X3621017Y46823363D01*
X3323637Y46525983D01*
X3089988Y46176302D01*
X2929047Y45787756D01*
X2847000Y45375279D01*
X746314Y45375279D01*
X780578Y45759192D01*
X981705Y46494389D01*
X1309846Y47182351D01*
X1754628Y47801331D01*
X2301988Y48331761D01*
X2934639Y48756884D01*
X3632561Y49063251D01*
X4379183Y49242499D01*
X5026030Y49290000D01*
X44968382Y49290000D01*
X45759192Y49219422D01*
G37*
G04 #@! TD.AperFunction*
D22*
X8859585Y22607549D02*
X9089549Y22377585D01*
X9359958Y22196903D01*
X9660421Y22072447D01*
X9766891Y22051269D01*
X11326292Y20491867D01*
X11358104Y20453104D01*
X11512810Y20326140D01*
X11602358Y20278276D01*
X11689312Y20231798D01*
X11880829Y20173702D01*
X12080000Y20154085D01*
X12129902Y20159000D01*
X16094098Y20159000D01*
X16144000Y20154085D01*
X16193902Y20159000D01*
X30373370Y20159000D01*
X30301903Y20052042D01*
X30177447Y19751579D01*
X30114000Y19432609D01*
X30114000Y19107391D01*
X30177447Y18788421D01*
X30236026Y18647000D01*
X14280429Y18647000D01*
X14280429Y17342004D01*
X14219522Y17507860D01*
X13927179Y17650348D01*
X13612656Y17733064D01*
X13288038Y17752831D01*
X12965802Y17708888D01*
X12658330Y17602924D01*
X12480478Y17507860D01*
X12382782Y17241823D01*
X13350000Y16274605D01*
X13364143Y16288747D01*
X13543748Y16109142D01*
X13529605Y16095000D01*
X13543748Y16080857D01*
X13364143Y15901252D01*
X13350000Y15915395D01*
X12382782Y14948177D01*
X12480478Y14682140D01*
X12772821Y14539652D01*
X13087344Y14456936D01*
X13411962Y14437169D01*
X13734198Y14481112D01*
X14041670Y14587076D01*
X14219522Y14682140D01*
X14280429Y14847996D01*
X14280429Y14827000D01*
X14756572Y14827000D01*
X14756572Y13246000D01*
X7638771Y13246000D01*
X7614415Y13282451D01*
X7384451Y13512415D01*
X7114042Y13693097D01*
X6813579Y13817553D01*
X6494609Y13881000D01*
X6169391Y13881000D01*
X5850421Y13817553D01*
X5549958Y13693097D01*
X5357704Y13564636D01*
X5338537Y13600494D01*
X5259185Y13697185D01*
X5162494Y13776537D01*
X5052180Y13835502D01*
X4932482Y13871812D01*
X4808000Y13884072D01*
X4077750Y13881000D01*
X3919000Y13722250D01*
X3919000Y12357000D01*
X3939000Y12357000D01*
X3939000Y12103000D01*
X3919000Y12103000D01*
X3919000Y10737750D01*
X4077750Y10579000D01*
X4808000Y10575928D01*
X4932482Y10588188D01*
X5052180Y10624498D01*
X5162494Y10683463D01*
X5259185Y10762815D01*
X5338537Y10859506D01*
X5357704Y10895364D01*
X5549958Y10766903D01*
X5850421Y10642447D01*
X6169391Y10579000D01*
X6494609Y10579000D01*
X6813579Y10642447D01*
X7114042Y10766903D01*
X7384451Y10947585D01*
X7614415Y11177549D01*
X7638771Y11214000D01*
X28231098Y11214000D01*
X28271710Y11210000D01*
X11534877Y11210000D01*
X11500000Y11213435D01*
X11465123Y11210000D01*
X11360816Y11199727D01*
X11226980Y11159128D01*
X11103637Y11093200D01*
X10995525Y11004475D01*
X10906800Y10896363D01*
X10840872Y10773020D01*
X10800273Y10639184D01*
X10786565Y10500000D01*
X10790001Y10465113D01*
X10790000Y710000D01*
X5031618Y710000D01*
X4240807Y780578D01*
X3505611Y981705D01*
X2817645Y1309848D01*
X2198672Y1754626D01*
X1668239Y2301988D01*
X1243117Y2934638D01*
X936749Y3632561D01*
X757501Y4379181D01*
X710000Y5026030D01*
X710000Y5375279D01*
X2847000Y5375279D01*
X2847000Y4954721D01*
X2929047Y4542244D01*
X3089988Y4153698D01*
X3323637Y3804017D01*
X3621017Y3506637D01*
X3970698Y3272988D01*
X4359244Y3112047D01*
X4771721Y3030000D01*
X5192279Y3030000D01*
X5604756Y3112047D01*
X5993302Y3272988D01*
X6342983Y3506637D01*
X6640363Y3804017D01*
X6874012Y4153698D01*
X7034953Y4542244D01*
X7117000Y4954721D01*
X7117000Y5375279D01*
X7034953Y5787756D01*
X6874012Y6176302D01*
X6640363Y6525983D01*
X6342983Y6823363D01*
X5993302Y7057012D01*
X5604756Y7217953D01*
X5192279Y7300000D01*
X4771721Y7300000D01*
X4359244Y7217953D01*
X3970698Y7057012D01*
X3621017Y6823363D01*
X3323637Y6525983D01*
X3089988Y6176302D01*
X2929047Y5787756D01*
X2847000Y5375279D01*
X710000Y5375279D01*
X710000Y11214000D01*
X2137928Y11214000D01*
X2150188Y11089518D01*
X2186498Y10969820D01*
X2245463Y10859506D01*
X2324815Y10762815D01*
X2421506Y10683463D01*
X2531820Y10624498D01*
X2651518Y10588188D01*
X2776000Y10575928D01*
X3506250Y10579000D01*
X3665000Y10737750D01*
X3665000Y12103000D01*
X2299750Y12103000D01*
X2141000Y11944250D01*
X2137928Y11214000D01*
X710000Y11214000D01*
X710000Y13246000D01*
X2137928Y13246000D01*
X2141000Y12515750D01*
X2299750Y12357000D01*
X3665000Y12357000D01*
X3665000Y13722250D01*
X3506250Y13881000D01*
X2776000Y13884072D01*
X2651518Y13871812D01*
X2531820Y13835502D01*
X2421506Y13776537D01*
X2324815Y13697185D01*
X2245463Y13600494D01*
X2186498Y13490180D01*
X2150188Y13370482D01*
X2137928Y13246000D01*
X710000Y13246000D01*
X710000Y14208143D01*
X3442000Y14208143D01*
X3442000Y14893177D01*
X9174782Y14893177D01*
X9272478Y14627140D01*
X9564821Y14484652D01*
X9879344Y14401936D01*
X10203962Y14382169D01*
X10526198Y14426112D01*
X10833670Y14532076D01*
X11011522Y14627140D01*
X11109218Y14893177D01*
X10142000Y15860395D01*
X9174782Y14893177D01*
X3442000Y14893177D01*
X3442000Y15978038D01*
X8484169Y15978038D01*
X8528112Y15655802D01*
X8634076Y15348330D01*
X8729140Y15170478D01*
X8995177Y15072782D01*
X9962395Y16040000D01*
X10321605Y16040000D01*
X11288823Y15072782D01*
X11554860Y15170478D01*
X11697348Y15462821D01*
X11751115Y15667268D01*
X11842076Y15403330D01*
X11937140Y15225478D01*
X12203177Y15127782D01*
X13170395Y16095000D01*
X12203177Y17062218D01*
X11937140Y16964522D01*
X11794652Y16672179D01*
X11740885Y16467732D01*
X11649924Y16731670D01*
X11554860Y16909522D01*
X11288823Y17007218D01*
X10321605Y16040000D01*
X9962395Y16040000D01*
X8995177Y17007218D01*
X8729140Y16909522D01*
X8586652Y16617179D01*
X8503936Y16302656D01*
X8484169Y15978038D01*
X3442000Y15978038D01*
X3442000Y17186823D01*
X9174782Y17186823D01*
X10142000Y16219605D01*
X11109218Y17186823D01*
X11011522Y17452860D01*
X10719179Y17595348D01*
X10404656Y17678064D01*
X10080038Y17697831D01*
X9757802Y17653888D01*
X9450330Y17547924D01*
X9272478Y17452860D01*
X9174782Y17186823D01*
X3442000Y17186823D01*
X3442000Y18830928D01*
X4808000Y18830928D01*
X4932482Y18843188D01*
X5052180Y18879498D01*
X5162494Y18938463D01*
X5259185Y19017815D01*
X5338537Y19114506D01*
X5397502Y19224820D01*
X5401532Y19238104D01*
X5462478Y19072140D01*
X5754821Y18929652D01*
X6069344Y18846936D01*
X6393962Y18827169D01*
X6716198Y18871112D01*
X7023670Y18977076D01*
X7201522Y19072140D01*
X7299218Y19338177D01*
X6332000Y20305395D01*
X6317858Y20291252D01*
X6138253Y20470857D01*
X6152395Y20485000D01*
X6511605Y20485000D01*
X7478823Y19517782D01*
X7744860Y19615478D01*
X7887348Y19907821D01*
X7970064Y20222344D01*
X7989831Y20546962D01*
X7945888Y20869198D01*
X7839924Y21176670D01*
X7744860Y21354522D01*
X7478823Y21452218D01*
X6511605Y20485000D01*
X6152395Y20485000D01*
X6138253Y20499142D01*
X6317858Y20678747D01*
X6332000Y20664605D01*
X7299218Y21631823D01*
X7201522Y21897860D01*
X6909179Y22040348D01*
X6594656Y22123064D01*
X6270038Y22142831D01*
X5947802Y22098888D01*
X5640330Y21992924D01*
X5462478Y21897860D01*
X5401532Y21731896D01*
X5397502Y21745180D01*
X5338537Y21855494D01*
X5259185Y21952185D01*
X5162494Y22031537D01*
X5052180Y22090502D01*
X4932482Y22126812D01*
X4808000Y22139072D01*
X4808000Y22477160D01*
X4974841Y22644000D01*
X8835229Y22644000D01*
X8859585Y22607549D01*
G04 #@! TA.AperFunction,Conductor*
D23*
G36*
X8859585Y22607549D02*
G01*
X9089549Y22377585D01*
X9359958Y22196903D01*
X9660421Y22072447D01*
X9766891Y22051269D01*
X11326292Y20491867D01*
X11358104Y20453104D01*
X11512810Y20326140D01*
X11602358Y20278276D01*
X11689312Y20231798D01*
X11880829Y20173702D01*
X12080000Y20154085D01*
X12129902Y20159000D01*
X16094098Y20159000D01*
X16144000Y20154085D01*
X16193902Y20159000D01*
X30373370Y20159000D01*
X30301903Y20052042D01*
X30177447Y19751579D01*
X30114000Y19432609D01*
X30114000Y19107391D01*
X30177447Y18788421D01*
X30236026Y18647000D01*
X14280429Y18647000D01*
X14280429Y17342004D01*
X14219522Y17507860D01*
X13927179Y17650348D01*
X13612656Y17733064D01*
X13288038Y17752831D01*
X12965802Y17708888D01*
X12658330Y17602924D01*
X12480478Y17507860D01*
X12382782Y17241823D01*
X13350000Y16274605D01*
X13364143Y16288747D01*
X13543748Y16109142D01*
X13529605Y16095000D01*
X13543748Y16080857D01*
X13364143Y15901252D01*
X13350000Y15915395D01*
X12382782Y14948177D01*
X12480478Y14682140D01*
X12772821Y14539652D01*
X13087344Y14456936D01*
X13411962Y14437169D01*
X13734198Y14481112D01*
X14041670Y14587076D01*
X14219522Y14682140D01*
X14280429Y14847996D01*
X14280429Y14827000D01*
X14756572Y14827000D01*
X14756572Y13246000D01*
X7638771Y13246000D01*
X7614415Y13282451D01*
X7384451Y13512415D01*
X7114042Y13693097D01*
X6813579Y13817553D01*
X6494609Y13881000D01*
X6169391Y13881000D01*
X5850421Y13817553D01*
X5549958Y13693097D01*
X5357704Y13564636D01*
X5338537Y13600494D01*
X5259185Y13697185D01*
X5162494Y13776537D01*
X5052180Y13835502D01*
X4932482Y13871812D01*
X4808000Y13884072D01*
X4077750Y13881000D01*
X3919000Y13722250D01*
X3919000Y12357000D01*
X3939000Y12357000D01*
X3939000Y12103000D01*
X3919000Y12103000D01*
X3919000Y10737750D01*
X4077750Y10579000D01*
X4808000Y10575928D01*
X4932482Y10588188D01*
X5052180Y10624498D01*
X5162494Y10683463D01*
X5259185Y10762815D01*
X5338537Y10859506D01*
X5357704Y10895364D01*
X5549958Y10766903D01*
X5850421Y10642447D01*
X6169391Y10579000D01*
X6494609Y10579000D01*
X6813579Y10642447D01*
X7114042Y10766903D01*
X7384451Y10947585D01*
X7614415Y11177549D01*
X7638771Y11214000D01*
X28231098Y11214000D01*
X28271710Y11210000D01*
X11534877Y11210000D01*
X11500000Y11213435D01*
X11465123Y11210000D01*
X11360816Y11199727D01*
X11226980Y11159128D01*
X11103637Y11093200D01*
X10995525Y11004475D01*
X10906800Y10896363D01*
X10840872Y10773020D01*
X10800273Y10639184D01*
X10786565Y10500000D01*
X10790001Y10465113D01*
X10790000Y710000D01*
X5031618Y710000D01*
X4240807Y780578D01*
X3505611Y981705D01*
X2817645Y1309848D01*
X2198672Y1754626D01*
X1668239Y2301988D01*
X1243117Y2934638D01*
X936749Y3632561D01*
X757501Y4379181D01*
X710000Y5026030D01*
X710000Y5375279D01*
X2847000Y5375279D01*
X2847000Y4954721D01*
X2929047Y4542244D01*
X3089988Y4153698D01*
X3323637Y3804017D01*
X3621017Y3506637D01*
X3970698Y3272988D01*
X4359244Y3112047D01*
X4771721Y3030000D01*
X5192279Y3030000D01*
X5604756Y3112047D01*
X5993302Y3272988D01*
X6342983Y3506637D01*
X6640363Y3804017D01*
X6874012Y4153698D01*
X7034953Y4542244D01*
X7117000Y4954721D01*
X7117000Y5375279D01*
X7034953Y5787756D01*
X6874012Y6176302D01*
X6640363Y6525983D01*
X6342983Y6823363D01*
X5993302Y7057012D01*
X5604756Y7217953D01*
X5192279Y7300000D01*
X4771721Y7300000D01*
X4359244Y7217953D01*
X3970698Y7057012D01*
X3621017Y6823363D01*
X3323637Y6525983D01*
X3089988Y6176302D01*
X2929047Y5787756D01*
X2847000Y5375279D01*
X710000Y5375279D01*
X710000Y11214000D01*
X2137928Y11214000D01*
X2150188Y11089518D01*
X2186498Y10969820D01*
X2245463Y10859506D01*
X2324815Y10762815D01*
X2421506Y10683463D01*
X2531820Y10624498D01*
X2651518Y10588188D01*
X2776000Y10575928D01*
X3506250Y10579000D01*
X3665000Y10737750D01*
X3665000Y12103000D01*
X2299750Y12103000D01*
X2141000Y11944250D01*
X2137928Y11214000D01*
X710000Y11214000D01*
X710000Y13246000D01*
X2137928Y13246000D01*
X2141000Y12515750D01*
X2299750Y12357000D01*
X3665000Y12357000D01*
X3665000Y13722250D01*
X3506250Y13881000D01*
X2776000Y13884072D01*
X2651518Y13871812D01*
X2531820Y13835502D01*
X2421506Y13776537D01*
X2324815Y13697185D01*
X2245463Y13600494D01*
X2186498Y13490180D01*
X2150188Y13370482D01*
X2137928Y13246000D01*
X710000Y13246000D01*
X710000Y14208143D01*
X3442000Y14208143D01*
X3442000Y14893177D01*
X9174782Y14893177D01*
X9272478Y14627140D01*
X9564821Y14484652D01*
X9879344Y14401936D01*
X10203962Y14382169D01*
X10526198Y14426112D01*
X10833670Y14532076D01*
X11011522Y14627140D01*
X11109218Y14893177D01*
X10142000Y15860395D01*
X9174782Y14893177D01*
X3442000Y14893177D01*
X3442000Y15978038D01*
X8484169Y15978038D01*
X8528112Y15655802D01*
X8634076Y15348330D01*
X8729140Y15170478D01*
X8995177Y15072782D01*
X9962395Y16040000D01*
X10321605Y16040000D01*
X11288823Y15072782D01*
X11554860Y15170478D01*
X11697348Y15462821D01*
X11751115Y15667268D01*
X11842076Y15403330D01*
X11937140Y15225478D01*
X12203177Y15127782D01*
X13170395Y16095000D01*
X12203177Y17062218D01*
X11937140Y16964522D01*
X11794652Y16672179D01*
X11740885Y16467732D01*
X11649924Y16731670D01*
X11554860Y16909522D01*
X11288823Y17007218D01*
X10321605Y16040000D01*
X9962395Y16040000D01*
X8995177Y17007218D01*
X8729140Y16909522D01*
X8586652Y16617179D01*
X8503936Y16302656D01*
X8484169Y15978038D01*
X3442000Y15978038D01*
X3442000Y17186823D01*
X9174782Y17186823D01*
X10142000Y16219605D01*
X11109218Y17186823D01*
X11011522Y17452860D01*
X10719179Y17595348D01*
X10404656Y17678064D01*
X10080038Y17697831D01*
X9757802Y17653888D01*
X9450330Y17547924D01*
X9272478Y17452860D01*
X9174782Y17186823D01*
X3442000Y17186823D01*
X3442000Y18830928D01*
X4808000Y18830928D01*
X4932482Y18843188D01*
X5052180Y18879498D01*
X5162494Y18938463D01*
X5259185Y19017815D01*
X5338537Y19114506D01*
X5397502Y19224820D01*
X5401532Y19238104D01*
X5462478Y19072140D01*
X5754821Y18929652D01*
X6069344Y18846936D01*
X6393962Y18827169D01*
X6716198Y18871112D01*
X7023670Y18977076D01*
X7201522Y19072140D01*
X7299218Y19338177D01*
X6332000Y20305395D01*
X6317858Y20291252D01*
X6138253Y20470857D01*
X6152395Y20485000D01*
X6511605Y20485000D01*
X7478823Y19517782D01*
X7744860Y19615478D01*
X7887348Y19907821D01*
X7970064Y20222344D01*
X7989831Y20546962D01*
X7945888Y20869198D01*
X7839924Y21176670D01*
X7744860Y21354522D01*
X7478823Y21452218D01*
X6511605Y20485000D01*
X6152395Y20485000D01*
X6138253Y20499142D01*
X6317858Y20678747D01*
X6332000Y20664605D01*
X7299218Y21631823D01*
X7201522Y21897860D01*
X6909179Y22040348D01*
X6594656Y22123064D01*
X6270038Y22142831D01*
X5947802Y22098888D01*
X5640330Y21992924D01*
X5462478Y21897860D01*
X5401532Y21731896D01*
X5397502Y21745180D01*
X5338537Y21855494D01*
X5259185Y21952185D01*
X5162494Y22031537D01*
X5052180Y22090502D01*
X4932482Y22126812D01*
X4808000Y22139072D01*
X4808000Y22477160D01*
X4974841Y22644000D01*
X8835229Y22644000D01*
X8859585Y22607549D01*
G37*
G04 #@! TD.AperFunction*
M02*
