G04 #@! TF.FileFunction,Soldermask,Bot*
%FSLAX46Y46*%
G04 Gerber Fmt 4.6, Leading zero omitted, Abs format (unit mm)*
G04 Created by KiCad (PCBNEW 4.0.4-stable) date 06/22/17 13:33:57*
%MOMM*%
%LPD*%
G01*
G04 APERTURE LIST*
%ADD10C,0.300000*%
%ADD11R,2.432000X2.432000*%
%ADD12C,2.432000*%
%ADD13C,6.400000*%
%ADD14C,2.305000*%
%ADD15C,2.599640*%
%ADD16R,2.686000X1.974800*%
%ADD17O,2.686000X1.974800*%
%ADD18C,2.400000*%
%ADD19O,3.400000X1.600000*%
G04 APERTURE END LIST*
D10*
D11*
X36845000Y24350000D03*
D12*
X36845000Y21810000D03*
D13*
X44982000Y45165000D03*
X4982000Y45165000D03*
X4982000Y5165000D03*
X44982000Y5165000D03*
D14*
X27922000Y42075000D03*
X27922000Y47155000D03*
X23477000Y42075000D03*
X23477000Y47155000D03*
X29192000Y32550000D03*
X29192000Y37630000D03*
X33002000Y32550000D03*
X33002000Y37630000D03*
D11*
X33002000Y15405000D03*
D12*
X38082000Y15405000D03*
D15*
X33002000Y12865000D03*
X38082000Y12865000D03*
D16*
X11666000Y35217000D03*
D17*
X11666000Y32677000D03*
X11666000Y30137000D03*
X11666000Y27597000D03*
X19286000Y27597000D03*
X19286000Y30137000D03*
X19286000Y32677000D03*
X19286000Y35217000D03*
D11*
X3792000Y20485000D03*
D12*
X6332000Y20485000D03*
D11*
X3792000Y12230000D03*
D12*
X6332000Y12230000D03*
D18*
X46362400Y17302380D03*
X46337000Y20310000D03*
X46337000Y14310000D03*
D19*
X46337000Y23610000D03*
X46337000Y11010000D03*
D12*
X10142000Y23660000D03*
X10142000Y16040000D03*
X13350000Y16095000D03*
X13350000Y23715000D03*
X22461000Y31407000D03*
X22461000Y39027000D03*
X8491000Y31407000D03*
X8491000Y39027000D03*
X25636000Y39027000D03*
X25636000Y31407000D03*
X5316000Y39027000D03*
X5316000Y31407000D03*
X31765000Y26890000D03*
X31765000Y19270000D03*
X33637000Y45250000D03*
X38717000Y45250000D03*
X12047000Y45250000D03*
X17127000Y45250000D03*
M02*
