G04 #@! TF.FileFunction,Copper,L2,Bot,Signal*
%FSLAX46Y46*%
G04 Gerber Fmt 4.6, Leading zero omitted, Abs format (unit mm)*
G04 Created by KiCad (PCBNEW 4.0.4-stable) date 06/22/17 13:33:57*
%MOMM*%
%LPD*%
G01*
G04 APERTURE LIST*
%ADD10C,0.300000*%
%ADD11R,2.032000X2.032000*%
%ADD12C,2.032000*%
%ADD13C,6.000000*%
%ADD14C,1.905000*%
%ADD15C,2.199640*%
%ADD16R,2.286000X1.574800*%
%ADD17O,2.286000X1.574800*%
%ADD18C,2.000000*%
%ADD19O,3.000000X1.200000*%
%ADD20O,2.400000X1.200000*%
%ADD21O,1.200000X2.400000*%
%ADD22C,0.762000*%
%ADD23C,0.254000*%
G04 APERTURE END LIST*
D10*
X27541570Y13892429D02*
X28398713Y13892429D01*
X27970141Y13892429D02*
X27970141Y15392429D01*
X28112998Y15178143D01*
X28255856Y15035286D01*
X28398713Y14963857D01*
X27041570Y15392429D02*
X26041570Y15392429D01*
X26684427Y13892429D01*
X24398714Y15463857D02*
X25684428Y13535286D01*
X23684427Y14749571D02*
X23827285Y14821000D01*
X23898713Y14892429D01*
X23970142Y15035286D01*
X23970142Y15106714D01*
X23898713Y15249571D01*
X23827285Y15321000D01*
X23684427Y15392429D01*
X23398713Y15392429D01*
X23255856Y15321000D01*
X23184427Y15249571D01*
X23112999Y15106714D01*
X23112999Y15035286D01*
X23184427Y14892429D01*
X23255856Y14821000D01*
X23398713Y14749571D01*
X23684427Y14749571D01*
X23827285Y14678143D01*
X23898713Y14606714D01*
X23970142Y14463857D01*
X23970142Y14178143D01*
X23898713Y14035286D01*
X23827285Y13963857D01*
X23684427Y13892429D01*
X23398713Y13892429D01*
X23255856Y13963857D01*
X23184427Y14035286D01*
X23112999Y14178143D01*
X23112999Y14463857D01*
X23184427Y14606714D01*
X23255856Y14678143D01*
X23398713Y14749571D01*
X21398714Y15463857D02*
X22684428Y13535286D01*
X20970142Y15249571D02*
X20898713Y15321000D01*
X20755856Y15392429D01*
X20398713Y15392429D01*
X20255856Y15321000D01*
X20184427Y15249571D01*
X20112999Y15106714D01*
X20112999Y14963857D01*
X20184427Y14749571D01*
X21041570Y13892429D01*
X20112999Y13892429D01*
X19184428Y15392429D02*
X19041571Y15392429D01*
X18898714Y15321000D01*
X18827285Y15249571D01*
X18755856Y15106714D01*
X18684428Y14821000D01*
X18684428Y14463857D01*
X18755856Y14178143D01*
X18827285Y14035286D01*
X18898714Y13963857D01*
X19041571Y13892429D01*
X19184428Y13892429D01*
X19327285Y13963857D01*
X19398714Y14035286D01*
X19470142Y14178143D01*
X19541571Y14463857D01*
X19541571Y14821000D01*
X19470142Y15106714D01*
X19398714Y15249571D01*
X19327285Y15321000D01*
X19184428Y15392429D01*
X17255857Y13892429D02*
X18113000Y13892429D01*
X17684428Y13892429D02*
X17684428Y15392429D01*
X17827285Y15178143D01*
X17970143Y15035286D01*
X18113000Y14963857D01*
X15970143Y15392429D02*
X16255857Y15392429D01*
X16398714Y15321000D01*
X16470143Y15249571D01*
X16613000Y15035286D01*
X16684429Y14749571D01*
X16684429Y14178143D01*
X16613000Y14035286D01*
X16541572Y13963857D01*
X16398714Y13892429D01*
X16113000Y13892429D01*
X15970143Y13963857D01*
X15898714Y14035286D01*
X15827286Y14178143D01*
X15827286Y14535286D01*
X15898714Y14678143D01*
X15970143Y14749571D01*
X16113000Y14821000D01*
X16398714Y14821000D01*
X16541572Y14749571D01*
X16613000Y14678143D01*
X16684429Y14535286D01*
X29565428Y16964143D02*
X29065428Y16964143D01*
X28851142Y16178429D02*
X29565428Y16178429D01*
X29565428Y17678429D01*
X28851142Y17678429D01*
X28208285Y16178429D02*
X28208285Y17678429D01*
X27708285Y16607000D01*
X27208285Y17678429D01*
X27208285Y16178429D01*
X25993999Y16964143D02*
X26493999Y16964143D01*
X26493999Y16178429D02*
X26493999Y17678429D01*
X25779713Y17678429D01*
X24065428Y16178429D02*
X24065428Y17678429D01*
X23708285Y17678429D01*
X23494000Y17607000D01*
X23351142Y17464143D01*
X23279714Y17321286D01*
X23208285Y17035571D01*
X23208285Y16821286D01*
X23279714Y16535571D01*
X23351142Y16392714D01*
X23494000Y16249857D01*
X23708285Y16178429D01*
X24065428Y16178429D01*
X21994000Y16249857D02*
X22136857Y16178429D01*
X22422571Y16178429D01*
X22565428Y16249857D01*
X22636857Y16392714D01*
X22636857Y16964143D01*
X22565428Y17107000D01*
X22422571Y17178429D01*
X22136857Y17178429D01*
X21994000Y17107000D01*
X21922571Y16964143D01*
X21922571Y16821286D01*
X22636857Y16678429D01*
X21494000Y17178429D02*
X20922571Y17178429D01*
X21279714Y17678429D02*
X21279714Y16392714D01*
X21208286Y16249857D01*
X21065428Y16178429D01*
X20922571Y16178429D01*
X19851143Y16249857D02*
X19994000Y16178429D01*
X20279714Y16178429D01*
X20422571Y16249857D01*
X20494000Y16392714D01*
X20494000Y16964143D01*
X20422571Y17107000D01*
X20279714Y17178429D01*
X19994000Y17178429D01*
X19851143Y17107000D01*
X19779714Y16964143D01*
X19779714Y16821286D01*
X20494000Y16678429D01*
X18494000Y16249857D02*
X18636857Y16178429D01*
X18922571Y16178429D01*
X19065429Y16249857D01*
X19136857Y16321286D01*
X19208286Y16464143D01*
X19208286Y16892714D01*
X19136857Y17035571D01*
X19065429Y17107000D01*
X18922571Y17178429D01*
X18636857Y17178429D01*
X18494000Y17107000D01*
X18065429Y17178429D02*
X17494000Y17178429D01*
X17851143Y17678429D02*
X17851143Y16392714D01*
X17779715Y16249857D01*
X17636857Y16178429D01*
X17494000Y16178429D01*
X16779714Y16178429D02*
X16922572Y16249857D01*
X16994000Y16321286D01*
X17065429Y16464143D01*
X17065429Y16892714D01*
X16994000Y17035571D01*
X16922572Y17107000D01*
X16779714Y17178429D01*
X16565429Y17178429D01*
X16422572Y17107000D01*
X16351143Y17035571D01*
X16279714Y16892714D01*
X16279714Y16464143D01*
X16351143Y16321286D01*
X16422572Y16249857D01*
X16565429Y16178429D01*
X16779714Y16178429D01*
X15636857Y16178429D02*
X15636857Y17178429D01*
X15636857Y16892714D02*
X15565429Y17035571D01*
X15494000Y17107000D01*
X15351143Y17178429D01*
X15208286Y17178429D01*
X2019143Y37278857D02*
X2090571Y37421714D01*
X2090571Y37707428D01*
X2019143Y37850286D01*
X1947714Y37921714D01*
X1804857Y37993143D01*
X1376286Y37993143D01*
X1233429Y37921714D01*
X1162000Y37850286D01*
X1090571Y37707428D01*
X1090571Y37421714D01*
X1162000Y37278857D01*
X1090571Y35993143D02*
X2090571Y35993143D01*
X1090571Y36636000D02*
X1876286Y36636000D01*
X2019143Y36564572D01*
X2090571Y36421714D01*
X2090571Y36207429D01*
X2019143Y36064572D01*
X1947714Y35993143D01*
X2090571Y35278857D02*
X1090571Y35278857D01*
X1376286Y35278857D02*
X1233429Y35207429D01*
X1162000Y35136000D01*
X1090571Y34993143D01*
X1090571Y34850286D01*
X2090571Y34350286D02*
X1090571Y34350286D01*
X590571Y34350286D02*
X662000Y34421715D01*
X733429Y34350286D01*
X662000Y34278858D01*
X590571Y34350286D01*
X733429Y34350286D01*
X2090571Y33421714D02*
X2019143Y33564572D01*
X1947714Y33636000D01*
X1804857Y33707429D01*
X1376286Y33707429D01*
X1233429Y33636000D01*
X1162000Y33564572D01*
X1090571Y33421714D01*
X1090571Y33207429D01*
X1162000Y33064572D01*
X1233429Y32993143D01*
X1376286Y32921714D01*
X1804857Y32921714D01*
X1947714Y32993143D01*
X2019143Y33064572D01*
X2090571Y33207429D01*
X2090571Y33421714D01*
X1090571Y31636000D02*
X2090571Y31636000D01*
X1090571Y32278857D02*
X1876286Y32278857D01*
X2019143Y32207429D01*
X2090571Y32064571D01*
X2090571Y31850286D01*
X2019143Y31707429D01*
X1947714Y31636000D01*
X2019143Y30993143D02*
X2090571Y30850286D01*
X2090571Y30564571D01*
X2019143Y30421714D01*
X1876286Y30350286D01*
X1804857Y30350286D01*
X1662000Y30421714D01*
X1590571Y30564571D01*
X1590571Y30778857D01*
X1519143Y30921714D01*
X1376286Y30993143D01*
X1304857Y30993143D01*
X1162000Y30921714D01*
X1090571Y30778857D01*
X1090571Y30564571D01*
X1162000Y30421714D01*
X2019143Y29136000D02*
X2090571Y29278857D01*
X2090571Y29564571D01*
X2019143Y29707428D01*
X1876286Y29778857D01*
X1304857Y29778857D01*
X1162000Y29707428D01*
X1090571Y29564571D01*
X1090571Y29278857D01*
X1162000Y29136000D01*
X1304857Y29064571D01*
X1447714Y29064571D01*
X1590571Y29778857D01*
X2090571Y28207428D02*
X2019143Y28350286D01*
X1876286Y28421714D01*
X590571Y28421714D01*
X2019143Y27064572D02*
X2090571Y27207429D01*
X2090571Y27493143D01*
X2019143Y27636000D01*
X1876286Y27707429D01*
X1304857Y27707429D01*
X1162000Y27636000D01*
X1090571Y27493143D01*
X1090571Y27207429D01*
X1162000Y27064572D01*
X1304857Y26993143D01*
X1447714Y26993143D01*
X1590571Y27707429D01*
X2019143Y25707429D02*
X2090571Y25850286D01*
X2090571Y26136000D01*
X2019143Y26278858D01*
X1947714Y26350286D01*
X1804857Y26421715D01*
X1376286Y26421715D01*
X1233429Y26350286D01*
X1162000Y26278858D01*
X1090571Y26136000D01*
X1090571Y25850286D01*
X1162000Y25707429D01*
X1090571Y25278858D02*
X1090571Y24707429D01*
X590571Y25064572D02*
X1876286Y25064572D01*
X2019143Y24993144D01*
X2090571Y24850286D01*
X2090571Y24707429D01*
X2090571Y24207429D02*
X1090571Y24207429D01*
X1376286Y24207429D02*
X1233429Y24136001D01*
X1162000Y24064572D01*
X1090571Y23921715D01*
X1090571Y23778858D01*
X2090571Y23278858D02*
X1090571Y23278858D01*
X590571Y23278858D02*
X662000Y23350287D01*
X733429Y23278858D01*
X662000Y23207430D01*
X590571Y23278858D01*
X733429Y23278858D01*
X2019143Y21921715D02*
X2090571Y22064572D01*
X2090571Y22350286D01*
X2019143Y22493144D01*
X1947714Y22564572D01*
X1804857Y22636001D01*
X1376286Y22636001D01*
X1233429Y22564572D01*
X1162000Y22493144D01*
X1090571Y22350286D01*
X1090571Y22064572D01*
X1162000Y21921715D01*
X1947714Y21278858D02*
X2019143Y21207430D01*
X2090571Y21278858D01*
X2019143Y21350287D01*
X1947714Y21278858D01*
X2090571Y21278858D01*
X2019143Y19921715D02*
X2090571Y20064572D01*
X2090571Y20350286D01*
X2019143Y20493144D01*
X1947714Y20564572D01*
X1804857Y20636001D01*
X1376286Y20636001D01*
X1233429Y20564572D01*
X1162000Y20493144D01*
X1090571Y20350286D01*
X1090571Y20064572D01*
X1162000Y19921715D01*
X2090571Y19064572D02*
X2019143Y19207430D01*
X1947714Y19278858D01*
X1804857Y19350287D01*
X1376286Y19350287D01*
X1233429Y19278858D01*
X1162000Y19207430D01*
X1090571Y19064572D01*
X1090571Y18850287D01*
X1162000Y18707430D01*
X1233429Y18636001D01*
X1376286Y18564572D01*
X1804857Y18564572D01*
X1947714Y18636001D01*
X2019143Y18707430D01*
X2090571Y18850287D01*
X2090571Y19064572D01*
X1947714Y17921715D02*
X2019143Y17850287D01*
X2090571Y17921715D01*
X2019143Y17993144D01*
X1947714Y17921715D01*
X2090571Y17921715D01*
X1090571Y16564572D02*
X2090571Y16564572D01*
X1090571Y17207429D02*
X1876286Y17207429D01*
X2019143Y17136001D01*
X2090571Y16993143D01*
X2090571Y16778858D01*
X2019143Y16636001D01*
X1947714Y16564572D01*
X2090571Y15850286D02*
X590571Y15850286D01*
X1519143Y15707429D02*
X2090571Y15278858D01*
X1090571Y15278858D02*
X1662000Y15850286D01*
D11*
X36845000Y24350000D03*
D12*
X36845000Y21810000D03*
D13*
X44982000Y45165000D03*
X4982000Y45165000D03*
X4982000Y5165000D03*
X44982000Y5165000D03*
D14*
X27922000Y42075000D03*
X27922000Y47155000D03*
X23477000Y42075000D03*
X23477000Y47155000D03*
X29192000Y32550000D03*
X29192000Y37630000D03*
X33002000Y32550000D03*
X33002000Y37630000D03*
D11*
X33002000Y15405000D03*
D12*
X38082000Y15405000D03*
D15*
X33002000Y12865000D03*
X38082000Y12865000D03*
D16*
X11666000Y35217000D03*
D17*
X11666000Y32677000D03*
X11666000Y30137000D03*
X11666000Y27597000D03*
X19286000Y27597000D03*
X19286000Y30137000D03*
X19286000Y32677000D03*
X19286000Y35217000D03*
D11*
X3792000Y20485000D03*
D12*
X6332000Y20485000D03*
D11*
X3792000Y12230000D03*
D12*
X6332000Y12230000D03*
D18*
X46362400Y17302380D03*
X46337000Y20310000D03*
X46337000Y14310000D03*
D19*
X46337000Y23610000D03*
X46337000Y11010000D03*
D20*
X40657000Y31285000D03*
D21*
X47507000Y33785000D03*
D20*
X42907000Y38785000D03*
X39407000Y29035000D03*
D21*
X35907000Y38285000D03*
D12*
X10142000Y23660000D03*
X10142000Y16040000D03*
X13350000Y16095000D03*
X13350000Y23715000D03*
X22461000Y31407000D03*
X22461000Y39027000D03*
X8491000Y31407000D03*
X8491000Y39027000D03*
X25636000Y39027000D03*
X25636000Y31407000D03*
X5316000Y39027000D03*
X5316000Y31407000D03*
X31765000Y26890000D03*
X31765000Y19270000D03*
X33637000Y45250000D03*
X38717000Y45250000D03*
X12047000Y45250000D03*
X17127000Y45250000D03*
D22*
X19286000Y35217000D02*
X18121000Y35217000D01*
X16144000Y33240000D02*
X16144000Y21175000D01*
X18121000Y35217000D02*
X16144000Y33240000D01*
X45472000Y21175000D02*
X46337000Y20310000D01*
X10142000Y23660000D02*
X10142000Y23113000D01*
X10142000Y23113000D02*
X12080000Y21175000D01*
X3792000Y20485000D02*
X3792000Y22898000D01*
X4554000Y23660000D02*
X10142000Y23660000D01*
X3792000Y22898000D02*
X4554000Y23660000D01*
X36845000Y21810000D02*
X36972000Y21810000D01*
X36972000Y21810000D02*
X37607000Y21175000D01*
X37607000Y21175000D02*
X36845000Y21810000D01*
X36845000Y21810000D02*
X37480000Y21175000D01*
X16144000Y21175000D02*
X37607000Y21175000D01*
X37607000Y21175000D02*
X45472000Y21175000D01*
X14620000Y21175000D02*
X36210000Y21175000D01*
X36210000Y21175000D02*
X36845000Y21810000D01*
X12080000Y21175000D02*
X14620000Y21175000D01*
X10142000Y16040000D02*
X7690000Y16040000D01*
X6122000Y17608000D02*
X6332000Y17608000D01*
X7690000Y16040000D02*
X6122000Y17608000D01*
X10142000Y16040000D02*
X13295000Y16040000D01*
X13295000Y16040000D02*
X13350000Y16095000D01*
X33637000Y45250000D02*
X33637000Y44869000D01*
X33637000Y44869000D02*
X37701000Y40805000D01*
X47507000Y37476000D02*
X47507000Y33785000D01*
X44178000Y40805000D02*
X47507000Y37476000D01*
X37701000Y40805000D02*
X44178000Y40805000D01*
X3792000Y12230000D02*
X3792000Y15278000D01*
X3792000Y15278000D02*
X6332000Y17818000D01*
X6332000Y17818000D02*
X6332000Y17608000D01*
X6332000Y17608000D02*
X6332000Y20485000D01*
X6332000Y12230000D02*
X28281000Y12230000D01*
X31456000Y15405000D02*
X33002000Y15405000D01*
X28281000Y12230000D02*
X31456000Y15405000D01*
X31765000Y19270000D02*
X31765000Y18508000D01*
X31765000Y18508000D02*
X33002000Y17271000D01*
X33002000Y17271000D02*
X33002000Y15405000D01*
X13350000Y23715000D02*
X13350000Y25913000D01*
X13350000Y25913000D02*
X11666000Y27597000D01*
X6332000Y12230000D02*
X6840000Y12230000D01*
X22461000Y39027000D02*
X22969000Y39027000D01*
X22969000Y39027000D02*
X26017000Y42075000D01*
X26017000Y42075000D02*
X27922000Y42075000D01*
X27922000Y47155000D02*
X36812000Y47155000D01*
X36812000Y47155000D02*
X38717000Y45250000D01*
X23477000Y42075000D02*
X10396000Y42075000D01*
X8491000Y40170000D02*
X8491000Y39027000D01*
X10396000Y42075000D02*
X8491000Y40170000D01*
X23477000Y47155000D02*
X13952000Y47155000D01*
X13952000Y47155000D02*
X12047000Y45250000D01*
X29192000Y32550000D02*
X29192000Y31026000D01*
X31183000Y29035000D02*
X39407000Y29035000D01*
X29192000Y31026000D02*
X31183000Y29035000D01*
X29192000Y32550000D02*
X29192000Y33185000D01*
X11666000Y35217000D02*
X15095000Y35217000D01*
X17000000Y37122000D02*
X28684000Y37122000D01*
X15095000Y35217000D02*
X17000000Y37122000D01*
X28684000Y37122000D02*
X29192000Y37630000D01*
X5316000Y39027000D02*
X5316000Y36995000D01*
X5316000Y36995000D02*
X7094000Y35217000D01*
X7094000Y35217000D02*
X11666000Y35217000D01*
X33002000Y32550000D02*
X35288000Y32550000D01*
X41523000Y38785000D02*
X42907000Y38785000D01*
X35288000Y32550000D02*
X41523000Y38785000D01*
X25636000Y39027000D02*
X26652000Y39027000D01*
X26652000Y39027000D02*
X27541000Y39916000D01*
X31351000Y39916000D02*
X33002000Y38265000D01*
X27541000Y39916000D02*
X31351000Y39916000D01*
X33002000Y38265000D02*
X33002000Y37630000D01*
X38082000Y15405000D02*
X41003000Y15405000D01*
X42900380Y17302380D02*
X46362400Y17302380D01*
X41003000Y15405000D02*
X42900380Y17302380D01*
X19286000Y30137000D02*
X21191000Y30137000D01*
X21191000Y30137000D02*
X22461000Y31407000D01*
X25636000Y31407000D02*
X22461000Y31407000D01*
X11666000Y32677000D02*
X9761000Y32677000D01*
X9761000Y32677000D02*
X8491000Y31407000D01*
X5316000Y31407000D02*
X8491000Y31407000D01*
X36845000Y24350000D02*
X34305000Y26890000D01*
X34305000Y26890000D02*
X31765000Y26890000D01*
D23*
G36*
X46636390Y48950592D02*
X48023654Y48023651D01*
X48950592Y46636390D01*
X49290000Y44930069D01*
X49290000Y5069931D01*
X48950592Y3363610D01*
X48023654Y1976349D01*
X46636390Y1049408D01*
X44930069Y710000D01*
X39460000Y710000D01*
X39460000Y4445126D01*
X41346370Y4445126D01*
X41898600Y3108628D01*
X42920249Y2085194D01*
X44255782Y1530632D01*
X45701874Y1529370D01*
X47038372Y2081600D01*
X48061806Y3103249D01*
X48616368Y4438782D01*
X48617630Y5884874D01*
X48065400Y7221372D01*
X47043751Y8244806D01*
X45708218Y8799368D01*
X44262126Y8800630D01*
X42925628Y8248400D01*
X41902194Y7226751D01*
X41347632Y5891218D01*
X41346370Y4445126D01*
X39460000Y4445126D01*
X39460000Y10500000D01*
X39405954Y10771705D01*
X39252046Y11002046D01*
X39240142Y11010000D01*
X44160173Y11010000D01*
X44254182Y10537386D01*
X44521896Y10136723D01*
X44922559Y9869009D01*
X45395173Y9775000D01*
X47278827Y9775000D01*
X47751441Y9869009D01*
X48152104Y10136723D01*
X48419818Y10537386D01*
X48513827Y11010000D01*
X48419818Y11482614D01*
X48152104Y11883277D01*
X47751441Y12150991D01*
X47278827Y12245000D01*
X45395173Y12245000D01*
X44922559Y12150991D01*
X44521896Y11883277D01*
X44254182Y11482614D01*
X44160173Y11010000D01*
X39240142Y11010000D01*
X39021705Y11155954D01*
X38750000Y11210000D01*
X38619468Y11210000D01*
X39063413Y11393434D01*
X39551851Y11881020D01*
X39816518Y12518409D01*
X39817120Y13208563D01*
X39553566Y13846413D01*
X39206189Y14194397D01*
X39401132Y14389000D01*
X41003000Y14389000D01*
X41344790Y14456986D01*
X41391807Y14466338D01*
X41721420Y14686580D01*
X43321221Y16286380D01*
X45066404Y16286380D01*
X45435037Y15917102D01*
X45689390Y15811486D01*
X45412057Y15696894D01*
X44951722Y15237363D01*
X44702284Y14636648D01*
X44701716Y13986205D01*
X44950106Y13385057D01*
X45409637Y12924722D01*
X46010352Y12675284D01*
X46660795Y12674716D01*
X47261943Y12923106D01*
X47722278Y13382637D01*
X47971716Y13983352D01*
X47972284Y14633795D01*
X47723894Y15234943D01*
X47264363Y15695278D01*
X47010010Y15800894D01*
X47287343Y15915486D01*
X47747678Y16375017D01*
X47997116Y16975732D01*
X47997684Y17626175D01*
X47749294Y18227323D01*
X47289763Y18687658D01*
X46991677Y18811434D01*
X47261943Y18923106D01*
X47722278Y19382637D01*
X47971716Y19983352D01*
X47972284Y20633795D01*
X47723894Y21234943D01*
X47264363Y21695278D01*
X46663648Y21944716D01*
X46112931Y21945197D01*
X45860807Y22113662D01*
X45743663Y22136963D01*
X45472000Y22191000D01*
X38473958Y22191000D01*
X38245466Y22743995D01*
X38195128Y22794421D01*
X38312441Y22869910D01*
X38457431Y23082110D01*
X38508440Y23334000D01*
X38508440Y23610000D01*
X44160173Y23610000D01*
X44254182Y23137386D01*
X44521896Y22736723D01*
X44922559Y22469009D01*
X45395173Y22375000D01*
X47278827Y22375000D01*
X47751441Y22469009D01*
X48152104Y22736723D01*
X48419818Y23137386D01*
X48513827Y23610000D01*
X48419818Y24082614D01*
X48152104Y24483277D01*
X47751441Y24750991D01*
X47278827Y24845000D01*
X45395173Y24845000D01*
X44922559Y24750991D01*
X44521896Y24483277D01*
X44254182Y24082614D01*
X44160173Y23610000D01*
X38508440Y23610000D01*
X38508440Y25366000D01*
X38464162Y25601317D01*
X38325090Y25817441D01*
X38112890Y25962431D01*
X37861000Y26013440D01*
X36618401Y26013440D01*
X35023420Y27608420D01*
X34693807Y27828662D01*
X34629300Y27841493D01*
X34305000Y27906000D01*
X33083604Y27906000D01*
X32970801Y28019000D01*
X38111373Y28019000D01*
X38298436Y27894009D01*
X38771050Y27800000D01*
X40042950Y27800000D01*
X40515564Y27894009D01*
X40916227Y28161723D01*
X41183941Y28562386D01*
X41277950Y29035000D01*
X41183941Y29507614D01*
X40916227Y29908277D01*
X40704123Y30050000D01*
X41292950Y30050000D01*
X41765564Y30144009D01*
X42166227Y30411723D01*
X42433941Y30812386D01*
X42527950Y31285000D01*
X42433941Y31757614D01*
X42166227Y32158277D01*
X41765564Y32425991D01*
X41292950Y32520000D01*
X40021050Y32520000D01*
X39548436Y32425991D01*
X39147773Y32158277D01*
X38880059Y31757614D01*
X38786050Y31285000D01*
X38880059Y30812386D01*
X39147773Y30411723D01*
X39359877Y30270000D01*
X38771050Y30270000D01*
X38298436Y30175991D01*
X38111373Y30051000D01*
X31603841Y30051000D01*
X30270915Y31383925D01*
X30537032Y31649579D01*
X30779224Y32232841D01*
X30779226Y32235612D01*
X31414225Y32235612D01*
X31655398Y31651928D01*
X32101579Y31204968D01*
X32684841Y30962776D01*
X33316388Y30962225D01*
X33900072Y31203398D01*
X34231251Y31534000D01*
X35288000Y31534000D01*
X35612300Y31598507D01*
X35676807Y31611338D01*
X36006420Y31831580D01*
X37832840Y33658000D01*
X46272000Y33658000D01*
X46272000Y33058000D01*
X46414610Y32595053D01*
X46723526Y32221920D01*
X47151719Y31995408D01*
X47189391Y31991538D01*
X47380000Y32116269D01*
X47380000Y33658000D01*
X47634000Y33658000D01*
X47634000Y32116269D01*
X47824609Y31991538D01*
X47862281Y31995408D01*
X48290474Y32221920D01*
X48599390Y32595053D01*
X48742000Y33058000D01*
X48742000Y33658000D01*
X47634000Y33658000D01*
X47380000Y33658000D01*
X46272000Y33658000D01*
X37832840Y33658000D01*
X38686840Y34512000D01*
X46272000Y34512000D01*
X46272000Y33912000D01*
X47380000Y33912000D01*
X47380000Y35453731D01*
X47634000Y35453731D01*
X47634000Y33912000D01*
X48742000Y33912000D01*
X48742000Y34512000D01*
X48599390Y34974947D01*
X48290474Y35348080D01*
X47862281Y35574592D01*
X47824609Y35578462D01*
X47634000Y35453731D01*
X47380000Y35453731D01*
X47189391Y35578462D01*
X47151719Y35574592D01*
X46723526Y35348080D01*
X46414610Y34974947D01*
X46272000Y34512000D01*
X38686840Y34512000D01*
X41815463Y37640622D01*
X42271050Y37550000D01*
X43542950Y37550000D01*
X44015564Y37644009D01*
X44416227Y37911723D01*
X44683941Y38312386D01*
X44777950Y38785000D01*
X44683941Y39257614D01*
X44416227Y39658277D01*
X44015564Y39925991D01*
X43542950Y40020000D01*
X42271050Y40020000D01*
X41798436Y39925991D01*
X41611373Y39801000D01*
X41523000Y39801000D01*
X41134193Y39723662D01*
X40804580Y39503421D01*
X34867160Y33566000D01*
X34230880Y33566000D01*
X33902421Y33895032D01*
X33319159Y34137224D01*
X32687612Y34137775D01*
X32103928Y33896602D01*
X31656968Y33450421D01*
X31414776Y32867159D01*
X31414225Y32235612D01*
X30779226Y32235612D01*
X30779775Y32864388D01*
X30538602Y33448072D01*
X30092421Y33895032D01*
X29644806Y34080898D01*
X29580806Y34123662D01*
X29192000Y34201000D01*
X28803194Y34123662D01*
X28737953Y34080069D01*
X28293928Y33896602D01*
X27846968Y33450421D01*
X27604776Y32867159D01*
X27604225Y32235612D01*
X27845398Y31651928D01*
X28176000Y31320749D01*
X28176000Y31026000D01*
X28240507Y30701700D01*
X28253338Y30637193D01*
X28473580Y30307580D01*
X30464579Y28316580D01*
X30684821Y28169419D01*
X30699752Y28159442D01*
X30366166Y27826437D01*
X30114287Y27219845D01*
X30113714Y26563037D01*
X30364534Y25956005D01*
X30828563Y25491166D01*
X31435155Y25239287D01*
X32091963Y25238714D01*
X32698995Y25489534D01*
X33084132Y25874000D01*
X33884160Y25874000D01*
X35181560Y24576599D01*
X35181560Y23334000D01*
X35225838Y23098683D01*
X35364910Y22882559D01*
X35494100Y22794287D01*
X35446166Y22746437D01*
X35215528Y22191000D01*
X17160000Y22191000D01*
X17160000Y27249940D01*
X17550990Y27249940D01*
X17567673Y27170004D01*
X17834809Y26681014D01*
X18268738Y26331475D01*
X18803400Y26174600D01*
X19159000Y26174600D01*
X19159000Y27470000D01*
X19413000Y27470000D01*
X19413000Y26174600D01*
X19768600Y26174600D01*
X20303262Y26331475D01*
X20737191Y26681014D01*
X21004327Y27170004D01*
X21021010Y27249940D01*
X20898852Y27470000D01*
X19413000Y27470000D01*
X19159000Y27470000D01*
X17673148Y27470000D01*
X17550990Y27249940D01*
X17160000Y27249940D01*
X17160000Y32819160D01*
X17620247Y33279407D01*
X17581441Y33221329D01*
X17473167Y32677000D01*
X17581441Y32132671D01*
X17889778Y31671211D01*
X18285199Y31407000D01*
X17889778Y31142789D01*
X17581441Y30681329D01*
X17473167Y30137000D01*
X17581441Y29592671D01*
X17889778Y29131211D01*
X18284830Y28867246D01*
X18268738Y28862525D01*
X17834809Y28512986D01*
X17567673Y28023996D01*
X17550990Y27944060D01*
X17673148Y27724000D01*
X19159000Y27724000D01*
X19159000Y27744000D01*
X19413000Y27744000D01*
X19413000Y27724000D01*
X20898852Y27724000D01*
X21021010Y27944060D01*
X21004327Y28023996D01*
X20737191Y28512986D01*
X20303262Y28862525D01*
X20287170Y28867246D01*
X20666940Y29121000D01*
X21191000Y29121000D01*
X21515300Y29185507D01*
X21579807Y29198338D01*
X21909420Y29418580D01*
X22247026Y29756186D01*
X22787963Y29755714D01*
X23394995Y30006534D01*
X23780132Y30391000D01*
X24317396Y30391000D01*
X24699563Y30008166D01*
X25306155Y29756287D01*
X25962963Y29755714D01*
X26569995Y30006534D01*
X27034834Y30470563D01*
X27286713Y31077155D01*
X27287286Y31733963D01*
X27036466Y32340995D01*
X26572437Y32805834D01*
X25965845Y33057713D01*
X25309037Y33058286D01*
X24702005Y32807466D01*
X24316868Y32423000D01*
X23779604Y32423000D01*
X23397437Y32805834D01*
X22790845Y33057713D01*
X22134037Y33058286D01*
X21527005Y32807466D01*
X21062166Y32343437D01*
X21005189Y32206221D01*
X21098833Y32677000D01*
X20990559Y33221329D01*
X20682222Y33682789D01*
X20286801Y33947000D01*
X20682222Y34211211D01*
X20990559Y34672671D01*
X21098833Y35217000D01*
X20990559Y35761329D01*
X20760258Y36106000D01*
X28684000Y36106000D01*
X28710085Y36111189D01*
X28874841Y36042776D01*
X29506388Y36042225D01*
X30090072Y36283398D01*
X30537032Y36729579D01*
X30779224Y37312841D01*
X30779775Y37944388D01*
X30538602Y38528072D01*
X30167322Y38900000D01*
X30930160Y38900000D01*
X31552155Y38278004D01*
X31414776Y37947159D01*
X31414225Y37315612D01*
X31655398Y36731928D01*
X32101579Y36284968D01*
X32684841Y36042776D01*
X33316388Y36042225D01*
X33900072Y36283398D01*
X34347032Y36729579D01*
X34589224Y37312841D01*
X34589775Y37944388D01*
X34348602Y38528072D01*
X33956409Y38920950D01*
X34672000Y38920950D01*
X34672000Y37649050D01*
X34766009Y37176436D01*
X35033723Y36775773D01*
X35434386Y36508059D01*
X35907000Y36414050D01*
X36379614Y36508059D01*
X36780277Y36775773D01*
X37047991Y37176436D01*
X37142000Y37649050D01*
X37142000Y38920950D01*
X37047991Y39393564D01*
X36780277Y39794227D01*
X36379614Y40061941D01*
X35907000Y40155950D01*
X35434386Y40061941D01*
X35033723Y39794227D01*
X34766009Y39393564D01*
X34672000Y38920950D01*
X33956409Y38920950D01*
X33902421Y38975032D01*
X33605528Y39098313D01*
X32069420Y40634420D01*
X31739807Y40854662D01*
X31675300Y40867493D01*
X31351000Y40932000D01*
X29024029Y40932000D01*
X29267032Y41174579D01*
X29509224Y41757841D01*
X29509775Y42389388D01*
X29268602Y42973072D01*
X28822421Y43420032D01*
X28239159Y43662224D01*
X27607612Y43662775D01*
X27023928Y43421602D01*
X26692749Y43091000D01*
X26017000Y43091000D01*
X25692700Y43026493D01*
X25628193Y43013662D01*
X25298580Y42793421D01*
X25015003Y42509844D01*
X24823602Y42973072D01*
X24377421Y43420032D01*
X23794159Y43662224D01*
X23162612Y43662775D01*
X22578928Y43421602D01*
X22247749Y43091000D01*
X10396000Y43091000D01*
X10071700Y43026493D01*
X10007193Y43013662D01*
X9677580Y42793421D01*
X7772580Y40888420D01*
X7552338Y40558807D01*
X7552338Y40558806D01*
X7518584Y40389112D01*
X7092166Y39963437D01*
X6903346Y39508709D01*
X6716466Y39960995D01*
X6252437Y40425834D01*
X5645845Y40677713D01*
X4989037Y40678286D01*
X4382005Y40427466D01*
X3917166Y39963437D01*
X3665287Y39356845D01*
X3664714Y38700037D01*
X3915534Y38093005D01*
X4300000Y37707868D01*
X4300000Y36995000D01*
X4352328Y36731928D01*
X4377338Y36606193D01*
X4597580Y36276580D01*
X6375580Y34498579D01*
X6705193Y34278338D01*
X7094000Y34201000D01*
X9918574Y34201000D01*
X9919838Y34194283D01*
X10058910Y33978159D01*
X10271110Y33833169D01*
X10442803Y33798400D01*
X10285060Y33693000D01*
X9761000Y33693000D01*
X9372194Y33615662D01*
X9297870Y33566000D01*
X9042579Y33395420D01*
X8704973Y33057814D01*
X8164037Y33058286D01*
X7557005Y32807466D01*
X7171868Y32423000D01*
X6634604Y32423000D01*
X6252437Y32805834D01*
X5645845Y33057713D01*
X4989037Y33058286D01*
X4382005Y32807466D01*
X3917166Y32343437D01*
X3665287Y31736845D01*
X3664714Y31080037D01*
X3915534Y30473005D01*
X4379563Y30008166D01*
X4986155Y29756287D01*
X5642963Y29755714D01*
X6249995Y30006534D01*
X6635132Y30391000D01*
X7172396Y30391000D01*
X7554563Y30008166D01*
X8161155Y29756287D01*
X8817963Y29755714D01*
X9424995Y30006534D01*
X9889834Y30470563D01*
X10141713Y31077155D01*
X10142188Y31621347D01*
X10181841Y31661000D01*
X10285060Y31661000D01*
X10664830Y31407246D01*
X10648738Y31402525D01*
X10214809Y31052986D01*
X9947673Y30563996D01*
X9930990Y30484060D01*
X10053148Y30264000D01*
X11539000Y30264000D01*
X11539000Y30284000D01*
X11793000Y30284000D01*
X11793000Y30264000D01*
X13278852Y30264000D01*
X13401010Y30484060D01*
X13384327Y30563996D01*
X13117191Y31052986D01*
X12683262Y31402525D01*
X12667170Y31407246D01*
X13062222Y31671211D01*
X13370559Y32132671D01*
X13478833Y32677000D01*
X13370559Y33221329D01*
X13062222Y33682789D01*
X12890540Y33797503D01*
X13044317Y33826438D01*
X13260441Y33965510D01*
X13405431Y34177710D01*
X13410147Y34201000D01*
X15095000Y34201000D01*
X15419300Y34265507D01*
X15483807Y34278338D01*
X15813420Y34498580D01*
X17420841Y36106000D01*
X17657870Y36106000D01*
X17402579Y35935420D01*
X15425580Y33958420D01*
X15205338Y33628807D01*
X15202723Y33615661D01*
X15128000Y33240000D01*
X15128000Y22191000D01*
X13985019Y22191000D01*
X14283995Y22314534D01*
X14748834Y22778563D01*
X15000713Y23385155D01*
X15001286Y24041963D01*
X14750466Y24648995D01*
X14366000Y25034132D01*
X14366000Y25913000D01*
X14346021Y26013440D01*
X14288662Y26301807D01*
X14068421Y26631420D01*
X13416452Y27283389D01*
X13478833Y27597000D01*
X13370559Y28141329D01*
X13062222Y28602789D01*
X12667170Y28866754D01*
X12683262Y28871475D01*
X13117191Y29221014D01*
X13384327Y29710004D01*
X13401010Y29789940D01*
X13278852Y30010000D01*
X11793000Y30010000D01*
X11793000Y29990000D01*
X11539000Y29990000D01*
X11539000Y30010000D01*
X10053148Y30010000D01*
X9930990Y29789940D01*
X9947673Y29710004D01*
X10214809Y29221014D01*
X10648738Y28871475D01*
X10664830Y28866754D01*
X10269778Y28602789D01*
X9961441Y28141329D01*
X9853167Y27597000D01*
X9961441Y27052671D01*
X10269778Y26591211D01*
X10731238Y26282874D01*
X11275567Y26174600D01*
X11651560Y26174600D01*
X12334000Y25492159D01*
X12334000Y25033604D01*
X11951166Y24651437D01*
X11734415Y24129442D01*
X11542466Y24593995D01*
X11078437Y25058834D01*
X10471845Y25310713D01*
X9815037Y25311286D01*
X9208005Y25060466D01*
X8822868Y24676000D01*
X4554000Y24676000D01*
X4229700Y24611493D01*
X4165193Y24598662D01*
X3835580Y24378421D01*
X3247000Y23789840D01*
X3247000Y39063857D01*
X710000Y39063857D01*
X710000Y44445126D01*
X1346370Y44445126D01*
X1898600Y43108628D01*
X2920249Y42085194D01*
X4255782Y41530632D01*
X5701874Y41529370D01*
X7038372Y42081600D01*
X8061806Y43103249D01*
X8616368Y44438782D01*
X8616790Y44923037D01*
X10395714Y44923037D01*
X10646534Y44316005D01*
X11110563Y43851166D01*
X11717155Y43599287D01*
X12373963Y43598714D01*
X12980995Y43849534D01*
X13217766Y44085893D01*
X16142498Y44085893D01*
X16243120Y43817378D01*
X16858642Y43588184D01*
X17515019Y43611986D01*
X18010880Y43817378D01*
X18111502Y44085893D01*
X32652498Y44085893D01*
X32753120Y43817378D01*
X33368642Y43588184D01*
X34025019Y43611986D01*
X34520880Y43817378D01*
X34621502Y44085893D01*
X33637000Y45070395D01*
X32652498Y44085893D01*
X18111502Y44085893D01*
X17127000Y45070395D01*
X16142498Y44085893D01*
X13217766Y44085893D01*
X13445834Y44313563D01*
X13697713Y44920155D01*
X13698188Y45464347D01*
X14372841Y46139000D01*
X15708041Y46139000D01*
X15694378Y46133880D01*
X15465184Y45518358D01*
X15488986Y44861981D01*
X15694378Y44366120D01*
X15962893Y44265498D01*
X16947395Y45250000D01*
X16933253Y45264142D01*
X17112858Y45443747D01*
X17127000Y45429605D01*
X17141143Y45443747D01*
X17320748Y45264142D01*
X17306605Y45250000D01*
X18291107Y44265498D01*
X18559622Y44366120D01*
X18788816Y44981642D01*
X18765014Y45638019D01*
X18559622Y46133880D01*
X18545959Y46139000D01*
X22248120Y46139000D01*
X22576579Y45809968D01*
X23159841Y45567776D01*
X23791388Y45567225D01*
X24375072Y45808398D01*
X24822032Y46254579D01*
X25064224Y46837841D01*
X25064226Y46840612D01*
X26334225Y46840612D01*
X26575398Y46256928D01*
X27021579Y45809968D01*
X27604841Y45567776D01*
X28236388Y45567225D01*
X28820072Y45808398D01*
X29151251Y46139000D01*
X32218041Y46139000D01*
X32204378Y46133880D01*
X31975184Y45518358D01*
X31998986Y44861981D01*
X32204378Y44366120D01*
X32472893Y44265498D01*
X33457395Y45250000D01*
X33443253Y45264142D01*
X33622858Y45443747D01*
X33637000Y45429605D01*
X33651143Y45443747D01*
X33830748Y45264142D01*
X33816605Y45250000D01*
X34801107Y44265498D01*
X35069622Y44366120D01*
X35298816Y44981642D01*
X35275014Y45638019D01*
X35069622Y46133880D01*
X35055959Y46139000D01*
X36391160Y46139000D01*
X37066186Y45463974D01*
X37065714Y44923037D01*
X37316534Y44316005D01*
X37780563Y43851166D01*
X38387155Y43599287D01*
X39043963Y43598714D01*
X39650995Y43849534D01*
X40115834Y44313563D01*
X40170463Y44445126D01*
X41346370Y44445126D01*
X41898600Y43108628D01*
X42920249Y42085194D01*
X44255782Y41530632D01*
X45701874Y41529370D01*
X47038372Y42081600D01*
X48061806Y43103249D01*
X48616368Y44438782D01*
X48617630Y45884874D01*
X48065400Y47221372D01*
X47043751Y48244806D01*
X45708218Y48799368D01*
X44262126Y48800630D01*
X42925628Y48248400D01*
X41902194Y47226751D01*
X41347632Y45891218D01*
X41346370Y44445126D01*
X40170463Y44445126D01*
X40367713Y44920155D01*
X40368286Y45576963D01*
X40117466Y46183995D01*
X39653437Y46648834D01*
X39046845Y46900713D01*
X38502653Y46901188D01*
X37530420Y47873420D01*
X37200807Y48093662D01*
X37136300Y48106493D01*
X36812000Y48171000D01*
X29150880Y48171000D01*
X28822421Y48500032D01*
X28239159Y48742224D01*
X27607612Y48742775D01*
X27023928Y48501602D01*
X26576968Y48055421D01*
X26334776Y47472159D01*
X26334225Y46840612D01*
X25064226Y46840612D01*
X25064775Y47469388D01*
X24823602Y48053072D01*
X24377421Y48500032D01*
X23794159Y48742224D01*
X23162612Y48742775D01*
X22578928Y48501602D01*
X22247749Y48171000D01*
X13952000Y48171000D01*
X13627700Y48106493D01*
X13563193Y48093662D01*
X13233580Y47873421D01*
X12260974Y46900814D01*
X11720037Y46901286D01*
X11113005Y46650466D01*
X10648166Y46186437D01*
X10396287Y45579845D01*
X10395714Y44923037D01*
X8616790Y44923037D01*
X8617630Y45884874D01*
X8065400Y47221372D01*
X7043751Y48244806D01*
X5708218Y48799368D01*
X4262126Y48800630D01*
X2925628Y48248400D01*
X1902194Y47226751D01*
X1347632Y45891218D01*
X1346370Y44445126D01*
X710000Y44445126D01*
X710000Y44930069D01*
X1049408Y46636390D01*
X1976349Y48023654D01*
X3363610Y48950592D01*
X5069931Y49290000D01*
X44930069Y49290000D01*
X46636390Y48950592D01*
X46636390Y48950592D01*
G37*
X46636390Y48950592D02*
X48023654Y48023651D01*
X48950592Y46636390D01*
X49290000Y44930069D01*
X49290000Y5069931D01*
X48950592Y3363610D01*
X48023654Y1976349D01*
X46636390Y1049408D01*
X44930069Y710000D01*
X39460000Y710000D01*
X39460000Y4445126D01*
X41346370Y4445126D01*
X41898600Y3108628D01*
X42920249Y2085194D01*
X44255782Y1530632D01*
X45701874Y1529370D01*
X47038372Y2081600D01*
X48061806Y3103249D01*
X48616368Y4438782D01*
X48617630Y5884874D01*
X48065400Y7221372D01*
X47043751Y8244806D01*
X45708218Y8799368D01*
X44262126Y8800630D01*
X42925628Y8248400D01*
X41902194Y7226751D01*
X41347632Y5891218D01*
X41346370Y4445126D01*
X39460000Y4445126D01*
X39460000Y10500000D01*
X39405954Y10771705D01*
X39252046Y11002046D01*
X39240142Y11010000D01*
X44160173Y11010000D01*
X44254182Y10537386D01*
X44521896Y10136723D01*
X44922559Y9869009D01*
X45395173Y9775000D01*
X47278827Y9775000D01*
X47751441Y9869009D01*
X48152104Y10136723D01*
X48419818Y10537386D01*
X48513827Y11010000D01*
X48419818Y11482614D01*
X48152104Y11883277D01*
X47751441Y12150991D01*
X47278827Y12245000D01*
X45395173Y12245000D01*
X44922559Y12150991D01*
X44521896Y11883277D01*
X44254182Y11482614D01*
X44160173Y11010000D01*
X39240142Y11010000D01*
X39021705Y11155954D01*
X38750000Y11210000D01*
X38619468Y11210000D01*
X39063413Y11393434D01*
X39551851Y11881020D01*
X39816518Y12518409D01*
X39817120Y13208563D01*
X39553566Y13846413D01*
X39206189Y14194397D01*
X39401132Y14389000D01*
X41003000Y14389000D01*
X41344790Y14456986D01*
X41391807Y14466338D01*
X41721420Y14686580D01*
X43321221Y16286380D01*
X45066404Y16286380D01*
X45435037Y15917102D01*
X45689390Y15811486D01*
X45412057Y15696894D01*
X44951722Y15237363D01*
X44702284Y14636648D01*
X44701716Y13986205D01*
X44950106Y13385057D01*
X45409637Y12924722D01*
X46010352Y12675284D01*
X46660795Y12674716D01*
X47261943Y12923106D01*
X47722278Y13382637D01*
X47971716Y13983352D01*
X47972284Y14633795D01*
X47723894Y15234943D01*
X47264363Y15695278D01*
X47010010Y15800894D01*
X47287343Y15915486D01*
X47747678Y16375017D01*
X47997116Y16975732D01*
X47997684Y17626175D01*
X47749294Y18227323D01*
X47289763Y18687658D01*
X46991677Y18811434D01*
X47261943Y18923106D01*
X47722278Y19382637D01*
X47971716Y19983352D01*
X47972284Y20633795D01*
X47723894Y21234943D01*
X47264363Y21695278D01*
X46663648Y21944716D01*
X46112931Y21945197D01*
X45860807Y22113662D01*
X45743663Y22136963D01*
X45472000Y22191000D01*
X38473958Y22191000D01*
X38245466Y22743995D01*
X38195128Y22794421D01*
X38312441Y22869910D01*
X38457431Y23082110D01*
X38508440Y23334000D01*
X38508440Y23610000D01*
X44160173Y23610000D01*
X44254182Y23137386D01*
X44521896Y22736723D01*
X44922559Y22469009D01*
X45395173Y22375000D01*
X47278827Y22375000D01*
X47751441Y22469009D01*
X48152104Y22736723D01*
X48419818Y23137386D01*
X48513827Y23610000D01*
X48419818Y24082614D01*
X48152104Y24483277D01*
X47751441Y24750991D01*
X47278827Y24845000D01*
X45395173Y24845000D01*
X44922559Y24750991D01*
X44521896Y24483277D01*
X44254182Y24082614D01*
X44160173Y23610000D01*
X38508440Y23610000D01*
X38508440Y25366000D01*
X38464162Y25601317D01*
X38325090Y25817441D01*
X38112890Y25962431D01*
X37861000Y26013440D01*
X36618401Y26013440D01*
X35023420Y27608420D01*
X34693807Y27828662D01*
X34629300Y27841493D01*
X34305000Y27906000D01*
X33083604Y27906000D01*
X32970801Y28019000D01*
X38111373Y28019000D01*
X38298436Y27894009D01*
X38771050Y27800000D01*
X40042950Y27800000D01*
X40515564Y27894009D01*
X40916227Y28161723D01*
X41183941Y28562386D01*
X41277950Y29035000D01*
X41183941Y29507614D01*
X40916227Y29908277D01*
X40704123Y30050000D01*
X41292950Y30050000D01*
X41765564Y30144009D01*
X42166227Y30411723D01*
X42433941Y30812386D01*
X42527950Y31285000D01*
X42433941Y31757614D01*
X42166227Y32158277D01*
X41765564Y32425991D01*
X41292950Y32520000D01*
X40021050Y32520000D01*
X39548436Y32425991D01*
X39147773Y32158277D01*
X38880059Y31757614D01*
X38786050Y31285000D01*
X38880059Y30812386D01*
X39147773Y30411723D01*
X39359877Y30270000D01*
X38771050Y30270000D01*
X38298436Y30175991D01*
X38111373Y30051000D01*
X31603841Y30051000D01*
X30270915Y31383925D01*
X30537032Y31649579D01*
X30779224Y32232841D01*
X30779226Y32235612D01*
X31414225Y32235612D01*
X31655398Y31651928D01*
X32101579Y31204968D01*
X32684841Y30962776D01*
X33316388Y30962225D01*
X33900072Y31203398D01*
X34231251Y31534000D01*
X35288000Y31534000D01*
X35612300Y31598507D01*
X35676807Y31611338D01*
X36006420Y31831580D01*
X37832840Y33658000D01*
X46272000Y33658000D01*
X46272000Y33058000D01*
X46414610Y32595053D01*
X46723526Y32221920D01*
X47151719Y31995408D01*
X47189391Y31991538D01*
X47380000Y32116269D01*
X47380000Y33658000D01*
X47634000Y33658000D01*
X47634000Y32116269D01*
X47824609Y31991538D01*
X47862281Y31995408D01*
X48290474Y32221920D01*
X48599390Y32595053D01*
X48742000Y33058000D01*
X48742000Y33658000D01*
X47634000Y33658000D01*
X47380000Y33658000D01*
X46272000Y33658000D01*
X37832840Y33658000D01*
X38686840Y34512000D01*
X46272000Y34512000D01*
X46272000Y33912000D01*
X47380000Y33912000D01*
X47380000Y35453731D01*
X47634000Y35453731D01*
X47634000Y33912000D01*
X48742000Y33912000D01*
X48742000Y34512000D01*
X48599390Y34974947D01*
X48290474Y35348080D01*
X47862281Y35574592D01*
X47824609Y35578462D01*
X47634000Y35453731D01*
X47380000Y35453731D01*
X47189391Y35578462D01*
X47151719Y35574592D01*
X46723526Y35348080D01*
X46414610Y34974947D01*
X46272000Y34512000D01*
X38686840Y34512000D01*
X41815463Y37640622D01*
X42271050Y37550000D01*
X43542950Y37550000D01*
X44015564Y37644009D01*
X44416227Y37911723D01*
X44683941Y38312386D01*
X44777950Y38785000D01*
X44683941Y39257614D01*
X44416227Y39658277D01*
X44015564Y39925991D01*
X43542950Y40020000D01*
X42271050Y40020000D01*
X41798436Y39925991D01*
X41611373Y39801000D01*
X41523000Y39801000D01*
X41134193Y39723662D01*
X40804580Y39503421D01*
X34867160Y33566000D01*
X34230880Y33566000D01*
X33902421Y33895032D01*
X33319159Y34137224D01*
X32687612Y34137775D01*
X32103928Y33896602D01*
X31656968Y33450421D01*
X31414776Y32867159D01*
X31414225Y32235612D01*
X30779226Y32235612D01*
X30779775Y32864388D01*
X30538602Y33448072D01*
X30092421Y33895032D01*
X29644806Y34080898D01*
X29580806Y34123662D01*
X29192000Y34201000D01*
X28803194Y34123662D01*
X28737953Y34080069D01*
X28293928Y33896602D01*
X27846968Y33450421D01*
X27604776Y32867159D01*
X27604225Y32235612D01*
X27845398Y31651928D01*
X28176000Y31320749D01*
X28176000Y31026000D01*
X28240507Y30701700D01*
X28253338Y30637193D01*
X28473580Y30307580D01*
X30464579Y28316580D01*
X30684821Y28169419D01*
X30699752Y28159442D01*
X30366166Y27826437D01*
X30114287Y27219845D01*
X30113714Y26563037D01*
X30364534Y25956005D01*
X30828563Y25491166D01*
X31435155Y25239287D01*
X32091963Y25238714D01*
X32698995Y25489534D01*
X33084132Y25874000D01*
X33884160Y25874000D01*
X35181560Y24576599D01*
X35181560Y23334000D01*
X35225838Y23098683D01*
X35364910Y22882559D01*
X35494100Y22794287D01*
X35446166Y22746437D01*
X35215528Y22191000D01*
X17160000Y22191000D01*
X17160000Y27249940D01*
X17550990Y27249940D01*
X17567673Y27170004D01*
X17834809Y26681014D01*
X18268738Y26331475D01*
X18803400Y26174600D01*
X19159000Y26174600D01*
X19159000Y27470000D01*
X19413000Y27470000D01*
X19413000Y26174600D01*
X19768600Y26174600D01*
X20303262Y26331475D01*
X20737191Y26681014D01*
X21004327Y27170004D01*
X21021010Y27249940D01*
X20898852Y27470000D01*
X19413000Y27470000D01*
X19159000Y27470000D01*
X17673148Y27470000D01*
X17550990Y27249940D01*
X17160000Y27249940D01*
X17160000Y32819160D01*
X17620247Y33279407D01*
X17581441Y33221329D01*
X17473167Y32677000D01*
X17581441Y32132671D01*
X17889778Y31671211D01*
X18285199Y31407000D01*
X17889778Y31142789D01*
X17581441Y30681329D01*
X17473167Y30137000D01*
X17581441Y29592671D01*
X17889778Y29131211D01*
X18284830Y28867246D01*
X18268738Y28862525D01*
X17834809Y28512986D01*
X17567673Y28023996D01*
X17550990Y27944060D01*
X17673148Y27724000D01*
X19159000Y27724000D01*
X19159000Y27744000D01*
X19413000Y27744000D01*
X19413000Y27724000D01*
X20898852Y27724000D01*
X21021010Y27944060D01*
X21004327Y28023996D01*
X20737191Y28512986D01*
X20303262Y28862525D01*
X20287170Y28867246D01*
X20666940Y29121000D01*
X21191000Y29121000D01*
X21515300Y29185507D01*
X21579807Y29198338D01*
X21909420Y29418580D01*
X22247026Y29756186D01*
X22787963Y29755714D01*
X23394995Y30006534D01*
X23780132Y30391000D01*
X24317396Y30391000D01*
X24699563Y30008166D01*
X25306155Y29756287D01*
X25962963Y29755714D01*
X26569995Y30006534D01*
X27034834Y30470563D01*
X27286713Y31077155D01*
X27287286Y31733963D01*
X27036466Y32340995D01*
X26572437Y32805834D01*
X25965845Y33057713D01*
X25309037Y33058286D01*
X24702005Y32807466D01*
X24316868Y32423000D01*
X23779604Y32423000D01*
X23397437Y32805834D01*
X22790845Y33057713D01*
X22134037Y33058286D01*
X21527005Y32807466D01*
X21062166Y32343437D01*
X21005189Y32206221D01*
X21098833Y32677000D01*
X20990559Y33221329D01*
X20682222Y33682789D01*
X20286801Y33947000D01*
X20682222Y34211211D01*
X20990559Y34672671D01*
X21098833Y35217000D01*
X20990559Y35761329D01*
X20760258Y36106000D01*
X28684000Y36106000D01*
X28710085Y36111189D01*
X28874841Y36042776D01*
X29506388Y36042225D01*
X30090072Y36283398D01*
X30537032Y36729579D01*
X30779224Y37312841D01*
X30779775Y37944388D01*
X30538602Y38528072D01*
X30167322Y38900000D01*
X30930160Y38900000D01*
X31552155Y38278004D01*
X31414776Y37947159D01*
X31414225Y37315612D01*
X31655398Y36731928D01*
X32101579Y36284968D01*
X32684841Y36042776D01*
X33316388Y36042225D01*
X33900072Y36283398D01*
X34347032Y36729579D01*
X34589224Y37312841D01*
X34589775Y37944388D01*
X34348602Y38528072D01*
X33956409Y38920950D01*
X34672000Y38920950D01*
X34672000Y37649050D01*
X34766009Y37176436D01*
X35033723Y36775773D01*
X35434386Y36508059D01*
X35907000Y36414050D01*
X36379614Y36508059D01*
X36780277Y36775773D01*
X37047991Y37176436D01*
X37142000Y37649050D01*
X37142000Y38920950D01*
X37047991Y39393564D01*
X36780277Y39794227D01*
X36379614Y40061941D01*
X35907000Y40155950D01*
X35434386Y40061941D01*
X35033723Y39794227D01*
X34766009Y39393564D01*
X34672000Y38920950D01*
X33956409Y38920950D01*
X33902421Y38975032D01*
X33605528Y39098313D01*
X32069420Y40634420D01*
X31739807Y40854662D01*
X31675300Y40867493D01*
X31351000Y40932000D01*
X29024029Y40932000D01*
X29267032Y41174579D01*
X29509224Y41757841D01*
X29509775Y42389388D01*
X29268602Y42973072D01*
X28822421Y43420032D01*
X28239159Y43662224D01*
X27607612Y43662775D01*
X27023928Y43421602D01*
X26692749Y43091000D01*
X26017000Y43091000D01*
X25692700Y43026493D01*
X25628193Y43013662D01*
X25298580Y42793421D01*
X25015003Y42509844D01*
X24823602Y42973072D01*
X24377421Y43420032D01*
X23794159Y43662224D01*
X23162612Y43662775D01*
X22578928Y43421602D01*
X22247749Y43091000D01*
X10396000Y43091000D01*
X10071700Y43026493D01*
X10007193Y43013662D01*
X9677580Y42793421D01*
X7772580Y40888420D01*
X7552338Y40558807D01*
X7552338Y40558806D01*
X7518584Y40389112D01*
X7092166Y39963437D01*
X6903346Y39508709D01*
X6716466Y39960995D01*
X6252437Y40425834D01*
X5645845Y40677713D01*
X4989037Y40678286D01*
X4382005Y40427466D01*
X3917166Y39963437D01*
X3665287Y39356845D01*
X3664714Y38700037D01*
X3915534Y38093005D01*
X4300000Y37707868D01*
X4300000Y36995000D01*
X4352328Y36731928D01*
X4377338Y36606193D01*
X4597580Y36276580D01*
X6375580Y34498579D01*
X6705193Y34278338D01*
X7094000Y34201000D01*
X9918574Y34201000D01*
X9919838Y34194283D01*
X10058910Y33978159D01*
X10271110Y33833169D01*
X10442803Y33798400D01*
X10285060Y33693000D01*
X9761000Y33693000D01*
X9372194Y33615662D01*
X9297870Y33566000D01*
X9042579Y33395420D01*
X8704973Y33057814D01*
X8164037Y33058286D01*
X7557005Y32807466D01*
X7171868Y32423000D01*
X6634604Y32423000D01*
X6252437Y32805834D01*
X5645845Y33057713D01*
X4989037Y33058286D01*
X4382005Y32807466D01*
X3917166Y32343437D01*
X3665287Y31736845D01*
X3664714Y31080037D01*
X3915534Y30473005D01*
X4379563Y30008166D01*
X4986155Y29756287D01*
X5642963Y29755714D01*
X6249995Y30006534D01*
X6635132Y30391000D01*
X7172396Y30391000D01*
X7554563Y30008166D01*
X8161155Y29756287D01*
X8817963Y29755714D01*
X9424995Y30006534D01*
X9889834Y30470563D01*
X10141713Y31077155D01*
X10142188Y31621347D01*
X10181841Y31661000D01*
X10285060Y31661000D01*
X10664830Y31407246D01*
X10648738Y31402525D01*
X10214809Y31052986D01*
X9947673Y30563996D01*
X9930990Y30484060D01*
X10053148Y30264000D01*
X11539000Y30264000D01*
X11539000Y30284000D01*
X11793000Y30284000D01*
X11793000Y30264000D01*
X13278852Y30264000D01*
X13401010Y30484060D01*
X13384327Y30563996D01*
X13117191Y31052986D01*
X12683262Y31402525D01*
X12667170Y31407246D01*
X13062222Y31671211D01*
X13370559Y32132671D01*
X13478833Y32677000D01*
X13370559Y33221329D01*
X13062222Y33682789D01*
X12890540Y33797503D01*
X13044317Y33826438D01*
X13260441Y33965510D01*
X13405431Y34177710D01*
X13410147Y34201000D01*
X15095000Y34201000D01*
X15419300Y34265507D01*
X15483807Y34278338D01*
X15813420Y34498580D01*
X17420841Y36106000D01*
X17657870Y36106000D01*
X17402579Y35935420D01*
X15425580Y33958420D01*
X15205338Y33628807D01*
X15202723Y33615661D01*
X15128000Y33240000D01*
X15128000Y22191000D01*
X13985019Y22191000D01*
X14283995Y22314534D01*
X14748834Y22778563D01*
X15000713Y23385155D01*
X15001286Y24041963D01*
X14750466Y24648995D01*
X14366000Y25034132D01*
X14366000Y25913000D01*
X14346021Y26013440D01*
X14288662Y26301807D01*
X14068421Y26631420D01*
X13416452Y27283389D01*
X13478833Y27597000D01*
X13370559Y28141329D01*
X13062222Y28602789D01*
X12667170Y28866754D01*
X12683262Y28871475D01*
X13117191Y29221014D01*
X13384327Y29710004D01*
X13401010Y29789940D01*
X13278852Y30010000D01*
X11793000Y30010000D01*
X11793000Y29990000D01*
X11539000Y29990000D01*
X11539000Y30010000D01*
X10053148Y30010000D01*
X9930990Y29789940D01*
X9947673Y29710004D01*
X10214809Y29221014D01*
X10648738Y28871475D01*
X10664830Y28866754D01*
X10269778Y28602789D01*
X9961441Y28141329D01*
X9853167Y27597000D01*
X9961441Y27052671D01*
X10269778Y26591211D01*
X10731238Y26282874D01*
X11275567Y26174600D01*
X11651560Y26174600D01*
X12334000Y25492159D01*
X12334000Y25033604D01*
X11951166Y24651437D01*
X11734415Y24129442D01*
X11542466Y24593995D01*
X11078437Y25058834D01*
X10471845Y25310713D01*
X9815037Y25311286D01*
X9208005Y25060466D01*
X8822868Y24676000D01*
X4554000Y24676000D01*
X4229700Y24611493D01*
X4165193Y24598662D01*
X3835580Y24378421D01*
X3247000Y23789840D01*
X3247000Y39063857D01*
X710000Y39063857D01*
X710000Y44445126D01*
X1346370Y44445126D01*
X1898600Y43108628D01*
X2920249Y42085194D01*
X4255782Y41530632D01*
X5701874Y41529370D01*
X7038372Y42081600D01*
X8061806Y43103249D01*
X8616368Y44438782D01*
X8616790Y44923037D01*
X10395714Y44923037D01*
X10646534Y44316005D01*
X11110563Y43851166D01*
X11717155Y43599287D01*
X12373963Y43598714D01*
X12980995Y43849534D01*
X13217766Y44085893D01*
X16142498Y44085893D01*
X16243120Y43817378D01*
X16858642Y43588184D01*
X17515019Y43611986D01*
X18010880Y43817378D01*
X18111502Y44085893D01*
X32652498Y44085893D01*
X32753120Y43817378D01*
X33368642Y43588184D01*
X34025019Y43611986D01*
X34520880Y43817378D01*
X34621502Y44085893D01*
X33637000Y45070395D01*
X32652498Y44085893D01*
X18111502Y44085893D01*
X17127000Y45070395D01*
X16142498Y44085893D01*
X13217766Y44085893D01*
X13445834Y44313563D01*
X13697713Y44920155D01*
X13698188Y45464347D01*
X14372841Y46139000D01*
X15708041Y46139000D01*
X15694378Y46133880D01*
X15465184Y45518358D01*
X15488986Y44861981D01*
X15694378Y44366120D01*
X15962893Y44265498D01*
X16947395Y45250000D01*
X16933253Y45264142D01*
X17112858Y45443747D01*
X17127000Y45429605D01*
X17141143Y45443747D01*
X17320748Y45264142D01*
X17306605Y45250000D01*
X18291107Y44265498D01*
X18559622Y44366120D01*
X18788816Y44981642D01*
X18765014Y45638019D01*
X18559622Y46133880D01*
X18545959Y46139000D01*
X22248120Y46139000D01*
X22576579Y45809968D01*
X23159841Y45567776D01*
X23791388Y45567225D01*
X24375072Y45808398D01*
X24822032Y46254579D01*
X25064224Y46837841D01*
X25064226Y46840612D01*
X26334225Y46840612D01*
X26575398Y46256928D01*
X27021579Y45809968D01*
X27604841Y45567776D01*
X28236388Y45567225D01*
X28820072Y45808398D01*
X29151251Y46139000D01*
X32218041Y46139000D01*
X32204378Y46133880D01*
X31975184Y45518358D01*
X31998986Y44861981D01*
X32204378Y44366120D01*
X32472893Y44265498D01*
X33457395Y45250000D01*
X33443253Y45264142D01*
X33622858Y45443747D01*
X33637000Y45429605D01*
X33651143Y45443747D01*
X33830748Y45264142D01*
X33816605Y45250000D01*
X34801107Y44265498D01*
X35069622Y44366120D01*
X35298816Y44981642D01*
X35275014Y45638019D01*
X35069622Y46133880D01*
X35055959Y46139000D01*
X36391160Y46139000D01*
X37066186Y45463974D01*
X37065714Y44923037D01*
X37316534Y44316005D01*
X37780563Y43851166D01*
X38387155Y43599287D01*
X39043963Y43598714D01*
X39650995Y43849534D01*
X40115834Y44313563D01*
X40170463Y44445126D01*
X41346370Y44445126D01*
X41898600Y43108628D01*
X42920249Y42085194D01*
X44255782Y41530632D01*
X45701874Y41529370D01*
X47038372Y42081600D01*
X48061806Y43103249D01*
X48616368Y44438782D01*
X48617630Y45884874D01*
X48065400Y47221372D01*
X47043751Y48244806D01*
X45708218Y48799368D01*
X44262126Y48800630D01*
X42925628Y48248400D01*
X41902194Y47226751D01*
X41347632Y45891218D01*
X41346370Y44445126D01*
X40170463Y44445126D01*
X40367713Y44920155D01*
X40368286Y45576963D01*
X40117466Y46183995D01*
X39653437Y46648834D01*
X39046845Y46900713D01*
X38502653Y46901188D01*
X37530420Y47873420D01*
X37200807Y48093662D01*
X37136300Y48106493D01*
X36812000Y48171000D01*
X29150880Y48171000D01*
X28822421Y48500032D01*
X28239159Y48742224D01*
X27607612Y48742775D01*
X27023928Y48501602D01*
X26576968Y48055421D01*
X26334776Y47472159D01*
X26334225Y46840612D01*
X25064226Y46840612D01*
X25064775Y47469388D01*
X24823602Y48053072D01*
X24377421Y48500032D01*
X23794159Y48742224D01*
X23162612Y48742775D01*
X22578928Y48501602D01*
X22247749Y48171000D01*
X13952000Y48171000D01*
X13627700Y48106493D01*
X13563193Y48093662D01*
X13233580Y47873421D01*
X12260974Y46900814D01*
X11720037Y46901286D01*
X11113005Y46650466D01*
X10648166Y46186437D01*
X10396287Y45579845D01*
X10395714Y44923037D01*
X8616790Y44923037D01*
X8617630Y45884874D01*
X8065400Y47221372D01*
X7043751Y48244806D01*
X5708218Y48799368D01*
X4262126Y48800630D01*
X2925628Y48248400D01*
X1902194Y47226751D01*
X1347632Y45891218D01*
X1346370Y44445126D01*
X710000Y44445126D01*
X710000Y44930069D01*
X1049408Y46636390D01*
X1976349Y48023654D01*
X3363610Y48950592D01*
X5069931Y49290000D01*
X44930069Y49290000D01*
X46636390Y48950592D01*
G36*
X9205563Y22261166D02*
X9806542Y22011618D01*
X11361580Y20456579D01*
X11691193Y20236338D01*
X11755700Y20223507D01*
X12080000Y20159000D01*
X30346468Y20159000D01*
X30114287Y19599845D01*
X30113757Y18992000D01*
X14280429Y18992000D01*
X14280429Y17403404D01*
X14233880Y17527622D01*
X13618358Y17756816D01*
X12961981Y17733014D01*
X12466120Y17527622D01*
X12365498Y17259107D01*
X13350000Y16274605D01*
X13364143Y16288747D01*
X13543748Y16109142D01*
X13529605Y16095000D01*
X14280429Y15344176D01*
X14280429Y15022000D01*
X14756573Y15022000D01*
X14756573Y13246000D01*
X7650604Y13246000D01*
X7268437Y13628834D01*
X6661845Y13880713D01*
X6005037Y13881286D01*
X5398005Y13630466D01*
X5354187Y13586724D01*
X5346327Y13605699D01*
X5167698Y13784327D01*
X4934309Y13881000D01*
X4077750Y13881000D01*
X3919000Y13722250D01*
X3919000Y12357000D01*
X3939000Y12357000D01*
X3939000Y12103000D01*
X3919000Y12103000D01*
X3919000Y10737750D01*
X4077750Y10579000D01*
X4934309Y10579000D01*
X5167698Y10675673D01*
X5346327Y10854301D01*
X5353993Y10872808D01*
X5395563Y10831166D01*
X6002155Y10579287D01*
X6658963Y10578714D01*
X7265995Y10829534D01*
X7651132Y11214000D01*
X28281000Y11214000D01*
X28605300Y11278507D01*
X28669807Y11291338D01*
X28999420Y11511580D01*
X31484123Y13996282D01*
X31521910Y13937559D01*
X31580666Y13897413D01*
X31532149Y13848980D01*
X31267482Y13211591D01*
X31266880Y12521437D01*
X31530434Y11883587D01*
X32018020Y11395149D01*
X32463908Y11210000D01*
X11500000Y11210000D01*
X11228295Y11155954D01*
X10997954Y11002046D01*
X10844046Y10771705D01*
X10790000Y10500000D01*
X10790000Y710000D01*
X5069931Y710000D01*
X3363610Y1049408D01*
X1976349Y1976346D01*
X1049408Y3363610D01*
X834282Y4445126D01*
X1346370Y4445126D01*
X1898600Y3108628D01*
X2920249Y2085194D01*
X4255782Y1530632D01*
X5701874Y1529370D01*
X7038372Y2081600D01*
X8061806Y3103249D01*
X8616368Y4438782D01*
X8617630Y5884874D01*
X8065400Y7221372D01*
X7043751Y8244806D01*
X5708218Y8799368D01*
X4262126Y8800630D01*
X2925628Y8248400D01*
X1902194Y7226751D01*
X1347632Y5891218D01*
X1346370Y4445126D01*
X834282Y4445126D01*
X710000Y5069931D01*
X710000Y11944250D01*
X2141000Y11944250D01*
X2141000Y11087690D01*
X2237673Y10854301D01*
X2416302Y10675673D01*
X2649691Y10579000D01*
X3506250Y10579000D01*
X3665000Y10737750D01*
X3665000Y12103000D01*
X2299750Y12103000D01*
X2141000Y11944250D01*
X710000Y11944250D01*
X710000Y13372310D01*
X2141000Y13372310D01*
X2141000Y12515750D01*
X2299750Y12357000D01*
X3665000Y12357000D01*
X3665000Y13722250D01*
X3506250Y13881000D01*
X2649691Y13881000D01*
X2416302Y13784327D01*
X2237673Y13605699D01*
X2141000Y13372310D01*
X710000Y13372310D01*
X710000Y14208143D01*
X3247000Y14208143D01*
X3247000Y14875893D01*
X9157498Y14875893D01*
X9258120Y14607378D01*
X9873642Y14378184D01*
X10530019Y14401986D01*
X11025880Y14607378D01*
X11126502Y14875893D01*
X11071502Y14930893D01*
X12365498Y14930893D01*
X12466120Y14662378D01*
X13081642Y14433184D01*
X13738019Y14456986D01*
X14233880Y14662378D01*
X14334502Y14930893D01*
X13350000Y15915395D01*
X12365498Y14930893D01*
X11071502Y14930893D01*
X10142000Y15860395D01*
X9157498Y14875893D01*
X3247000Y14875893D01*
X3247000Y16308358D01*
X8480184Y16308358D01*
X8503986Y15651981D01*
X8709378Y15156120D01*
X8977893Y15055498D01*
X9962395Y16040000D01*
X10321605Y16040000D01*
X11306107Y15055498D01*
X11574622Y15156120D01*
X11747665Y15620844D01*
X11917378Y15211120D01*
X12185893Y15110498D01*
X13170395Y16095000D01*
X12185893Y17079502D01*
X11917378Y16978880D01*
X11744335Y16514156D01*
X11574622Y16923880D01*
X11306107Y17024502D01*
X10321605Y16040000D01*
X9962395Y16040000D01*
X8977893Y17024502D01*
X8709378Y16923880D01*
X8480184Y16308358D01*
X3247000Y16308358D01*
X3247000Y17204107D01*
X9157498Y17204107D01*
X10142000Y16219605D01*
X11126502Y17204107D01*
X11025880Y17472622D01*
X10410358Y17701816D01*
X9753981Y17678014D01*
X9258120Y17472622D01*
X9157498Y17204107D01*
X3247000Y17204107D01*
X3247000Y18821560D01*
X4808000Y18821560D01*
X5043317Y18865838D01*
X5259441Y19004910D01*
X5392779Y19200057D01*
X5448120Y19052378D01*
X6063642Y18823184D01*
X6720019Y18846986D01*
X7215880Y19052378D01*
X7316502Y19320893D01*
X6332000Y20305395D01*
X6317858Y20291252D01*
X6138253Y20470857D01*
X6152395Y20485000D01*
X6511605Y20485000D01*
X7496107Y19500498D01*
X7764622Y19601120D01*
X7993816Y20216642D01*
X7970014Y20873019D01*
X7764622Y21368880D01*
X7496107Y21469502D01*
X6511605Y20485000D01*
X6152395Y20485000D01*
X6138253Y20499142D01*
X6317858Y20678747D01*
X6332000Y20664605D01*
X7316502Y21649107D01*
X7215880Y21917622D01*
X6600358Y22146816D01*
X5943981Y22123014D01*
X5448120Y21917622D01*
X5391581Y21766746D01*
X5272090Y21952441D01*
X5059890Y22097431D01*
X4808000Y22148440D01*
X4808000Y22477160D01*
X4974841Y22644000D01*
X8823396Y22644000D01*
X9205563Y22261166D01*
X9205563Y22261166D01*
G37*
X9205563Y22261166D02*
X9806542Y22011618D01*
X11361580Y20456579D01*
X11691193Y20236338D01*
X11755700Y20223507D01*
X12080000Y20159000D01*
X30346468Y20159000D01*
X30114287Y19599845D01*
X30113757Y18992000D01*
X14280429Y18992000D01*
X14280429Y17403404D01*
X14233880Y17527622D01*
X13618358Y17756816D01*
X12961981Y17733014D01*
X12466120Y17527622D01*
X12365498Y17259107D01*
X13350000Y16274605D01*
X13364143Y16288747D01*
X13543748Y16109142D01*
X13529605Y16095000D01*
X14280429Y15344176D01*
X14280429Y15022000D01*
X14756573Y15022000D01*
X14756573Y13246000D01*
X7650604Y13246000D01*
X7268437Y13628834D01*
X6661845Y13880713D01*
X6005037Y13881286D01*
X5398005Y13630466D01*
X5354187Y13586724D01*
X5346327Y13605699D01*
X5167698Y13784327D01*
X4934309Y13881000D01*
X4077750Y13881000D01*
X3919000Y13722250D01*
X3919000Y12357000D01*
X3939000Y12357000D01*
X3939000Y12103000D01*
X3919000Y12103000D01*
X3919000Y10737750D01*
X4077750Y10579000D01*
X4934309Y10579000D01*
X5167698Y10675673D01*
X5346327Y10854301D01*
X5353993Y10872808D01*
X5395563Y10831166D01*
X6002155Y10579287D01*
X6658963Y10578714D01*
X7265995Y10829534D01*
X7651132Y11214000D01*
X28281000Y11214000D01*
X28605300Y11278507D01*
X28669807Y11291338D01*
X28999420Y11511580D01*
X31484123Y13996282D01*
X31521910Y13937559D01*
X31580666Y13897413D01*
X31532149Y13848980D01*
X31267482Y13211591D01*
X31266880Y12521437D01*
X31530434Y11883587D01*
X32018020Y11395149D01*
X32463908Y11210000D01*
X11500000Y11210000D01*
X11228295Y11155954D01*
X10997954Y11002046D01*
X10844046Y10771705D01*
X10790000Y10500000D01*
X10790000Y710000D01*
X5069931Y710000D01*
X3363610Y1049408D01*
X1976349Y1976346D01*
X1049408Y3363610D01*
X834282Y4445126D01*
X1346370Y4445126D01*
X1898600Y3108628D01*
X2920249Y2085194D01*
X4255782Y1530632D01*
X5701874Y1529370D01*
X7038372Y2081600D01*
X8061806Y3103249D01*
X8616368Y4438782D01*
X8617630Y5884874D01*
X8065400Y7221372D01*
X7043751Y8244806D01*
X5708218Y8799368D01*
X4262126Y8800630D01*
X2925628Y8248400D01*
X1902194Y7226751D01*
X1347632Y5891218D01*
X1346370Y4445126D01*
X834282Y4445126D01*
X710000Y5069931D01*
X710000Y11944250D01*
X2141000Y11944250D01*
X2141000Y11087690D01*
X2237673Y10854301D01*
X2416302Y10675673D01*
X2649691Y10579000D01*
X3506250Y10579000D01*
X3665000Y10737750D01*
X3665000Y12103000D01*
X2299750Y12103000D01*
X2141000Y11944250D01*
X710000Y11944250D01*
X710000Y13372310D01*
X2141000Y13372310D01*
X2141000Y12515750D01*
X2299750Y12357000D01*
X3665000Y12357000D01*
X3665000Y13722250D01*
X3506250Y13881000D01*
X2649691Y13881000D01*
X2416302Y13784327D01*
X2237673Y13605699D01*
X2141000Y13372310D01*
X710000Y13372310D01*
X710000Y14208143D01*
X3247000Y14208143D01*
X3247000Y14875893D01*
X9157498Y14875893D01*
X9258120Y14607378D01*
X9873642Y14378184D01*
X10530019Y14401986D01*
X11025880Y14607378D01*
X11126502Y14875893D01*
X11071502Y14930893D01*
X12365498Y14930893D01*
X12466120Y14662378D01*
X13081642Y14433184D01*
X13738019Y14456986D01*
X14233880Y14662378D01*
X14334502Y14930893D01*
X13350000Y15915395D01*
X12365498Y14930893D01*
X11071502Y14930893D01*
X10142000Y15860395D01*
X9157498Y14875893D01*
X3247000Y14875893D01*
X3247000Y16308358D01*
X8480184Y16308358D01*
X8503986Y15651981D01*
X8709378Y15156120D01*
X8977893Y15055498D01*
X9962395Y16040000D01*
X10321605Y16040000D01*
X11306107Y15055498D01*
X11574622Y15156120D01*
X11747665Y15620844D01*
X11917378Y15211120D01*
X12185893Y15110498D01*
X13170395Y16095000D01*
X12185893Y17079502D01*
X11917378Y16978880D01*
X11744335Y16514156D01*
X11574622Y16923880D01*
X11306107Y17024502D01*
X10321605Y16040000D01*
X9962395Y16040000D01*
X8977893Y17024502D01*
X8709378Y16923880D01*
X8480184Y16308358D01*
X3247000Y16308358D01*
X3247000Y17204107D01*
X9157498Y17204107D01*
X10142000Y16219605D01*
X11126502Y17204107D01*
X11025880Y17472622D01*
X10410358Y17701816D01*
X9753981Y17678014D01*
X9258120Y17472622D01*
X9157498Y17204107D01*
X3247000Y17204107D01*
X3247000Y18821560D01*
X4808000Y18821560D01*
X5043317Y18865838D01*
X5259441Y19004910D01*
X5392779Y19200057D01*
X5448120Y19052378D01*
X6063642Y18823184D01*
X6720019Y18846986D01*
X7215880Y19052378D01*
X7316502Y19320893D01*
X6332000Y20305395D01*
X6317858Y20291252D01*
X6138253Y20470857D01*
X6152395Y20485000D01*
X6511605Y20485000D01*
X7496107Y19500498D01*
X7764622Y19601120D01*
X7993816Y20216642D01*
X7970014Y20873019D01*
X7764622Y21368880D01*
X7496107Y21469502D01*
X6511605Y20485000D01*
X6152395Y20485000D01*
X6138253Y20499142D01*
X6317858Y20678747D01*
X6332000Y20664605D01*
X7316502Y21649107D01*
X7215880Y21917622D01*
X6600358Y22146816D01*
X5943981Y22123014D01*
X5448120Y21917622D01*
X5391581Y21766746D01*
X5272090Y21952441D01*
X5059890Y22097431D01*
X4808000Y22148440D01*
X4808000Y22477160D01*
X4974841Y22644000D01*
X8823396Y22644000D01*
X9205563Y22261166D01*
M02*
